<?xml version="1.0" encoding="UTF-8" standalone="no"?>
<!-- Created with Inkscape (http://www.inkscape.org/) -->

<svg
   xmlns:dc="http://purl.org/dc/elements/1.1/"
   xmlns:cc="http://creativecommons.org/ns#"
   xmlns:rdf="http://www.w3.org/1999/02/22-rdf-syntax-ns#"
   xmlns:svg="http://www.w3.org/2000/svg"
   xmlns="http://www.w3.org/2000/svg"
   xmlns:sodipodi="http://sodipodi.sourceforge.net/DTD/sodipodi-0.dtd"
   xmlns:inkscape="http://www.inkscape.org/namespaces/inkscape"
   inkscape:version="0.91 r13725"
   version="1.1"
   id="svg2"
   viewBox="0 0 744.09448819 1052.3622047"
   height="297mm"
   width="210mm"
   sodipodi:docname="sheet.svg">
  <sodipodi:namedview
     inkscape:window-maximized="1"
     inkscape:window-y="27"
     inkscape:window-x="0"
     inkscape:window-height="1376"
     inkscape:window-width="2560"
     showgrid="false"
     inkscape:current-layer="svg2"
     inkscape:document-units="px"
     inkscape:cy="495.76035"
     inkscape:cx="557.3073"
     inkscape:zoom="0.7"
     inkscape:pageshadow="2"
     inkscape:pageopacity="0.0"
     borderopacity="1.0"
     bordercolor="#666666"
     pagecolor="#ffffff"
     id="base" />
  <defs
     id="defs4" />
  <metadata
     id="metadata7">
    <rdf:RDF>
      <cc:Work
         rdf:about="">
        <dc:format>image/svg+xml</dc:format>
        <dc:type
           rdf:resource="http://purl.org/dc/dcmitype/StillImage" />
        <dc:title></dc:title>
      </cc:Work>
    </rdf:RDF>
  </metadata>
  <g
     inkscape:label="Layer 1"
     inkscape:groupmode="layer"
     id="layer1" />
  <g
     transform="translate(71.756133,47.85266)"
     style="fill:#000000"
     id="barcode1">
    <rect
       id="barcode1_bar1"
       height="34"
       width="1"
       y="0"
       x="0" />
    <rect
       id="barcode1_bar3"
       height="34"
       width="1"
       y="0"
       x="2" />
    <rect
       id="barcode1_bar5"
       height="30"
       width="2"
       y="0"
       x="6" />
    <rect
       id="barcode1_bar7"
       height="30"
       width="1"
       y="0"
       x="9" />
    <rect
       id="barcode1_bar9"
       height="30"
       width="2"
       y="0"
       x="13" />
    <rect
       id="barcode1_bar11"
       height="30"
       width="1"
       y="0"
       x="16" />
    <rect
       id="barcode1_bar13"
       height="30"
       width="2"
       y="0"
       x="20" />
    <rect
       id="barcode1_bar15"
       height="30"
       width="1"
       y="0"
       x="23" />
    <rect
       id="barcode1_bar17"
       height="30"
       width="2"
       y="0"
       x="27" />
    <rect
       id="barcode1_bar19"
       height="30"
       width="1"
       y="0"
       x="30" />
    <rect
       id="barcode1_bar21"
       height="30"
       width="2"
       y="0"
       x="34" />
    <rect
       id="barcode1_bar23"
       height="30"
       width="1"
       y="0"
       x="37" />
    <rect
       id="barcode1_bar25"
       height="30"
       width="2"
       y="0"
       x="41" />
    <rect
       id="barcode1_bar27"
       height="30"
       width="1"
       y="0"
       x="44" />
    <rect
       id="barcode1_bar29"
       height="34"
       width="1"
       y="0"
       x="46" />
    <rect
       id="barcode1_bar31"
       height="34"
       width="1"
       y="0"
       x="48" />
    <rect
       id="barcode1_bar33"
       height="30"
       width="3"
       y="0"
       x="50" />
    <rect
       id="barcode1_bar35"
       height="30"
       width="1"
       y="0"
       x="55" />
    <rect
       id="barcode1_bar37"
       height="30"
       width="3"
       y="0"
       x="57" />
    <rect
       id="barcode1_bar39"
       height="30"
       width="1"
       y="0"
       x="62" />
    <rect
       id="barcode1_bar41"
       height="30"
       width="3"
       y="0"
       x="64" />
    <rect
       id="barcode1_bar43"
       height="30"
       width="1"
       y="0"
       x="69" />
    <rect
       id="barcode1_bar45"
       height="30"
       width="3"
       y="0"
       x="71" />
    <rect
       id="barcode1_bar47"
       height="30"
       width="1"
       y="0"
       x="76" />
    <rect
       id="barcode1_bar49"
       height="30"
       width="2"
       y="0"
       x="78" />
    <rect
       id="barcode1_bar51"
       height="30"
       width="2"
       y="0"
       x="82" />
    <rect
       id="barcode1_bar53"
       height="30"
       width="1"
       y="0"
       x="85" />
    <rect
       id="barcode1_bar55"
       height="30"
       width="1"
       y="0"
       x="89" />
    <rect
       id="barcode1_bar57"
       height="34"
       width="1"
       y="0"
       x="92" />
    <rect
       id="barcode1_bar59"
       height="34"
       width="1"
       y="0"
       x="94" />
    <text
       id="barcode1_text"
       xml:space="preserve"
       style="font-size:9px;text-align:center;text-anchor:middle"
       y="39"
       x="47">0    000000     000017       </text>
  </g>
  <g
     id="barcode"
     style="fill:#000000"
     transform="translate(72.766286,203.41615)">
    <rect
       x="0"
       y="0"
       width="1"
       height="34"
       id="barcode_bar1" />
    <rect
       x="2"
       y="0"
       width="1"
       height="34"
       id="barcode_bar3" />
    <rect
       x="6"
       y="0"
       width="2"
       height="30"
       id="barcode_bar5" />
    <rect
       x="9"
       y="0"
       width="1"
       height="30"
       id="barcode_bar7" />
    <rect
       x="13"
       y="0"
       width="2"
       height="30"
       id="barcode_bar9" />
    <rect
       x="16"
       y="0"
       width="1"
       height="30"
       id="barcode_bar11" />
    <rect
       x="20"
       y="0"
       width="2"
       height="30"
       id="barcode_bar13" />
    <rect
       x="23"
       y="0"
       width="1"
       height="30"
       id="barcode_bar15" />
    <rect
       x="27"
       y="0"
       width="2"
       height="30"
       id="barcode_bar17" />
    <rect
       x="30"
       y="0"
       width="1"
       height="30"
       id="barcode_bar19" />
    <rect
       x="34"
       y="0"
       width="2"
       height="30"
       id="barcode_bar21" />
    <rect
       x="37"
       y="0"
       width="1"
       height="30"
       id="barcode_bar23" />
    <rect
       x="41"
       y="0"
       width="2"
       height="30"
       id="barcode_bar25" />
    <rect
       x="44"
       y="0"
       width="1"
       height="30"
       id="barcode_bar27" />
    <rect
       x="46"
       y="0"
       width="1"
       height="34"
       id="barcode_bar29" />
    <rect
       x="48"
       y="0"
       width="1"
       height="34"
       id="barcode_bar31" />
    <rect
       x="50"
       y="0"
       width="3"
       height="30"
       id="barcode_bar33" />
    <rect
       x="55"
       y="0"
       width="1"
       height="30"
       id="barcode_bar35" />
    <rect
       x="57"
       y="0"
       width="3"
       height="30"
       id="barcode_bar37" />
    <rect
       x="62"
       y="0"
       width="1"
       height="30"
       id="barcode_bar39" />
    <rect
       x="64"
       y="0"
       width="3"
       height="30"
       id="barcode_bar41" />
    <rect
       x="69"
       y="0"
       width="1"
       height="30"
       id="barcode_bar43" />
    <rect
       x="71"
       y="0"
       width="3"
       height="30"
       id="barcode_bar45" />
    <rect
       x="76"
       y="0"
       width="1"
       height="30"
       id="barcode_bar47" />
    <rect
       x="78"
       y="0"
       width="2"
       height="30"
       id="barcode_bar49" />
    <rect
       x="81"
       y="0"
       width="2"
       height="30"
       id="barcode_bar51" />
    <rect
       x="85"
       y="0"
       width="1"
       height="30"
       id="barcode_bar53" />
    <rect
       x="87"
       y="0"
       width="3"
       height="30"
       id="barcode_bar55" />
    <rect
       x="92"
       y="0"
       width="1"
       height="34"
       id="barcode_bar57" />
    <rect
       x="94"
       y="0"
       width="1"
       height="34"
       id="barcode_bar59" />
    <text
       x="47"
       y="39"
       style="font-size:9px;text-align:center;text-anchor:middle"
       xml:space="preserve"
       id="barcode_text">0    000000     000024       </text>
  </g>
  <g
     transform="translate(73.776438,360.99995)"
     style="fill:#000000"
     id="barcode2">
    <rect
       id="barcode2_bar1"
       height="34"
       width="1"
       y="0"
       x="0" />
    <rect
       id="barcode2_bar3"
       height="34"
       width="1"
       y="0"
       x="2" />
    <rect
       id="barcode2_bar5"
       height="30"
       width="2"
       y="0"
       x="6" />
    <rect
       id="barcode2_bar7"
       height="30"
       width="1"
       y="0"
       x="9" />
    <rect
       id="barcode2_bar9"
       height="30"
       width="2"
       y="0"
       x="13" />
    <rect
       id="barcode2_bar11"
       height="30"
       width="1"
       y="0"
       x="16" />
    <rect
       id="barcode2_bar13"
       height="30"
       width="2"
       y="0"
       x="20" />
    <rect
       id="barcode2_bar15"
       height="30"
       width="1"
       y="0"
       x="23" />
    <rect
       id="barcode2_bar17"
       height="30"
       width="2"
       y="0"
       x="27" />
    <rect
       id="barcode2_bar19"
       height="30"
       width="1"
       y="0"
       x="30" />
    <rect
       id="barcode2_bar21"
       height="30"
       width="2"
       y="0"
       x="34" />
    <rect
       id="barcode2_bar23"
       height="30"
       width="1"
       y="0"
       x="37" />
    <rect
       id="barcode2_bar25"
       height="30"
       width="2"
       y="0"
       x="41" />
    <rect
       id="barcode2_bar27"
       height="30"
       width="1"
       y="0"
       x="44" />
    <rect
       id="barcode2_bar29"
       height="34"
       width="1"
       y="0"
       x="46" />
    <rect
       id="barcode2_bar31"
       height="34"
       width="1"
       y="0"
       x="48" />
    <rect
       id="barcode2_bar33"
       height="30"
       width="3"
       y="0"
       x="50" />
    <rect
       id="barcode2_bar35"
       height="30"
       width="1"
       y="0"
       x="55" />
    <rect
       id="barcode2_bar37"
       height="30"
       width="3"
       y="0"
       x="57" />
    <rect
       id="barcode2_bar39"
       height="30"
       width="1"
       y="0"
       x="62" />
    <rect
       id="barcode2_bar41"
       height="30"
       width="3"
       y="0"
       x="64" />
    <rect
       id="barcode2_bar43"
       height="30"
       width="1"
       y="0"
       x="69" />
    <rect
       id="barcode2_bar45"
       height="30"
       width="3"
       y="0"
       x="71" />
    <rect
       id="barcode2_bar47"
       height="30"
       width="1"
       y="0"
       x="76" />
    <rect
       id="barcode2_bar49"
       height="30"
       width="1"
       y="0"
       x="78" />
    <rect
       id="barcode2_bar51"
       height="30"
       width="1"
       y="0"
       x="83" />
    <rect
       id="barcode2_bar53"
       height="30"
       width="2"
       y="0"
       x="85" />
    <rect
       id="barcode2_bar55"
       height="30"
       width="2"
       y="0"
       x="89" />
    <rect
       id="barcode2_bar57"
       height="34"
       width="1"
       y="0"
       x="92" />
    <rect
       id="barcode2_bar59"
       height="34"
       width="1"
       y="0"
       x="94" />
    <text
       id="barcode2_text"
       xml:space="preserve"
       style="font-size:9px;text-align:center;text-anchor:middle"
       y="39"
       x="47">0    000000     000031       </text>
  </g>
  <text
     xml:space="preserve"
     style="font-style:normal;font-weight:normal;font-size:40px;line-height:125%;font-family:sans-serif;letter-spacing:0px;word-spacing:0px;fill:#000000;fill-opacity:1;stroke:none;stroke-width:1px;stroke-linecap:butt;stroke-linejoin:miter;stroke-opacity:1"
     x="231.42857"
     y="80.933609"
     id="text5547"
     sodipodi:linespacing="125%"><tspan
       sodipodi:role="line"
       id="tspan5549"
       x="231.42857"
       y="80.933609">Remove last item</tspan></text>
  <text
     xml:space="preserve"
     style="font-style:normal;font-weight:normal;font-size:40px;line-height:125%;font-family:sans-serif;letter-spacing:0px;word-spacing:0px;fill:#000000;fill-opacity:1;stroke:none;stroke-width:1px;stroke-linecap:butt;stroke-linejoin:miter;stroke-opacity:1"
     x="233.12222"
     y="232.27431"
     id="text5547-3"
     sodipodi:linespacing="125%"><tspan
       sodipodi:role="line"
       id="tspan5549-6"
       x="233.12222"
       y="232.27431">Remove five items</tspan></text>
  <text
     xml:space="preserve"
     style="font-style:normal;font-weight:normal;font-size:40px;line-height:125%;font-family:sans-serif;letter-spacing:0px;word-spacing:0px;fill:#000000;fill-opacity:1;stroke:none;stroke-width:1px;stroke-linecap:butt;stroke-linejoin:miter;stroke-opacity:1"
     x="232.0201"
     y="389.41718"
     id="text5547-3-7"
     sodipodi:linespacing="125%"><tspan
       sodipodi:role="line"
       id="tspan5549-6-5"
       x="232.0201"
       y="389.41718">Remove all items</tspan></text>
</svg>
