<?xml version="1.0" encoding="UTF-8" standalone="no"?>
<!-- Created with Inkscape (http://www.inkscape.org/) -->

<svg
   xmlns:dc="http://purl.org/dc/elements/1.1/"
   xmlns:cc="http://creativecommons.org/ns#"
   xmlns:rdf="http://www.w3.org/1999/02/22-rdf-syntax-ns#"
   xmlns:svg="http://www.w3.org/2000/svg"
   xmlns="http://www.w3.org/2000/svg"
   xmlns:sodipodi="http://sodipodi.sourceforge.net/DTD/sodipodi-0.dtd"
   xmlns:inkscape="http://www.inkscape.org/namespaces/inkscape"
   width="72.248886mm"
   height="62.767681mm"
   viewBox="0 0 255.99999 222.40517"
   id="svg2"
   version="1.1"
   inkscape:version="0.91 r13725"
   sodipodi:docname="shopping_cart.svg">
  <defs
     id="defs4" />
  <sodipodi:namedview
     id="base"
     pagecolor="#ffffff"
     bordercolor="#666666"
     borderopacity="1.0"
     inkscape:pageopacity="0.0"
     inkscape:pageshadow="2"
     inkscape:zoom="1.4142136"
     inkscape:cx="349.20639"
     inkscape:cy="78.649531"
     inkscape:document-units="px"
     inkscape:current-layer="g5959"
     showgrid="false"
     inkscape:snap-bbox="false"
     inkscape:bbox-paths="true"
     inkscape:snap-bbox-edge-midpoints="true"
     inkscape:snap-bbox-midpoints="true"
     inkscape:bbox-nodes="true"
     inkscape:snap-intersection-paths="true"
     inkscape:object-paths="true"
     inkscape:object-nodes="true"
     inkscape:snap-smooth-nodes="true"
     inkscape:snap-midpoints="true"
     inkscape:snap-global="false"
     inkscape:window-width="2556"
     inkscape:window-height="1400"
     inkscape:window-x="0"
     inkscape:window-y="38"
     inkscape:window-maximized="0"
     fit-margin-top="0"
     fit-margin-left="0"
     fit-margin-right="0"
     fit-margin-bottom="0" />
  <metadata
     id="metadata7">
    <rdf:RDF>
      <cc:Work
         rdf:about="">
        <dc:format>image/svg+xml</dc:format>
        <dc:type
           rdf:resource="http://purl.org/dc/dcmitype/StillImage" />
        <dc:title></dc:title>
      </cc:Work>
    </rdf:RDF>
  </metadata>
  <g
     inkscape:label="Layer 1"
     inkscape:groupmode="layer"
     id="layer1"
     transform="translate(-219.36309,-180.98661)">
    <g
       id="g5959"
       style="fill:#333333;stroke:none"
       transform="matrix(0.81308765,0,0,0.81308765,-177.3382,108.17632)">
      <g
         id="g5964"
         transform="translate(1436.6722,-215.67476)"
         style="fill:#ffffff">
        <path
           inkscape:connector-curvature="0"
           style="fill:#ffffff;stroke:none"
           d="m -942.74219,305.22266 c -1.86503,0 -6.03515,4.76683 -6.03515,6.89843 0,1.09433 1.0125,3.1382 2.25,4.54102 1.98454,2.24966 4.32183,2.92304 19.82226,5.70898 16.62729,2.98849 17.63409,3.29913 18.69336,5.75586 0.61577,1.42812 3.21106,7.99571 5.76563,14.59571 2.55457,6.6 8.25528,21.225 12.66797,32.5 9.44466,24.13242 19.80078,51.64648 19.80078,51.64648 l 4.64453,12.66602 c 0,0 6.34656,14.77716 6.35156,16.03711 0.002,0.46688 0.65166,2.26688 1.44531,4 0.79364,1.73312 3.03449,7.15024 4.97852,12.03906 l 3.53515,8.88867 -4.0625,3.94336 c -5.11451,4.96346 -7.17731,9.77324 -7.19531,16.7793 -0.0291,11.32396 7.12211,19.38899 19.80274,22.33398 1.1,0.25547 42.59676,0.39655 92.21484,0.31445 100.76747,-0.16679 93.48438,0.39471 93.48438,-7.20507 -10e-6,-2.79301 -0.61531,-4.25787 -2.34961,-5.5918 -2.2263,-1.71236 -7.11944,-1.80898 -92.96485,-1.83008 -90.14198,-0.0221 -90.6289,-0.032 -93.25,-2.09375 -3.75182,-2.95118 -3.70319,-8.85694 0.10352,-12.38672 1.50688,-1.39726 3.08942,-2.54101 3.51562,-2.54101 1.32828,0 4.73819,-6.38034 4.74219,-8.87305 0.003,-1.83378 0.29926,-2.1274 1.30469,-1.29297 0.93682,0.7775 7.58181,0.53472 23.75,-0.86719 12.34707,-1.07058 28.07422,-2.40849 34.94922,-2.97461 6.875,-0.56612 17.45,-1.45014 23.5,-1.96484 6.05,-0.51469 29.9,-2.54209 53,-4.50391 35.32522,-3.00009 42.19865,-3.83203 43.25,-5.23632 0.6875,-0.9183 1.25,-2.08222 1.25,-2.58594 0.40294,-0.2178 3.49215,-16.0096 6.48632,-28.70117 1.25352,-5.92967 2.81434,-12.66457 10.19727,-44 3.05928,-12.98449 3.8208,-18.57121 2.63086,-19.30664 -0.504,-0.31149 -11.02024,-1.48485 -23.36719,-2.60743 -12.34694,-1.12258 -27.39726,-2.50378 -33.44726,-3.07031 -6.05,-0.56653 -31.475,-2.83749 -56.5,-5.04687 -25.025,-2.20938 -55.175,-4.89294 -67,-5.96289 -26.62062,-2.40869 -42.42038,-3.82955 -55.92578,-5.03125 -6.70212,-0.59635 -10.84511,-0.5793 -11.59961,0.0469 -1.30265,1.08111 -2.02848,-0.38137 -7.95508,-16.02148 -6.43263,-16.97552 -7.07532,-18.32591 -9.56446,-20.11914 -1.5511,-1.11745 -9.7056,-3.08096 -22.125,-5.32618 -10.81766,-1.95564 -20.17508,-3.55468 -20.79492,-3.55468 z m 70.6211,52.44531 c 0.2701,0.0225 0.46773,0.0297 0.74804,0.0547 2.57757,0.22935 7.87151,0.71019 10.67578,0.96093 l 3.34571,5.86329 -9.3086,15.95898 -9.4414,-15.95898 3.98047,-6.87891 z m 26.53125,2.375 c 4.46042,0.4011 8.88955,0.798 14.30859,1.28711 l 1.83594,3.2168 -9.3086,15.95898 -9.4414,-15.95898 2.60547,-4.50391 z m 26.52539,2.38672 c 1.62872,0.1473 1.88902,0.16891 3.60547,0.32422 2.40132,0.21727 9.87712,0.87657 13.58789,1.20898 l 0.33203,0.58399 -9.30664,15.95898 -9.44336,-15.95898 1.22461,-2.11719 z m 26.84375,2.39258 c 5.67729,0.50674 10.86722,0.96766 17.51758,1.55859 l -8.23633,14.125 -9.28125,-15.68359 z m 29.46093,2.62109 c 5.58619,0.49502 8.9708,0.80327 14.31836,1.27539 0.11942,0.0105 0.15012,0.0129 0.26953,0.0234 l -6.86132,11.76367 -7.72657,-13.0625 z m -90.41406,1.86523 9.30664,16.31836 -9.30664,15.95899 -9.44336,-15.95899 9.44336,-16.31836 z m 27.90625,0 9.30664,16.31836 -9.30664,15.95899 -9.44336,-15.95899 9.44336,-16.31836 z m 27.90625,0 9.3086,16.31836 -9.3086,15.95899 -9.4414,-15.95899 9.4414,-16.31836 z m 27.90625,0 9.3086,16.31836 -9.3086,15.95899 -9.4414,-15.95899 9.4414,-16.31836 z m 27.89258,0.0254 c 0.0129,0.001 0.0164,9.6e-4 0.0293,0.002 l 9.29297,16.29101 -9.3086,15.95899 -9.4414,-15.95899 9.42773,-16.29297 z m 8.26172,0.73633 c 4.91809,0.43682 7.32717,0.65495 11.65234,1.04102 l -5.47851,9.39453 -6.17383,-10.43555 z m 18.27344,1.63281 c 0.95314,0.0854 2.0079,0.17987 2.89843,0.25977 l 7.79493,13.66406 -9.3086,15.95899 -9.4414,-15.95899 8.05664,-13.92383 z m 11.18945,1 c 2.04928,0.18537 7.46926,0.66256 8.71484,0.77735 l -4.09765,7.02539 -4.61719,-7.80274 z m 15.33984,1.37891 c 1.35122,0.12556 4.03239,0.36933 5.78711,0.53125 l 6.28321,11.01367 -9.3086,15.95899 -9.4414,-15.95899 6.67968,-11.54492 z m 14.15235,1.29883 c 2.0983,0.1925 3.50986,0.32178 5.71484,0.52344 l -2.68359,4.60156 -3.03125,-5.125 z m 12.34765,1.13281 c 1.33116,0.1213 2.19841,0.20339 3.48438,0.32031 1.84836,0.16806 3.52445,0.33287 5.26172,0.5 l 4.73047,8.29297 -9.3086,15.95899 -9.4414,-15.95899 5.27343,-9.11328 z m 17.22071,1.67774 c 0.70981,0.0762 1.59286,0.16277 2.23437,0.23437 0.13693,0.0154 0.2036,0.0251 0.32422,0.0391 l -1.18945,2.04102 -1.36914,-2.31445 z m -194.91211,12.19726 9.30664,16.31641 -9.30664,15.96094 -9.44336,-15.96094 9.44336,-16.31641 z m 27.90625,0 9.30859,16.31641 -9.30859,15.96094 -9.44141,-15.96094 9.44141,-16.31641 z m 27.90625,0 9.30859,16.31641 -9.30859,15.96094 -9.44141,-15.96094 9.44141,-16.31641 z m 27.90625,0 9.30859,16.31641 -9.30859,15.96094 -9.44141,-15.96094 9.44141,-16.31641 z m 27.90625,0 9.30859,16.31641 -9.30859,15.96094 -9.44141,-15.96094 9.44141,-16.31641 z m 27.90625,0 9.30859,16.31641 -9.30859,15.96094 -9.44141,-15.96094 9.44141,-16.31641 z m 27.9082,0 9.30664,16.31641 -9.30664,15.96094 -9.44336,-15.96094 9.44336,-16.31641 z m -195.06445,0.49414 9.02539,15.82227 -1.95313,3.34961 -7.07226,-19.17188 z m 222.43945,0.42578 c -2.43597,10.34135 -3.8079,16.19505 -5.11914,21.8086 l -3.79297,-6.41211 8.91211,-15.39649 z m -209.23633,20.16016 9.3086,16.31641 -5.45313,9.34765 -7.28125,-19.74219 3.42578,-5.92187 z m 27.90625,0 9.3086,16.31641 -9.3086,15.96093 -9.4414,-15.96093 9.4414,-16.31641 z m 27.90625,0 9.3086,16.31641 -9.3086,15.96093 -9.4414,-15.96093 9.4414,-16.31641 z m 27.90625,0 9.3086,16.31641 -9.3086,15.96093 -9.4414,-15.96093 9.4414,-16.31641 z m 27.90625,0 9.3086,16.31641 -9.3086,15.96093 -9.4414,-15.96093 9.4414,-16.31641 z m 27.90821,0 9.30664,16.31641 -9.30664,15.96093 -9.44336,-15.96093 9.44336,-16.31641 z m 27.90624,0 9.30665,16.31641 -9.30665,15.96093 -9.44335,-15.96093 9.44335,-16.31641 z m 27.90626,0 6.49804,11.39258 c -1.12258,4.87374 -1.82136,8.00105 -2.37695,10.62695 -0.006,0.0251 -0.0116,0.0491 -0.0176,0.0742 l -0.0215,0.0977 c -0.38688,1.64296 -0.75894,3.34832 -1.14063,5.04101 l -2.9414,5.04492 -9.44336,-15.96093 9.44336,-16.31641 z m -180.92383,19.7832 9.30859,16.31641 -9.30859,15.96094 -2.20508,-3.72657 -5.57227,-15.10937 7.77735,-13.44141 z m 27.90625,0 9.30859,16.31641 -9.30859,15.96094 -9.44141,-15.96094 9.44141,-16.31641 z m 27.90625,0 9.30859,16.31641 -9.30859,15.96094 -9.44141,-15.96094 9.44141,-16.31641 z m 27.90625,0 9.30859,16.31641 -9.30859,15.96094 -9.44141,-15.96094 9.44141,-16.31641 z m 27.90625,0 9.30859,16.31641 -9.30859,15.96094 -9.44141,-15.96094 9.44141,-16.31641 z m 27.90625,0 9.30859,16.31641 -9.30859,15.96094 -9.44141,-15.96094 9.44141,-16.31641 z m 27.9082,0 9.30664,16.31641 -8.25586,14.16016 c -0.60194,0.0605 -1.35021,0.12975 -2.00195,0.19336 l -8.49219,-14.35352 9.44336,-16.31641 z m -153.95508,21.08008 9.3086,16.31641 -3.38868,5.80859 c -3.00856,0.21664 -5.4729,0.36474 -7.30468,0.43164 -1.58098,0.0577 -2.57641,0.0423 -3.19727,0.0156 -0.26308,-0.1221 -0.40327,-0.23671 -0.74805,-0.36133 -0.2076,-0.075 -0.45726,-0.136 -0.73242,-0.18359 l -3.3789,-5.71094 9.4414,-16.31641 z m 27.90625,0 9.3086,16.31641 -1.95899,3.35937 c -4.96986,0.42229 -8.81617,0.74446 -14.09375,1.19922 l -2.69726,-4.55859 9.4414,-16.31641 z m 27.90625,0 9.3086,16.31641 -0.51368,0.88086 c -4.92364,0.4125 -9.76387,0.82204 -13.79882,1.15429 -0.60767,0.05 -2.3423,0.20042 -3.07813,0.26172 l -1.35937,-2.29687 9.4414,-16.31641 z m 27.90625,0 8.48047,14.86719 c -5.38537,0.45775 -15.83231,1.34526 -17.88086,1.51953 l -0.041,-0.0703 9.4414,-16.31641 z m 27.90821,0 7.18945,12.60547 c -6.57237,0.55831 -9.4685,0.80299 -15.23438,1.29297 l 8.04493,-13.89844 z m 27.90624,0 5.87305,10.29492 c -3.51665,0.31936 -7.87149,0.69812 -12.46484,1.09375 l 6.59179,-11.38867 z m 27.81836,0.15235 c -0.0116,0.0537 -0.0276,0.12433 -0.0391,0.17773 -0.59741,2.77588 -1.11352,5.156 -1.48633,6.77734 -0.10233,0.44501 -0.15602,0.64308 -0.23242,0.95508 -0.80936,0.14813 -1.72747,0.30631 -3.10547,0.49414 l 4.86328,-8.40429 z m -153.86718,20.92578 0.24023,0.41992 c -0.18621,0.0157 -0.32446,0.0257 -0.50781,0.041 l 0.26758,-0.46093 z"
           id="path4247" />
        <circle
           style="fill:#ffffff;fill-opacity:1;stroke:none;stroke-opacity:1"
           id="path5923"
           cx="-830.77814"
           cy="554.75427"
           r="24" />
        <circle
           style="fill:#ffffff;fill-opacity:1;stroke:none;stroke-opacity:1"
           id="path5923-2"
           cx="-689.02637"
           cy="554.65405"
           r="24" />
      </g>
    </g>
  </g>
</svg>
