<?xml version="1.0" encoding="UTF-8" standalone="no"?>
<!-- Created with Inkscape (http://www.inkscape.org/) -->

<svg
   xmlns:dc="http://purl.org/dc/elements/1.1/"
   xmlns:cc="http://creativecommons.org/ns#"
   xmlns:rdf="http://www.w3.org/1999/02/22-rdf-syntax-ns#"
   xmlns:svg="http://www.w3.org/2000/svg"
   xmlns="http://www.w3.org/2000/svg"
   xmlns:sodipodi="http://sodipodi.sourceforge.net/DTD/sodipodi-0.dtd"
   xmlns:inkscape="http://www.inkscape.org/namespaces/inkscape"
   width="256"
   height="256"
   viewBox="0 0 256 256"
   id="svg2"
   version="1.1"
   inkscape:version="0.91 r13725"
   sodipodi:docname="drizzle.svg">
  <defs
     id="defs4" />
  <sodipodi:namedview
     id="base"
     pagecolor="#ffffff"
     bordercolor="#666666"
     borderopacity="1.0"
     inkscape:pageopacity="0.0"
     inkscape:pageshadow="2"
     inkscape:zoom="0.35355339"
     inkscape:cx="929.21999"
     inkscape:cy="152.43176"
     inkscape:document-units="px"
     inkscape:current-layer="layer1"
     showgrid="false"
     inkscape:window-width="1276"
     inkscape:window-height="1400"
     inkscape:window-x="1280"
     inkscape:window-y="38"
     inkscape:window-maximized="0"
     units="px" />
  <metadata
     id="metadata7">
    <rdf:RDF>
      <cc:Work
         rdf:about="">
        <dc:format>image/svg+xml</dc:format>
        <dc:type
           rdf:resource="http://purl.org/dc/dcmitype/StillImage" />
        <dc:title></dc:title>
      </cc:Work>
    </rdf:RDF>
  </metadata>
  <g
     inkscape:label="Layer 1"
     inkscape:groupmode="layer"
     id="layer1"
     transform="translate(0,-796.36216)">
    <path
       style="fill:#000000"
       d=""
       id="path45631"
       inkscape:connector-curvature="0" />
    <g
       id="g45782"
       transform="matrix(2,0,0,2,-241.47372,845.79158)">
      <path
         id="path45780"
         d="m 149.39185,74.456549 c -3.29904,-3.645396 -2.12055,-6.466568 5.54567,-13.275666 3.96036,-3.517576 6.88499,-5.57033 6.49918,-4.561675 -0.38581,1.008654 -0.99735,5.017395 -1.35897,8.908313 -0.71858,7.731645 -2.5993,10.757769 -6.68588,10.757769 -1.28976,0 -3.08976,-0.822933 -4,-1.828741 z"
         style="fill:#39e5ff;fill-opacity:1"
         inkscape:connector-curvature="0" />
      <path
         id="path45778"
         d="m 180.13656,75.519977 c -1.98126,-1.322926 -3.17882,-4.694617 -2.39203,-6.734687 0.42424,-1.1 3.83577,-4.695806 7.58118,-7.990679 3.97846,-3.499886 6.489,-5.162999 6.03818,-4 -0.42442,1.094873 -1.03537,5.099418 -1.35766,8.898988 -0.4063,4.789891 -1.15074,7.47306 -2.42768,8.75 -1.87914,1.879138 -5.46336,2.397544 -7.44199,1.076378 z"
         style="fill:#39e5ff;fill-opacity:1"
         inkscape:connector-curvature="0" />
      <path
         id="path45776"
         d="m 210.13656,75.519977 c -2.20297,-1.470968 -3.50672,-5.166206 -2.4918,-7.062596 1.39664,-2.609652 14.62324,-14.026324 13.82626,-11.93427 -0.36413,0.955801 -0.93046,4.105801 -1.25853,7 -0.89231,7.871812 -1.32811,9.471806 -3.04856,11.192252 -1.64854,1.648541 -5.16114,2.050725 -7.02737,0.804614 z"
         style="fill:#39e5ff;fill-opacity:1"
         inkscape:connector-curvature="0" />
      <path
         id="path45774"
         d="m 132.73686,43.28529 c 0,-1.703704 0.66667,-2 4.5,-2 3.83333,0 4.5,0.296296 4.5,2 0,1.703704 -0.66667,2 -4.5,2 -3.83333,0 -4.5,-0.296296 -4.5,-2 z"
         style="fill:#b5d6dd;fill-opacity:1"
         inkscape:connector-curvature="0" />
      <path
         id="path45772"
         d="m 145.73686,43.28529 c 0,-1.703704 0.66667,-2 4.5,-2 3.83333,0 4.5,0.296296 4.5,2 0,1.703704 -0.66667,2 -4.5,2 -3.83333,0 -4.5,-0.296296 -4.5,-2 z"
         style="fill:#b5d6dd;fill-opacity:1"
         inkscape:connector-curvature="0" />
      <path
         id="path45770"
         d="m 158.73686,43.28529 c 0,-1.703704 0.66667,-2 4.5,-2 3.83333,0 4.5,0.296296 4.5,2 0,1.703704 -0.66667,2 -4.5,2 -3.83333,0 -4.5,-0.296296 -4.5,-2 z"
         style="fill:#b5d6dd;fill-opacity:1"
         inkscape:connector-curvature="0" />
      <path
         id="path45768"
         d="m 171.73686,43.28529 c 0,-1.703704 0.66667,-2 4.5,-2 3.83333,0 4.5,0.296296 4.5,2 0,1.703704 -0.66667,2 -4.5,2 -3.83333,0 -4.5,-0.296296 -4.5,-2 z"
         style="fill:#b5d6dd;fill-opacity:1"
         inkscape:connector-curvature="0" />
      <path
         id="path45766"
         d="m 185.73686,43.28529 c 0,-1.703704 0.66667,-2 4.5,-2 3.83333,0 4.5,0.296296 4.5,2 0,1.703704 -0.66667,2 -4.5,2 -3.83333,0 -4.5,-0.296296 -4.5,-2 z"
         style="fill:#b5d6dd;fill-opacity:1"
         inkscape:connector-curvature="0" />
      <path
         id="path45764"
         d="m 198.73686,43.28529 c 0,-1.703704 0.66667,-2 4.5,-2 3.83333,0 4.5,0.296296 4.5,2 0,1.703704 -0.66667,2 -4.5,2 -3.83333,0 -4.5,-0.296296 -4.5,-2 z"
         style="fill:#b5d6dd;fill-opacity:1"
         inkscape:connector-curvature="0" />
      <path
         id="path45762"
         d="m 211.73686,43.28529 c 0,-1.703704 0.66667,-2 4.5,-2 3.83333,0 4.5,0.296296 4.5,2 0,1.703704 -0.66667,2 -4.5,2 -3.83333,0 -4.5,-0.296296 -4.5,-2 z"
         style="fill:#b5d6dd;fill-opacity:1"
         inkscape:connector-curvature="0" />
      <path
         id="path45760"
         d="m 224.73686,43.28529 c 0,-1.703704 0.66667,-2 4.5,-2 3.83333,0 4.5,0.296296 4.5,2 0,1.703704 -0.66667,2 -4.5,2 -3.83333,0 -4.5,-0.296296 -4.5,-2 z"
         style="fill:#b5d6dd;fill-opacity:1"
         inkscape:connector-curvature="0" />
      <path
         id="path45758"
         d="m 237.73686,43.28529 c 0,-1.466667 0.66667,-2 2.5,-2 1.83333,0 2.5,0.533333 2.5,2 0,1.466667 -0.66667,2 -2.5,2 -1.83333,0 -2.5,-0.533333 -2.5,-2 z"
         style="fill:#b5d6dd;fill-opacity:1"
         inkscape:connector-curvature="0" />
      <path
         id="path45756"
         d="m 122.73686,30.28529 c 0,-1.703704 0.66667,-2 4.5,-2 3.83333,0 4.5,0.296296 4.5,2 0,1.703704 -0.66667,2 -4.5,2 -3.83333,0 -4.5,-0.296296 -4.5,-2 z"
         style="fill:#b5d6dd;fill-opacity:1"
         inkscape:connector-curvature="0" />
      <path
         id="path45754"
         d="m 135.73686,30.28529 c 0,-1.703704 0.66667,-2 4.5,-2 3.83333,0 4.5,0.296296 4.5,2 0,1.703704 -0.66667,2 -4.5,2 -3.83333,0 -4.5,-0.296296 -4.5,-2 z"
         style="fill:#b5d6dd;fill-opacity:1"
         inkscape:connector-curvature="0" />
      <path
         id="path45752"
         d="m 148.73686,30.28529 c 0,-1.703704 0.66667,-2 4.5,-2 3.83333,0 4.5,0.296296 4.5,2 0,1.703704 -0.66667,2 -4.5,2 -3.83333,0 -4.5,-0.296296 -4.5,-2 z"
         style="fill:#b5d6dd;fill-opacity:1"
         inkscape:connector-curvature="0" />
      <path
         id="path45750"
         d="m 161.73686,30.28529 c 0,-1.703704 0.66667,-2 4.5,-2 3.83333,0 4.5,0.296296 4.5,2 0,1.703704 -0.66667,2 -4.5,2 -3.83333,0 -4.5,-0.296296 -4.5,-2 z"
         style="fill:#b5d6dd;fill-opacity:1"
         inkscape:connector-curvature="0" />
      <path
         id="path45748"
         d="m 175.73686,30.28529 c 0,-1.703704 0.66667,-2 4.5,-2 3.83333,0 4.5,0.296296 4.5,2 0,1.703704 -0.66667,2 -4.5,2 -3.83333,0 -4.5,-0.296296 -4.5,-2 z"
         style="fill:#b5d6dd;fill-opacity:1"
         inkscape:connector-curvature="0" />
      <path
         id="path45746"
         d="m 188.73686,30.28529 c 0,-1.703704 0.66667,-2 4.5,-2 3.83333,0 4.5,0.296296 4.5,2 0,1.703704 -0.66667,2 -4.5,2 -3.83333,0 -4.5,-0.296296 -4.5,-2 z"
         style="fill:#b5d6dd;fill-opacity:1"
         inkscape:connector-curvature="0" />
      <path
         id="path45744"
         d="m 201.73686,30.28529 c 0,-1.703704 0.66667,-2 4.5,-2 3.83333,0 4.5,0.296296 4.5,2 0,1.703704 -0.66667,2 -4.5,2 -3.83333,0 -4.5,-0.296296 -4.5,-2 z"
         style="fill:#b5d6dd;fill-opacity:1"
         inkscape:connector-curvature="0" />
      <path
         id="path45742"
         d="m 214.73686,30.28529 c 0,-1.703704 0.66667,-2 4.5,-2 3.83333,0 4.5,0.296296 4.5,2 0,1.703704 -0.66667,2 -4.5,2 -3.83333,0 -4.5,-0.296296 -4.5,-2 z"
         style="fill:#b5d6dd;fill-opacity:1"
         inkscape:connector-curvature="0" />
      <path
         id="path45740"
         d="m 227.73686,30.28529 c 0,-1.466667 0.66667,-2 2.5,-2 1.83333,0 2.5,0.533333 2.5,2 0,1.466667 -0.66667,2 -2.5,2 -1.83333,0 -2.5,-0.533333 -2.5,-2 z"
         style="fill:#b5d6dd;fill-opacity:1"
         inkscape:connector-curvature="0" />
      <path
         id="path45738"
         d="m 136.73686,17.28529 c 0,-1.7037 0.66667,-2 4.5,-2 3.83333,0 4.5,0.2963 4.5,2 0,1.7037 -0.66667,2 -4.5,2 -3.83333,0 -4.5,-0.2963 -4.5,-2 z"
         style="fill:#b5d6dd;fill-opacity:1"
         inkscape:connector-curvature="0" />
      <path
         id="path45736"
         d="m 149.73686,17.28529 c 0,-1.7037 0.66667,-2 4.5,-2 3.83333,0 4.5,0.2963 4.5,2 0,1.7037 -0.66667,2 -4.5,2 -3.83333,0 -4.5,-0.2963 -4.5,-2 z"
         style="fill:#b5d6dd;fill-opacity:1"
         inkscape:connector-curvature="0" />
      <path
         id="path45734"
         d="m 162.73686,17.28529 c 0,-1.7037 0.66667,-2 4.5,-2 3.83333,0 4.5,0.2963 4.5,2 0,1.7037 -0.66667,2 -4.5,2 -3.83333,0 -4.5,-0.2963 -4.5,-2 z"
         style="fill:#b5d6dd;fill-opacity:1"
         inkscape:connector-curvature="0" />
      <path
         id="path45732"
         d="m 175.73686,17.28529 c 0,-1.7037 0.66667,-2 4.5,-2 3.83333,0 4.5,0.2963 4.5,2 0,1.7037 -0.66667,2 -4.5,2 -3.83333,0 -4.5,-0.2963 -4.5,-2 z"
         style="fill:#b5d6dd;fill-opacity:1"
         inkscape:connector-curvature="0" />
      <path
         id="path45730"
         d="m 189.73686,17.28529 c 0,-1.7037 0.66667,-2 4.5,-2 3.83333,0 4.5,0.2963 4.5,2 0,1.7037 -0.66667,2 -4.5,2 -3.83333,0 -4.5,-0.2963 -4.5,-2 z"
         style="fill:#b5d6dd;fill-opacity:1"
         inkscape:connector-curvature="0" />
      <path
         id="path45728"
         d="m 202.73686,17.28529 c 0,-1.7037 0.66667,-2 4.5,-2 3.83333,0 4.5,0.2963 4.5,2 0,1.7037 -0.66667,2 -4.5,2 -3.83333,0 -4.5,-0.2963 -4.5,-2 z"
         style="fill:#b5d6dd;fill-opacity:1"
         inkscape:connector-curvature="0" />
      <path
         id="path45726"
         d="m 215.73686,17.28529 c 0,-1.7037 0.66667,-2 4.5,-2 3.83333,0 4.5,0.2963 4.5,2 0,1.7037 -0.66667,2 -4.5,2 -3.83333,0 -4.5,-0.2963 -4.5,-2 z"
         style="fill:#b5d6dd;fill-opacity:1"
         inkscape:connector-curvature="0" />
      <path
         id="path45724"
         d="m 228.73686,17.28529 c 0,-1.7037 0.66667,-2 4.5,-2 3.83333,0 4.5,0.2963 4.5,2 0,1.7037 -0.66667,2 -4.5,2 -3.83333,0 -4.5,-0.2963 -4.5,-2 z"
         style="fill:#b5d6dd;fill-opacity:1"
         inkscape:connector-curvature="0" />
      <path
         id="path45722"
         d="m 241.73686,17.28529 c 0,-1.46667 0.66667,-2 2.5,-2 1.83333,0 2.5,0.53333 2.5,2 0,1.46667 -0.66667,2 -2.5,2 -1.83333,0 -2.5,-0.53333 -2.5,-2 z"
         style="fill:#b5d6dd;fill-opacity:1"
         inkscape:connector-curvature="0" />
      <path
         id="path45720"
         d="m 125.73686,4.2852895 c 0,-1.7037 0.66667,-2 4.5,-2 3.83333,0 4.5,0.2963 4.5,2 0,1.7037 -0.66667,2 -4.5,2 -3.83333,0 -4.5,-0.2963 -4.5,-2 z"
         style="fill:#b5d6dd;fill-opacity:1"
         inkscape:connector-curvature="0" />
      <path
         id="path45718"
         d="m 138.73686,4.2852895 c 0,-1.7037 0.66667,-2 4.5,-2 3.83333,0 4.5,0.2963 4.5,2 0,1.7037 -0.66667,2 -4.5,2 -3.83333,0 -4.5,-0.2963 -4.5,-2 z"
         style="fill:#b5d6dd;fill-opacity:1"
         inkscape:connector-curvature="0" />
      <path
         id="path45716"
         d="m 151.73686,4.2852895 c 0,-1.7037 0.66667,-2 4.5,-2 3.83333,0 4.5,0.2963 4.5,2 0,1.7037 -0.66667,2 -4.5,2 -3.83333,0 -4.5,-0.2963 -4.5,-2 z"
         style="fill:#b5d6dd;fill-opacity:1"
         inkscape:connector-curvature="0" />
      <path
         id="path45714"
         d="m 164.73686,4.2852895 c 0,-1.7037 0.66667,-2 4.5,-2 3.83333,0 4.5,0.2963 4.5,2 0,1.7037 -0.66667,2 -4.5,2 -3.83333,0 -4.5,-0.2963 -4.5,-2 z"
         style="fill:#b5d6dd;fill-opacity:1"
         inkscape:connector-curvature="0" />
      <path
         id="path45712"
         d="m 178.73686,4.2852895 c 0,-1.7037 0.66667,-2 4.5,-2 3.83333,0 4.5,0.2963 4.5,2 0,1.7037 -0.66667,2 -4.5,2 -3.83333,0 -4.5,-0.2963 -4.5,-2 z"
         style="fill:#b5d6dd;fill-opacity:1"
         inkscape:connector-curvature="0" />
      <path
         id="path45710"
         d="m 191.73686,4.2852895 c 0,-1.7037 0.66667,-2 4.5,-2 3.83333,0 4.5,0.2963 4.5,2 0,1.7037 -0.66667,2 -4.5,2 -3.83333,0 -4.5,-0.2963 -4.5,-2 z"
         style="fill:#b5d6dd;fill-opacity:1"
         inkscape:connector-curvature="0" />
      <path
         id="path45708"
         d="m 204.73686,4.2852895 c 0,-1.7037 0.66667,-2 4.5,-2 3.83333,0 4.5,0.2963 4.5,2 0,1.7037 -0.66667,2 -4.5,2 -3.83333,0 -4.5,-0.2963 -4.5,-2 z"
         style="fill:#b5d6dd;fill-opacity:1"
         inkscape:connector-curvature="0" />
      <path
         id="path45706"
         d="m 217.73686,4.2852895 c 0,-1.7037 0.66667,-2 4.5,-2 3.83333,0 4.5,0.2963 4.5,2 0,1.7037 -0.66667,2 -4.5,2 -3.83333,0 -4.5,-0.2963 -4.5,-2 z"
         style="fill:#b5d6dd;fill-opacity:1"
         inkscape:connector-curvature="0" />
      <path
         id="path45702"
         d="m 230.73686,4.2852895 c 0,-1.46667 0.66667,-2 2.5,-2 1.83333,0 2.5,0.53333 2.5,2 0,1.46667 -0.66667,2 -2.5,2 -1.83333,0 -2.5,-0.53333 -2.5,-2 z"
         style="fill:#b5d6dd;fill-opacity:1"
         inkscape:connector-curvature="0" />
    </g>
  </g>
</svg>
