<?xml version="1.0" encoding="UTF-8" standalone="no"?>
<!-- Created with Inkscape (http://www.inkscape.org/) -->

<svg
   xmlns:dc="http://purl.org/dc/elements/1.1/"
   xmlns:cc="http://creativecommons.org/ns#"
   xmlns:rdf="http://www.w3.org/1999/02/22-rdf-syntax-ns#"
   xmlns:svg="http://www.w3.org/2000/svg"
   xmlns="http://www.w3.org/2000/svg"
   xmlns:sodipodi="http://sodipodi.sourceforge.net/DTD/sodipodi-0.dtd"
   xmlns:inkscape="http://www.inkscape.org/namespaces/inkscape"
   width="256"
   height="256"
   viewBox="0 0 256 256"
   id="svg2"
   version="1.1"
   inkscape:version="0.91 r13725"
   sodipodi:docname="few-showers.svg">
  <defs
     id="defs4" />
  <sodipodi:namedview
     id="base"
     pagecolor="#ffffff"
     bordercolor="#666666"
     borderopacity="1.0"
     inkscape:pageopacity="0.0"
     inkscape:pageshadow="2"
     inkscape:zoom="0.1767767"
     inkscape:cx="919.2677"
     inkscape:cy="252.4817"
     inkscape:document-units="px"
     inkscape:current-layer="layer1"
     showgrid="false"
     inkscape:window-width="1276"
     inkscape:window-height="1400"
     inkscape:window-x="1280"
     inkscape:window-y="38"
     inkscape:window-maximized="0"
     units="px" />
  <metadata
     id="metadata7">
    <rdf:RDF>
      <cc:Work
         rdf:about="">
        <dc:format>image/svg+xml</dc:format>
        <dc:type
           rdf:resource="http://purl.org/dc/dcmitype/StillImage" />
        <dc:title></dc:title>
      </cc:Work>
    </rdf:RDF>
  </metadata>
  <g
     inkscape:label="Layer 1"
     inkscape:groupmode="layer"
     id="layer1"
     transform="translate(0,-796.36216)">
    <path
       style="fill:#000000"
       d=""
       id="path45631"
       inkscape:connector-curvature="0" />
    <g
       id="g45848"
       transform="matrix(2,0,0,2,-458.77689,19.727017)">
      <path
         id="path45846"
         d="m 250.98298,505.1998 c -2.9605,-3.27131 -2.00256,-6.01643 4.09501,-11.73494 5.97028,-5.59913 7.95312,-6.67806 6.77463,-3.68632 -0.37915,0.9625 -0.93007,4.225 -1.22427,7.25 -0.29421,3.025 -1.16752,6.5125 -1.94069,7.75 -1.70742,2.7328 -5.42864,2.93626 -7.70468,0.42126 z"
         style="fill:#39e5ff;fill-opacity:1"
         inkscape:connector-curvature="0" />
      <path
         id="path45844"
         d="m 277.32544,505.52546 c -2.71473,-3.27104 -1.46331,-6.53452 4.62755,-12.06784 6.15128,-5.58821 8.06531,-6.61117 6.88381,-3.67908 -0.38785,0.9625 -1.06938,4.57876 -1.51453,8.03612 -0.44514,3.45737 -1.35606,6.94487 -2.02426,7.75 -1.58122,1.90526 -6.3784,1.88167 -7.97257,-0.0392 z"
         style="fill:#39e5ff;fill-opacity:1"
         inkscape:connector-curvature="0" />
      <path
         id="path45842"
         d="m 303.76812,504.5775 c -2.26272,-3.45334 -1.23953,-5.55373 5.60593,-11.50772 l 5.99138,-5.21115 -0.58194,5.83495 c -0.32007,3.20923 -0.77917,6.81599 -1.02022,8.01503 -1.08561,5.39997 -7.1889,7.15179 -9.99516,2.86889 z"
         style="fill:#39e5ff;fill-opacity:1"
         inkscape:connector-curvature="0" />
      <path
         id="path45840"
         d="m 250.82799,481.13268 c -4.90158,-2.26936 -8.8875,-6.39185 -10.94695,-11.32202 -5.66519,-13.56204 6.32215,-29.18344 21.11493,-27.51608 5.27231,0.59427 5.79639,0.9875 4.52917,3.39831 -0.53069,1.00961 -1.2817,3.74815 -1.66892,6.08565 -0.58165,3.51125 -0.42801,4.25 0.88387,4.25 0.97715,0 1.59166,-0.86541 1.59767,-2.25 0.0172,-3.9678 4.61289,-12.29304 8.61123,-15.59959 3.7824,-3.12797 11.58566,-6.15041 15.879,-6.15041 7.97868,0 18.78254,6.71319 22.48566,13.97189 1.70331,3.33877 2.42234,3.81399 6.45913,4.269 8.05191,0.90756 14.55521,8.03332 14.55521,15.94835 0,5.30194 -3.8944,11.96374 -8.5,14.54019 -3.92033,2.1931 -4.66723,2.23756 -37.5,2.23216 -30.49362,-0.005 -33.85897,-0.17171 -37.5,-1.85745 z"
         style="fill:#dfe1d3;fill-opacity:1"
         inkscape:connector-curvature="0" />
      <path
         id="path45838"
         d="m 329.04744,450.64309 c -1.5617,-1.21013 -1.6475,-1.97341 -0.69806,-6.20998 2.52639,-11.27328 -3.30532,-22.50654 -13.75695,-26.49913 -4.55175,-1.73879 -13.68609,-1.24114 -18.04613,0.98319 -3.86508,1.97181 -10.21831,8.28019 -10.21831,10.14617 0,0.53086 -0.80485,0.9652 -1.78856,0.9652 -0.98371,0 -3.52817,0.88691 -5.65437,1.97091 l -3.86582,1.9709 -4.84461,-2.7209 c -2.66453,-1.4965 -4.84506,-3.05841 -4.84562,-3.47091 -5.6e-4,-0.4125 3.37398,-0.75 7.49898,-0.75 6.16667,0 7.85556,-0.35556 9.5,-2 2.6792,-2.6792 2.53349,-4.36897 -1.02547,-11.89198 -1.66314,-3.51559 -2.83931,-6.57658 -2.6137,-6.80219 0.22562,-0.22561 3.23149,1.41328 6.67972,3.64198 10.11699,6.53893 13.78606,5.07073 15.94689,-6.38124 0.69661,-3.69191 1.60024,-6.34221 2.00807,-5.88957 0.40783,0.45265 1.54946,2.99361 2.53695,5.64658 4.1443,11.13388 8.13359,12.32857 17.01414,5.09526 3.09343,-2.51963 5.79444,-4.41114 6.00224,-4.20334 0.2078,0.2078 -0.28068,2.56584 -1.08551,5.24009 -3.77161,12.53211 -1.13698,16.26336 10.66254,15.10066 4.42037,-0.43557 6.95382,-0.33631 6.73116,0.26372 -0.19637,0.52919 -2.71953,2.82165 -5.60703,5.09435 -4.49594,3.53868 -5.25,4.62113 -5.25,7.53635 0,3.78569 1.69059,5.51577 9.37161,9.59054 2.54561,1.35044 4.62839,2.79363 4.62839,3.20707 0,0.41345 -3.0375,0.75786 -6.75,0.76537 -3.7125,0.007 -7.65,0.23122 -8.75,0.49714 -1.1,0.26591 -2.80125,-0.1374 -3.78055,-0.89624 z"
         style="fill:#ffb713;fill-opacity:1"
         inkscape:connector-curvature="0" />
      <path
         id="path45834"
         d="m 314.66824,441.93906 c -4.59932,-6.40191 -10.91405,-10.53754 -18.47418,-12.09906 -5.038,-1.04058 -5.62046,-1.40187 -4.78294,-2.96679 0.52451,-0.98006 3.06239,-3.01772 5.63973,-4.52815 5.44924,-3.19346 12.87166,-3.6118 17.90464,-1.00915 7.58687,3.92333 12.35907,13.34309 10.7191,21.15823 -0.75496,3.59769 -1.19389,4.06798 -4.05498,4.34465 -2.85988,0.27656 -3.61493,-0.25565 -6.95137,-4.89973 z"
         style="fill:#ffe154;fill-opacity:1"
         inkscape:connector-curvature="0" />
    </g>
  </g>
</svg>
