<?xml version="1.0" encoding="UTF-8" standalone="no"?>
<!-- Created with Inkscape (http://www.inkscape.org/) -->

<svg
   xmlns:dc="http://purl.org/dc/elements/1.1/"
   xmlns:cc="http://creativecommons.org/ns#"
   xmlns:rdf="http://www.w3.org/1999/02/22-rdf-syntax-ns#"
   xmlns:svg="http://www.w3.org/2000/svg"
   xmlns="http://www.w3.org/2000/svg"
   xmlns:sodipodi="http://sodipodi.sourceforge.net/DTD/sodipodi-0.dtd"
   xmlns:inkscape="http://www.inkscape.org/namespaces/inkscape"
   width="256"
   height="256"
   viewBox="0 0 256 256"
   id="svg2"
   version="1.1"
   inkscape:version="0.91 r13725"
   sodipodi:docname="fine.svg">
  <defs
     id="defs4" />
  <sodipodi:namedview
     id="base"
     pagecolor="#ffffff"
     bordercolor="#666666"
     borderopacity="1.0"
     inkscape:pageopacity="0.0"
     inkscape:pageshadow="2"
     inkscape:zoom="0.1767767"
     inkscape:cx="919.2677"
     inkscape:cy="252.4817"
     inkscape:document-units="px"
     inkscape:current-layer="layer1"
     showgrid="false"
     inkscape:window-width="1276"
     inkscape:window-height="1400"
     inkscape:window-x="1280"
     inkscape:window-y="38"
     inkscape:window-maximized="0"
     units="px" />
  <metadata
     id="metadata7">
    <rdf:RDF>
      <cc:Work
         rdf:about="">
        <dc:format>image/svg+xml</dc:format>
        <dc:type
           rdf:resource="http://purl.org/dc/dcmitype/StillImage" />
        <dc:title></dc:title>
      </cc:Work>
    </rdf:RDF>
  </metadata>
  <g
     inkscape:label="Layer 1"
     inkscape:groupmode="layer"
     id="layer1"
     transform="translate(0,-796.36216)">
    <path
       style="fill:#000000"
       d=""
       id="path45631"
       inkscape:connector-curvature="0" />
    <g
       id="g45876"
       transform="matrix(2,0,0,2,-764,302.91281)">
      <path
         id="path45873"
         d="m 445.85547,256.64844 c -0.49015,-0.16338 -1.93569,3.48836 -3.21289,8.11718 -2.33517,8.46308 -4.53405,11.73008 -8.75977,13.00782 -2.99578,0.90585 -6.67101,-0.73252 -14.63281,-6.52344 -3.81162,-2.77234 -7.10764,-4.86307 -7.32422,-4.64648 -0.21659,0.21659 0.93627,3.51311 2.5625,7.32617 3.85147,9.03062 3.97156,14.53185 0.37695,17.35937 -2.2807,1.794 -4.02806,2.07227 -13,2.07227 -5.70083,0 -10.34957,0.3375 -10.33007,0.75 0.0196,0.4125 2.98507,2.55 6.58984,4.75 8.66258,5.28679 11.74317,8.9072 10.95117,12.86719 -0.81203,4.06016 -2.87321,6.12599 -10.82422,10.8496 -3.71371,2.20628 -6.75195,4.47787 -6.75195,5.04688 0,0.67777 2.89997,0.83013 8.4082,0.44141 17.73326,-1.25145 21.08146,3.42443 14.35352,20.04492 -1.3915,3.4375 -2.06104,6.25 -1.48828,6.25 0.57276,0 3.33395,-1.7457 6.13476,-3.88086 5.80227,-4.42328 10.75808,-7.11914 13.0918,-7.11914 2.73586,0 7.0615,2.74276 8.16406,5.17578 0.57948,1.27875 1.89231,5.59167 2.91797,9.58398 1.99469,7.76426 3.41665,8.72356 4.58594,3.09571 1.70001,-8.18222 4.94472,-14.86079 7.98242,-16.43164 4.24787,-2.19666 7.64848,-1.13315 16.35742,5.11523 4.12051,2.95634 7.49219,4.97484 7.49219,4.48633 0,-0.4885 -1.3688,-4.59946 -3.04102,-9.13477 -5.301,-14.37706 -2.74775,-17.55305 13.75196,-17.11718 5.65913,0.1495 10.28811,-0.0755 10.28711,-0.5 -10e-4,-0.4245 -2.9713,-2.57344 -6.59961,-4.77344 -10.30072,-6.24576 -13.72544,-11.86284 -10.11719,-16.59766 1.37334,-1.80213 14.64849,-10.90234 15.9043,-10.90234 0.44764,0 0.81445,-0.45 0.81445,-1 0,-0.59969 -3.98449,-1 -9.95312,-1 -11.16885,0 -14.39426,-1.00813 -16.05665,-5.02149 -1.25235,-3.02345 -0.71542,-5.75901 2.89258,-14.76562 1.16488,-2.90786 2.11719,-5.74663 2.11719,-6.3086 0,-0.56195 -2.8125,1.05607 -6.25,3.59376 -3.4375,2.53768 -7.71568,5.27025 -9.50781,6.07421 -6.82179,3.06026 -11.45512,-0.78388 -14.76172,-12.24804 -1.22808,-4.25782 -2.63484,-7.87372 -3.125,-8.03711 z M 445.5,282.88086 c 7.1091,-0.0156 9.29819,0.38964 13.37695,2.47266 6.66641,3.40453 12.28664,10.04212 14.26563,16.8496 3.88206,13.35384 -1.71855,27.0722 -13.71875,33.60352 -5.55465,3.02322 -15.86831,4.34416 -20.92383,2.67969 -14.09022,-4.63905 -21.79747,-15.7702 -20.77539,-30.00781 0.57011,-7.94162 3.14036,-13.40799 8.64258,-18.37891 6.76069,-6.10788 9.65281,-7.19795 19.13281,-7.21875 z"
         style="fill:#ffb713;fill-opacity:1"
         inkscape:connector-curvature="0" />
      <path
         id="path45867"
         d="m 438.13364,335.33162 c -6.64911,-1.99189 -13.88169,-9.09653 -16.57775,-16.28451 -0.58074,-1.5483 -1.04601,-5.3733 -1.03393,-8.5 0.0546,-14.13941 11.24466,-25.21438 25.42438,-25.16294 13.59233,0.0493 24.18811,9.97493 25.35776,23.75392 1.44555,17.02923 -16.48838,31.19103 -33.17046,26.19353 z"
         style="fill:#ffe154;fill-opacity:1"
         inkscape:connector-curvature="0" />
    </g>
  </g>
</svg>
