<?xml version="1.0" encoding="UTF-8" standalone="no"?>
<!-- Created with Inkscape (http://www.inkscape.org/) -->

<svg
   xmlns:dc="http://purl.org/dc/elements/1.1/"
   xmlns:cc="http://creativecommons.org/ns#"
   xmlns:rdf="http://www.w3.org/1999/02/22-rdf-syntax-ns#"
   xmlns:svg="http://www.w3.org/2000/svg"
   xmlns="http://www.w3.org/2000/svg"
   xmlns:sodipodi="http://sodipodi.sourceforge.net/DTD/sodipodi-0.dtd"
   xmlns:inkscape="http://www.inkscape.org/namespaces/inkscape"
   width="256"
   height="256"
   viewBox="0 0 256 256"
   id="svg2"
   version="1.1"
   inkscape:version="0.91 r13725"
   sodipodi:docname="fog.svg">
  <defs
     id="defs4" />
  <sodipodi:namedview
     id="base"
     pagecolor="#ffffff"
     bordercolor="#666666"
     borderopacity="1.0"
     inkscape:pageopacity="0.0"
     inkscape:pageshadow="2"
     inkscape:zoom="0.1767767"
     inkscape:cx="919.2677"
     inkscape:cy="252.4817"
     inkscape:document-units="px"
     inkscape:current-layer="layer1"
     showgrid="false"
     inkscape:window-width="1276"
     inkscape:window-height="1400"
     inkscape:window-x="1280"
     inkscape:window-y="38"
     inkscape:window-maximized="0"
     units="px" />
  <metadata
     id="metadata7">
    <rdf:RDF>
      <cc:Work
         rdf:about="">
        <dc:format>image/svg+xml</dc:format>
        <dc:type
           rdf:resource="http://purl.org/dc/dcmitype/StillImage" />
        <dc:title></dc:title>
      </cc:Work>
    </rdf:RDF>
  </metadata>
  <g
     inkscape:label="Layer 1"
     inkscape:groupmode="layer"
     id="layer1"
     transform="translate(0,-796.36216)">
    <path
       style="fill:#000000"
       d=""
       id="path45631"
       inkscape:connector-curvature="0" />
    <path
       style="fill:#b5d6dd;fill-opacity:1"
       d="m 23.99995,1002.3622 c 0,-3.40744 1.3334,-4.00004 9,-4.00004 7.6667,0 9,0.5926 9,4.00004 0,3.4074 -1.3333,4 -9,4 -7.6666,0 -9,-0.5926 -9,-4 z m 26.0001,0 c 0,-3.40744 1.3333,-4.00004 9,-4.00004 7.6666,0 9,0.5926 9,4.00004 0,3.4074 -1.3334,4 -9,4 -7.6667,0 -9,-0.5926 -9,-4 z m 26,0 c 0,-3.40744 1.3333,-4.00004 9,-4.00004 7.6666,0 9,0.5926 9,4.00004 0,3.4074 -1.3334,4 -9,4 -7.6667,0 -9,-0.5926 -9,-4 z m 26,0 c 0,-3.40744 1.3333,-4.00004 9,-4.00004 7.6666,0 9,0.5926 9,4.00004 0,3.4074 -1.3334,4 -9,4 -7.6667,0 -9,-0.5926 -9,-4 z m 28,0 c 0,-3.40744 1.3333,-4.00004 9,-4.00004 7.6666,0 9,0.5926 9,4.00004 0,3.4074 -1.3334,4 -9,4 -7.6667,0 -9,-0.5926 -9,-4 z m 26,0 c 0,-3.40744 1.3333,-4.00004 9,-4.00004 7.6666,0 9,0.5926 9,4.00004 0,3.4074 -1.3334,4 -9,4 -7.6667,0 -9,-0.5926 -9,-4 z m 26,0 c 0,-3.40744 1.3333,-4.00004 9,-4.00004 7.6666,0 9,0.5926 9,4.00004 0,3.4074 -1.3334,4 -9,4 -7.6667,0 -9,-0.5926 -9,-4 z m 26,0 c 0,-3.40744 1.3333,-4.00004 9,-4.00004 7.6666,0 9,0.5926 9,4.00004 0,3.4074 -1.3334,4 -9,4 -7.6667,0 -9,-0.5926 -9,-4 z m 26,0 c 0,-2.93338 1.3333,-4.00004 5,-4.00004 3.6666,0 5,1.06666 5,4.00004 0,2.9333 -1.3334,4 -5,4 -3.6667,0 -5,-1.0667 -5,-4 z M 3.99995,976.36216 c 0,-3.4074 1.3334,-4 9,-4 7.6667,0 9,0.5926 9,4 0,3.4074 -1.3333,4 -9,4 -7.6666,0 -9,-0.5926 -9,-4 z m 26,0 c 0,-3.4074 1.3334,-4 9,-4 7.6667,0 9.0001,0.5926 9.0001,4 0,3.4074 -1.3334,4 -9.0001,4 -7.6666,0 -9,-0.5926 -9,-4 z m 26.0001,0 c 0,-3.4074 1.3333,-4 9,-4 7.6666,0 9,0.5926 9,4 0,3.4074 -1.3334,4 -9,4 -7.6667,0 -9,-0.5926 -9,-4 z m 26,0 c 0,-3.4074 1.3333,-4 9,-4 7.6666,0 9,0.5926 9,4 0,3.4074 -1.3334,4 -9,4 -7.6667,0 -9,-0.5926 -9,-4 z m 28,0 c 0,-3.4074 1.3333,-4 9,-4 7.6666,0 9,0.5926 9,4 0,3.4074 -1.3334,4 -9,4 -7.6667,0 -9,-0.5926 -9,-4 z m 26,0 c 0,-3.4074 1.3333,-4 9,-4 7.6666,0 9,0.5926 9,4 0,3.4074 -1.3334,4 -9,4 -7.6667,0 -9,-0.5926 -9,-4 z m 26,0 c 0,-3.4074 1.3333,-4 9,-4 7.6666,0 9,0.5926 9,4 0,3.4074 -1.3334,4 -9,4 -7.6667,0 -9,-0.5926 -9,-4 z m 26,0 c 0,-3.4074 1.3333,-4 9,-4 7.6666,0 9,0.5926 9,4 0,3.4074 -1.3334,4 -9,4 -7.6667,0 -9,-0.5926 -9,-4 z m 26,0 c 0,-2.93334 1.3333,-4 5,-4 3.6666,0 5,1.06666 5,4 0,2.93334 -1.3334,4 -5,4 -3.6667,0 -5,-1.06666 -5,-4 z m -182.0001,-26 c 0,-3.4074 1.3334,-4 9,-4 7.6667,0 9.0001,0.5926 9.0001,4 0,3.4074 -1.3334,4 -9.0001,4 -7.6666,0 -9,-0.5926 -9,-4 z m 26.0001,0 c 0,-3.4074 1.3333,-4 9,-4 7.6666,0 9,0.5926 9,4 0,3.4074 -1.3334,4 -9,4 -7.6667,0 -9,-0.5926 -9,-4 z m 26,0 c 0,-3.4074 1.3333,-4 9,-4 7.6666,0 9,0.5926 9,4 0,3.4074 -1.3334,4 -9,4 -7.6667,0 -9,-0.5926 -9,-4 z m 26,0 c 0,-3.4074 1.3333,-4 9,-4 7.6666,0 9,0.5926 9,4 0,3.4074 -1.3334,4 -9,4 -7.6667,0 -9,-0.5926 -9,-4 z m 28,0 c 0,-3.4074 1.3333,-4 9,-4 7.6666,0 9,0.5926 9,4 0,3.4074 -1.3334,4 -9,4 -7.6667,0 -9,-0.5926 -9,-4 z m 26,0 c 0,-3.4074 1.3333,-4 9,-4 7.6666,0 9,0.5926 9,4 0,3.4074 -1.3334,4 -9,4 -7.6667,0 -9,-0.5926 -9,-4 z m 26,0 c 0,-3.4074 1.3333,-4 9,-4 7.6666,0 9,0.5926 9,4 0,3.4074 -1.3334,4 -9,4 -7.6667,0 -9,-0.5926 -9,-4 z m 26,0 c 0,-3.4074 1.3333,-4 9,-4 7.6666,0 9,0.5926 9,4 0,3.4074 -1.3334,4 -9,4 -7.6667,0 -9,-0.5926 -9,-4 z m 26,0 c 0,-2.93334 1.3333,-4 5,-4 3.6666,0 5,1.06666 5,4 0,2.93334 -1.3334,4 -5,4 -3.6667,0 -5,-1.06666 -5,-4 z m -228.0001,-26 c 0,-3.4074 1.3334,-4 9,-4 7.6667,0 9,0.5926 9,4 0,3.4074 -1.3333,4 -9,4 -7.6666,0 -9,-0.5926 -9,-4 z m 26,0 c 0,-3.4074 1.3334,-4 9.0001,-4 7.6666,0 9,0.5926 9,4 0,3.4074 -1.3334,4 -9,4 -7.6667,0 -9.0001,-0.5926 -9.0001,-4 z m 26.0001,0 c 0,-3.4074 1.3333,-4 9,-4 7.6666,0 9,0.5926 9,4 0,3.4074 -1.3334,4 -9,4 -7.6667,0 -9,-0.5926 -9,-4 z m 26,0 c 0,-3.4074 1.3333,-4 9,-4 7.6666,0 9,0.5926 9,4 0,3.4074 -1.3334,4 -9,4 -7.6667,0 -9,-0.5926 -9,-4 z m 28,0 c 0,-3.4074 1.3333,-4 9,-4 7.6666,0 9,0.5926 9,4 0,3.4074 -1.3334,4 -9,4 -7.6667,0 -9,-0.5926 -9,-4 z m 26,0 c 0,-3.4074 1.3333,-4 9,-4 7.6666,0 9,0.5926 9,4 0,3.4074 -1.3334,4 -9,4 -7.6667,0 -9,-0.5926 -9,-4 z m 26,0 c 0,-3.4074 1.3333,-4 9,-4 7.6666,0 9,0.5926 9,4 0,3.4074 -1.3334,4 -9,4 -7.6667,0 -9,-0.5926 -9,-4 z m 26,0 c 0,-3.4074 1.3333,-4 9,-4 7.6666,0 9,0.5926 9,4 0,3.4074 -1.3334,4 -9,4 -7.6667,0 -9,-0.5926 -9,-4 z m 26,0 c 0,-2.93334 1.3333,-4 5,-4 3.6666,0 5,1.06666 5,4 0,2.93334 -1.3334,4 -5,4 -3.6667,0 -5,-1.06666 -5,-4 z m -220.0001,-26 c 0,-3.4074 1.3334,-4 9,-4 7.6667,0 9,0.5926 9,4 0,3.4074 -1.3333,4 -9,4 -7.6666,0 -9,-0.5926 -9,-4 z m 26,0 c 0,-3.4074 1.3334,-4 9,-4 7.6667,0 9.0001,0.5926 9.0001,4 0,3.4074 -1.3334,4 -9.0001,4 -7.6666,0 -9,-0.5926 -9,-4 z m 26.0001,0 c 0,-3.4074 1.3333,-4 9,-4 7.6666,0 9,0.5926 9,4 0,3.4074 -1.3334,4 -9,4 -7.6667,0 -9,-0.5926 -9,-4 z m 26,0 c 0,-3.4074 1.3333,-4 9,-4 7.6666,0 9,0.5926 9,4 0,3.4074 -1.3334,4 -9,4 -7.6667,0 -9,-0.5926 -9,-4 z m 28,0 c 0,-3.4074 1.3333,-4 9,-4 7.6666,0 9,0.5926 9,4 0,3.4074 -1.3334,4 -9,4 -7.6667,0 -9,-0.5926 -9,-4 z m 26,0 c 0,-3.4074 1.3333,-4 9,-4 7.6666,0 9,0.5926 9,4 0,3.4074 -1.3334,4 -9,4 -7.6667,0 -9,-0.5926 -9,-4 z m 26,0 c 0,-3.4074 1.3333,-4 9,-4 7.6666,0 9,0.5926 9,4 0,3.4074 -1.3334,4 -9,4 -7.6667,0 -9,-0.5926 -9,-4 z m 26,0 c 0,-3.4074 1.3333,-4 9,-4 7.6666,0 9,0.5926 9,4 0,3.4074 -1.3334,4 -9,4 -7.6667,0 -9,-0.5926 -9,-4 z m 26,0 c 0,-2.93334 1.3333,-4 5,-4 3.6666,0 5,1.06666 5,4 0,2.93334 -1.3334,4 -5,4 -3.6667,0 -5,-1.06666 -5,-4 z m -182.0001,-26 c 0,-3.4074 1.3334,-4 9,-4 7.6667,0 9.0001,0.5926 9.0001,4 0,3.4074 -1.3334,4 -9.0001,4 -7.6666,0 -9,-0.5926 -9,-4 z m 26.0001,0 c 0,-3.4074 1.3333,-4 9,-4 7.6666,0 9,0.5926 9,4 0,3.4074 -1.3334,4 -9,4 -7.6667,0 -9,-0.5926 -9,-4 z m 26,0 c 0,-3.4074 1.3333,-4 9,-4 7.6666,0 9,0.5926 9,4 0,3.4074 -1.3334,4 -9,4 -7.6667,0 -9,-0.5926 -9,-4 z m 26,0 c 0,-3.4074 1.3333,-4 9,-4 7.6666,0 9,0.5926 9,4 0,3.4074 -1.3334,4 -9,4 -7.6667,0 -9,-0.5926 -9,-4 z m 28,0 c 0,-3.4074 1.3333,-4 9,-4 7.6666,0 9,0.5926 9,4 0,3.4074 -1.3334,4 -9,4 -7.6667,0 -9,-0.5926 -9,-4 z m 26,0 c 0,-3.4074 1.3333,-4 9,-4 7.6666,0 9,0.5926 9,4 0,3.4074 -1.3334,4 -9,4 -7.6667,0 -9,-0.5926 -9,-4 z m 26,0 c 0,-3.4074 1.3333,-4 9,-4 7.6666,0 9,0.5926 9,4 0,3.4074 -1.3334,4 -9,4 -7.6667,0 -9,-0.5926 -9,-4 z m 26,0 c 0,-3.4074 1.3333,-4 9,-4 7.6666,0 9,0.5926 9,4 0,3.4074 -1.3334,4 -9,4 -7.6667,0 -9,-0.5926 -9,-4 z m 26,0 c 0,-2.93334 1.3333,-4 5,-4 3.6666,0 5,1.06666 5,4 0,2.93334 -1.3334,4 -5,4 -3.6667,0 -5,-1.06666 -5,-4 z m -238.0001,-26 c 0,-3.4074 1.3334,-4 9,-4 7.6667,0 9,0.5926 9,4 0,3.4074 -1.3333,4 -9,4 -7.6666,0 -9,-0.5926 -9,-4 z m 26,0 c 0,-3.4074 1.3334,-4 9,-4 7.6667,0 9.0001,0.5926 9.0001,4 0,3.4074 -1.3334,4 -9.0001,4 -7.6666,0 -9,-0.5926 -9,-4 z m 26.0001,0 c 0,-3.4074 1.3333,-4 9,-4 7.6666,0 9,0.5926 9,4 0,3.4074 -1.3334,4 -9,4 -7.6667,0 -9,-0.5926 -9,-4 z m 26,0 c 0,-3.4074 1.3333,-4 9,-4 7.6666,0 9,0.5926 9,4 0,3.4074 -1.3334,4 -9,4 -7.6667,0 -9,-0.5926 -9,-4 z m 28,0 c 0,-3.4074 1.3333,-4 9,-4 7.6666,0 9,0.5926 9,4 0,3.4074 -1.3334,4 -9,4 -7.6667,0 -9,-0.5926 -9,-4 z m 26,0 c 0,-3.4074 1.3333,-4 9,-4 7.6666,0 9,0.5926 9,4 0,3.4074 -1.3334,4 -9,4 -7.6667,0 -9,-0.5926 -9,-4 z m 26,0 c 0,-3.4074 1.3333,-4 9,-4 7.6666,0 9,0.5926 9,4 0,3.4074 -1.3334,4 -9,4 -7.6667,0 -9,-0.5926 -9,-4 z m 26,0 c 0,-3.4074 1.3333,-4 9,-4 7.6666,0 9,0.5926 9,4 0,3.4074 -1.3334,4 -9,4 -7.6667,0 -9,-0.5926 -9,-4 z m 26,0 c 0,-2.93334 1.3333,-4 5,-4 3.6666,0 5,1.06666 5,4 0,2.93334 -1.3334,4 -5,4 -3.6667,0 -5,-1.06666 -5,-4 z"
       id="path45891"
       inkscape:connector-curvature="0" />
  </g>
</svg>
