<?xml version="1.0" encoding="UTF-8" standalone="no"?>
<!-- Created with Inkscape (http://www.inkscape.org/) -->

<svg
   xmlns:dc="http://purl.org/dc/elements/1.1/"
   xmlns:cc="http://creativecommons.org/ns#"
   xmlns:rdf="http://www.w3.org/1999/02/22-rdf-syntax-ns#"
   xmlns:svg="http://www.w3.org/2000/svg"
   xmlns="http://www.w3.org/2000/svg"
   xmlns:sodipodi="http://sodipodi.sourceforge.net/DTD/sodipodi-0.dtd"
   xmlns:inkscape="http://www.inkscape.org/namespaces/inkscape"
   width="256"
   height="256"
   viewBox="0 0 256 256"
   id="svg2"
   version="1.1"
   inkscape:version="0.91 r13725"
   sodipodi:docname="hail.svg">
  <defs
     id="defs4" />
  <sodipodi:namedview
     id="base"
     pagecolor="#ffffff"
     bordercolor="#666666"
     borderopacity="1.0"
     inkscape:pageopacity="0.0"
     inkscape:pageshadow="2"
     inkscape:zoom="0.1767767"
     inkscape:cx="919.2677"
     inkscape:cy="252.4817"
     inkscape:document-units="px"
     inkscape:current-layer="layer1"
     showgrid="false"
     inkscape:window-width="1276"
     inkscape:window-height="1400"
     inkscape:window-x="1280"
     inkscape:window-y="38"
     inkscape:window-maximized="0"
     units="px" />
  <metadata
     id="metadata7">
    <rdf:RDF>
      <cc:Work
         rdf:about="">
        <dc:format>image/svg+xml</dc:format>
        <dc:type
           rdf:resource="http://purl.org/dc/dcmitype/StillImage" />
        <dc:title></dc:title>
      </cc:Work>
    </rdf:RDF>
  </metadata>
  <g
     inkscape:label="Layer 1"
     inkscape:groupmode="layer"
     id="layer1"
     transform="translate(0,-796.36216)">
    <path
       style="fill:#000000"
       d=""
       id="path45631"
       inkscape:connector-curvature="0" />
    <g
       id="g45930"
       transform="matrix(2,0,0,2,-1352.9036,51.416077)">
      <path
         id="path45928"
         d="m 724.06312,480.29825 c -2.48334,-3.15705 -2.49658,-3.31478 -0.51588,-6.14263 2.93427,-4.18925 10.4433,-1.67265 10.4433,3.5 0,1.93827 -3.75045,5.27749 -5.92742,5.27749 -1.06008,0 -2.86008,-1.18569 -4,-2.63486 z"
         style="fill:#9cd6f5;fill-opacity:1"
         inkscape:connector-curvature="0" />
      <path
         id="path45926"
         d="m 764.32731,481.45644 c -7.01063,-4.91044 -0.0232,-15.99813 7.59825,-12.05693 4.58567,2.37134 5.36156,6.61555 1.9924,10.89874 -2.35729,2.99681 -6.28796,3.47149 -9.59065,1.15819 z"
         style="fill:#9cd6f5;fill-opacity:1"
         inkscape:connector-curvature="0" />
      <path
         id="path45924"
         d="m 695.08311,474.54465 c -2.13093,-2.56762 -0.94318,-6.95214 2.17902,-8.04377 2.29891,-0.80378 3.14321,-0.59742 4.95063,1.21001 1.80726,1.80726 2.01377,2.65193 1.21036,4.95063 -0.73238,2.09547 -1.7169,2.84503 -4.03581,3.07265 -1.81751,0.17841 -3.57113,-0.30623 -4.3042,-1.18952 z"
         style="fill:#9cd6f5;fill-opacity:1"
         inkscape:connector-curvature="0" />
      <path
         id="path45922"
         d="m 742.56197,471.36168 c -3.3602,-3.3602 -1.35232,-9.42857 3.1197,-9.42857 1.78285,0 5.30887,3.65296 5.30887,5.5 0,1.90482 -3.54849,5.5 -5.42857,5.5 -0.78572,0 -2.13572,-0.70714 -3,-1.57143 z"
         style="fill:#9cd6f5;fill-opacity:1"
         inkscape:connector-curvature="0" />
      <path
         id="path45920"
         d="m 712.03041,469.48115 c -2.65646,-3.20084 1.24523,-8.11777 4.71013,-5.93574 3.46233,2.18041 2.22883,7.3877 -1.75,7.3877 -0.96531,0 -2.29737,-0.65338 -2.96013,-1.45196 z"
         style="fill:#9cd6f5;fill-opacity:1"
         inkscape:connector-curvature="0" />
      <path
         id="path45918"
         d="m 776.94602,466.84992 c -0.88943,-1.6619 -0.76408,-2.47082 0.6198,-4 2.38935,-2.6402 5.24733,-2.40024 6.59318,0.55358 0.86067,1.88895 0.8268,2.83039 -0.14388,4 -1.83395,2.20977 -5.75451,1.90275 -7.0691,-0.55358 z"
         style="fill:#9cd6f5;fill-opacity:1"
         inkscape:connector-curvature="0" />
      <path
         id="path45916"
         d="m 727.03041,463.48115 c -2.65646,-3.20084 1.24523,-8.11777 4.71013,-5.93574 3.46233,2.18041 2.22883,7.3877 -1.75,7.3877 -0.96531,0 -2.29737,-0.65338 -2.96013,-1.45196 z"
         style="fill:#9cd6f5;fill-opacity:1"
         inkscape:connector-curvature="0" />
      <path
         id="path45914"
         d="m 760.03041,463.48115 c -2.65646,-3.20084 1.24523,-8.11777 4.71013,-5.93574 3.46233,2.18041 2.22883,7.3877 -1.75,7.3877 -0.96531,0 -2.29737,-0.65338 -2.96013,-1.45196 z"
         style="fill:#9cd6f5;fill-opacity:1"
         inkscape:connector-curvature="0" />
      <path
         id="path45912"
         d="m 699.53421,458.5887 c -1.36949,-1.00139 -1.66464,-2.03747 -1.15682,-4.0608 0.58883,-2.34607 1.12016,-2.67402 3.89746,-2.40559 2.48174,0.23986 3.29027,0.83691 3.54245,2.61584 0.35292,2.48953 -1.34382,5.19496 -3.25808,5.19496 -0.65253,0 -2.01379,-0.60498 -3.02501,-1.34441 z"
         style="fill:#9cd6f5;fill-opacity:1"
         inkscape:connector-curvature="0" />
      <path
         id="path45910"
         d="m 685.54724,448.7106 c -2.01692,-2.87956 -1.96269,-4.1001 0.27204,-6.1225 3.71487,-3.36191 8.17126,-1.44774 8.17126,3.50983 0,4.7242 -5.72376,6.49535 -8.4433,2.61267 z"
         style="fill:#9cd6f5;fill-opacity:1"
         inkscape:connector-curvature="0" />
      <path
         id="path45908"
         d="m 711.21233,445.46339 c -6.21497,-1.94072 -10.65759,-5.75707 -13.61841,-11.69866 -4.56188,-9.1545 -3.01158,-18.35538 4.37774,-25.98154 5.16956,-5.33524 10.69155,-7.32817 18.2836,-6.59867 5.71212,0.54887 6.23465,0.94699 4.78877,3.64865 -0.60971,1.13924 -1.48807,4.10278 -1.95192,6.58564 -0.72017,3.85489 -0.60464,4.5143 0.79089,4.5143 1.14408,0 2.00409,-1.55698 2.86736,-5.19116 2.25166,-9.47896 8.99126,-16.42488 18.80184,-19.37743 6.0605,-1.82395 9.81493,-1.80571 16.15968,0.0785 6.1304,1.82053 14.15145,8.66401 16.65059,14.20609 1.5616,3.46301 2.14383,3.8796 5.6157,4.01805 8.17694,0.32607 15.37988,6.74128 17.4108,15.50671 1.86336,8.0422 -5.03076,18.42204 -13.68258,20.60059 -6.85847,1.72698 -70.80009,1.46697 -76.49406,-0.31105 z"
         style="fill:#dfe1d3;fill-opacity:1"
         inkscape:connector-curvature="0" />
      <path
         id="path45904"
         d="m 680.00792,426.45405 c -1.01051,-1.21759 -1.05315,-2.14701 -0.18584,-4.05055 2.03067,-4.45683 7.70022,-2.24859 6.99522,2.72457 -0.40199,2.83575 -4.83927,3.69982 -6.80938,1.32598 z"
         style="fill:#9cd6f5;fill-opacity:1"
         inkscape:connector-curvature="0" />
    </g>
  </g>
</svg>
