<?xml version="1.0" encoding="UTF-8" standalone="no"?>
<!-- Created with Inkscape (http://www.inkscape.org/) -->

<svg
   xmlns:dc="http://purl.org/dc/elements/1.1/"
   xmlns:cc="http://creativecommons.org/ns#"
   xmlns:rdf="http://www.w3.org/1999/02/22-rdf-syntax-ns#"
   xmlns:svg="http://www.w3.org/2000/svg"
   xmlns="http://www.w3.org/2000/svg"
   xmlns:sodipodi="http://sodipodi.sourceforge.net/DTD/sodipodi-0.dtd"
   xmlns:inkscape="http://www.inkscape.org/namespaces/inkscape"
   width="256"
   height="256"
   viewBox="0 0 256 256"
   id="svg2"
   version="1.1"
   inkscape:version="0.91 r13725"
   sodipodi:docname="partly-cloudy.svg">
  <defs
     id="defs4" />
  <sodipodi:namedview
     id="base"
     pagecolor="#ffffff"
     bordercolor="#666666"
     borderopacity="1.0"
     inkscape:pageopacity="0.0"
     inkscape:pageshadow="2"
     inkscape:zoom="2"
     inkscape:cx="133.01226"
     inkscape:cy="137.08982"
     inkscape:document-units="px"
     inkscape:current-layer="layer1"
     showgrid="false"
     inkscape:window-width="1276"
     inkscape:window-height="1400"
     inkscape:window-x="1280"
     inkscape:window-y="38"
     inkscape:window-maximized="0"
     units="px" />
  <metadata
     id="metadata7">
    <rdf:RDF>
      <cc:Work
         rdf:about="">
        <dc:format>image/svg+xml</dc:format>
        <dc:type
           rdf:resource="http://purl.org/dc/dcmitype/StillImage" />
        <dc:title></dc:title>
      </cc:Work>
    </rdf:RDF>
  </metadata>
  <g
     inkscape:label="Layer 1"
     inkscape:groupmode="layer"
     id="layer1"
     transform="translate(0,-796.36216)">
    <path
       style="fill:#000000"
       d=""
       id="path45631"
       inkscape:connector-curvature="0" />
    <g
       id="g45682"
       transform="matrix(2,0,0,2,-406.69593,602.38205)">
      <path
         inkscape:connector-curvature="0"
         id="path45680"
         d="m 222.56851,207.51589 c -6.21497,-1.94072 -10.65759,-5.75707 -13.61841,-11.69866 -4.56188,-9.1545 -3.01158,-18.35538 4.37774,-25.98154 5.16956,-5.33524 10.69155,-7.32816 18.2836,-6.59867 5.71212,0.54887 6.23465,0.94699 4.78877,3.64865 -0.60971,1.13924 -1.48807,4.10278 -1.95192,6.58564 -0.72017,3.85489 -0.60464,4.5143 0.79088,4.5143 1.14409,0 2.0041,-1.55697 2.86737,-5.19116 2.25166,-9.47896 8.99126,-16.42488 18.80184,-19.37743 6.0605,-1.82395 9.81493,-1.80571 16.15968,0.0785 6.1304,1.82053 14.15145,8.66401 16.65059,14.20609 1.5616,3.46301 2.14383,3.8796 5.6157,4.01805 8.17694,0.32607 15.37988,6.74128 17.4108,15.50671 1.86336,8.0422 -5.03076,18.42203 -13.68258,20.60059 -6.85847,1.72698 -70.80009,1.46697 -76.49406,-0.31105 z"
         style="fill:#dfe1d3;fill-opacity:1" />
      <path
         inkscape:connector-curvature="0"
         id="path45678"
         d="m 307.53806,171.99819 c -2.08273,-1.73947 -2.2056,-2.29928 -1.25558,-5.72037 5.33996,-19.22949 -12.19988,-36.42725 -31.44564,-30.83236 -4.31054,1.25311 -6.89807,2.85287 -10.59664,6.55143 -2.69141,2.69142 -4.89348,5.29368 -4.89348,5.78281 0,0.48914 -1.87997,1.45259 -4.1777,2.14101 -2.29774,0.68841 -5.11024,1.85557 -6.25,2.59368 -1.83481,1.18822 -2.67396,0.97799 -7.3223,-1.83439 -2.8875,-1.74703 -5.25,-3.51796 -5.25,-3.9354 0,-0.41744 3.74656,-0.75899 8.32569,-0.75899 7.54865,0 8.54108,-0.22928 10.63365,-2.45672 2.79138,-2.97129 2.46155,-5.57815 -1.82549,-14.42824 -1.62919,-3.36327 -2.66329,-6.10541 -2.29801,-6.09364 0.36529,0.0118 3.77533,2.03677 7.57786,4.5 3.80254,2.46323 7.98549,4.4786 9.29546,4.4786 4.11396,0 6.75555,-3.79589 8.17692,-11.75 0.71256,-3.9875 1.60261,-7.25 1.97789,-7.25 0.37529,0 1.76529,3.18095 3.0889,7.06878 4.19875,12.33301 8.97637,13.84388 18.75549,5.93122 3.39868,-2.75 6.34785,-5 6.55371,-5 0.20586,0 -0.53817,3.5516 -1.65341,7.89244 -3.25547,12.6713 -0.39297,15.85266 13.14134,14.60517 3.9875,-0.36754 7.23688,-0.29236 7.22085,0.16707 -0.016,0.45943 -2.71722,2.78671 -6.00264,5.17175 -9.79051,7.10738 -9.21902,11.77796 2.28367,18.66357 3.67518,2.2 6.697,4.3375 6.71514,4.75 0.0181,0.4125 -3.53022,0.75 -7.88523,0.75 -4.35502,0 -8.51752,0.21167 -9.25,0.47037 -0.73249,0.2587 -2.37069,-0.39731 -3.64045,-1.45779 z"
         style="fill:#ffb713;fill-opacity:1" />
      <path
         inkscape:connector-curvature="0"
         id="path45674"
         d="m 297.62143,168.0427 c -2.46613,-0.42596 -3.91247,-1.64426 -6.14483,-5.17598 -4.67957,-7.40337 -13.30605,-12.82117 -22.87988,-14.36955 -2.3375,-0.37805 -4.25,-1.0749 -4.25,-1.54857 0,-1.2803 6.08387,-5.68226 10.27171,-7.43205 10.69233,-4.46754 24.03715,1.78479 27.73697,12.99536 1.30762,3.96212 0.9168,14.0413 -0.59387,15.31598 -0.50315,0.42455 -2.36619,0.52121 -4.1401,0.21481 z"
         style="fill:#ffe154;fill-opacity:1" />
    </g>
  </g>
</svg>
