<?xml version="1.0" encoding="UTF-8" standalone="no"?>
<!-- Created with Inkscape (http://www.inkscape.org/) -->

<svg
   xmlns:dc="http://purl.org/dc/elements/1.1/"
   xmlns:cc="http://creativecommons.org/ns#"
   xmlns:rdf="http://www.w3.org/1999/02/22-rdf-syntax-ns#"
   xmlns:svg="http://www.w3.org/2000/svg"
   xmlns="http://www.w3.org/2000/svg"
   xmlns:sodipodi="http://sodipodi.sourceforge.net/DTD/sodipodi-0.dtd"
   xmlns:inkscape="http://www.inkscape.org/namespaces/inkscape"
   width="256"
   height="256"
   viewBox="0 0 256 256"
   id="svg2"
   version="1.1"
   inkscape:version="0.91 r13725"
   sodipodi:docname="rain.svg">
  <defs
     id="defs4" />
  <sodipodi:namedview
     id="base"
     pagecolor="#ffffff"
     bordercolor="#666666"
     borderopacity="1.0"
     inkscape:pageopacity="0.0"
     inkscape:pageshadow="2"
     inkscape:zoom="0.1767767"
     inkscape:cx="919.2677"
     inkscape:cy="252.4817"
     inkscape:document-units="px"
     inkscape:current-layer="layer1"
     showgrid="false"
     inkscape:window-width="1276"
     inkscape:window-height="1400"
     inkscape:window-x="1280"
     inkscape:window-y="38"
     inkscape:window-maximized="0"
     units="px" />
  <metadata
     id="metadata7">
    <rdf:RDF>
      <cc:Work
         rdf:about="">
        <dc:format>image/svg+xml</dc:format>
        <dc:type
           rdf:resource="http://purl.org/dc/dcmitype/StillImage" />
        <dc:title></dc:title>
      </cc:Work>
    </rdf:RDF>
  </metadata>
  <g
     inkscape:label="Layer 1"
     inkscape:groupmode="layer"
     id="layer1"
     transform="translate(0,-796.36216)">
    <path
       style="fill:#000000"
       d=""
       id="path45631"
       inkscape:connector-curvature="0" />
    <g
       id="g45988"
       transform="matrix(2,0,0,2,-756.62849,152.73909)">
      <path
         id="path45986"
         d="m 398.72896,428.94292 c -2.01206,-0.80955 -4.44547,-6.33194 -3.84476,-8.72534 0.30082,-1.19858 4.68637,-5.97528 9.74565,-10.61491 7.58296,-6.95395 9.08194,-7.97042 8.5339,-5.78688 -0.36564,1.45683 -1.09357,6.79316 -1.61763,11.8585 -0.75576,7.30498 -1.41216,9.69864 -3.17378,11.57381 -2.12379,2.26067 -6.37851,3.00843 -9.64338,1.69482 z"
         style="fill:#4ba4b3;fill-opacity:0.9990223"
         inkscape:connector-curvature="0" />
      <path
         id="path45984"
         d="m 426.95454,427.15766 c -3.72966,-3.72966 -3.28638,-7.82534 1.29546,-11.96947 2.0625,-1.86546 6.39803,-5.7957 9.6345,-8.73386 4.03329,-3.66154 5.68128,-4.68969 5.23851,-3.26824 -0.3553,1.14064 -1.24656,6.72792 -1.9806,12.41617 -1.11028,8.60396 -1.71525,10.65051 -3.59929,12.17612 -3.19768,2.58932 -7.63889,2.32897 -10.58858,-0.62072 z"
         style="fill:#36d8f2;fill-opacity:1"
         inkscape:connector-curvature="0" />
      <path
         id="path45982"
         d="m 456.67431,427.29776 c -1.35049,-1.43754 -2.17431,-3.60008 -2.17431,-5.70762 0,-2.84017 0.84745,-4.13343 5.20004,-7.93554 2.86001,-2.49832 6.93734,-6.27756 9.06072,-8.39833 4.25771,-4.25247 5.32504,-4.31504 3.76845,-0.22089 -0.56471,1.4853 -1.28894,5.93521 -1.60941,9.88869 -0.68005,8.38954 -1.98788,12.38661 -4.49121,13.72636 -3.15203,1.68691 -7.45996,1.08951 -9.75428,-1.35267 z"
         style="fill:#4ba4b3;fill-opacity:0.9990223"
         inkscape:connector-curvature="0" />
      <path
         id="path45980"
         d="m 392.15499,393.78347 c -3.25759,-3.59959 -2.10303,-6.36247 5.50537,-13.17444 5.91457,-5.29545 7.05837,-5.98335 6.57412,-3.95383 -0.32243,1.35136 -0.89224,5.15701 -1.26625,8.45701 -0.37401,3.3 -1.31773,7.0125 -2.09717,8.25 -1.75383,2.78452 -6.37522,3.00788 -8.71607,0.42126 z"
         style="fill:#36d8f2;fill-opacity:1"
         inkscape:connector-curvature="0" />
      <path
         id="path45978"
         d="m 422.15499,393.78347 c -3.29475,-3.64066 -2.11913,-6.46757 5.50898,-13.24703 6.00549,-5.33737 7.06196,-5.96056 6.53321,-3.85381 -0.34692,1.38223 -0.9238,5.19434 -1.28196,8.47136 -0.35816,3.27702 -1.28347,6.97072 -2.05626,8.20822 -1.73936,2.78532 -6.36206,3.00905 -8.70397,0.42126 z"
         style="fill:#4ba4b3;fill-opacity:0.9990223"
         inkscape:connector-curvature="0" />
      <path
         id="path45976"
         d="m 452.07143,394.04078 c -3.39762,-3.39761 -2.00705,-6.75023 5.60628,-13.51656 5.87586,-5.22215 7.05342,-5.92871 6.49243,-3.89559 -0.37691,1.36597 -0.96041,5.18358 -1.29667,8.48358 -0.77757,7.63083 -2.50593,10.5 -6.32509,10.5 -1.59804,0 -3.61267,-0.70714 -4.47695,-1.57143 z"
         style="fill:#36d8f2;fill-opacity:1"
         inkscape:connector-curvature="0" />
      <path
         id="path45974"
         d="m 482.8997,394.8469 c -1.81625,-1.21275 -3.43179,-4.98749 -2.81854,-6.5856 0.3157,-0.82269 3.77938,-4.34279 7.69708,-7.82244 4.06059,-3.60658 6.79612,-5.47207 6.3626,-4.33897 -0.41826,1.09322 -1.01195,4.91822 -1.31931,8.5 -0.68251,7.95355 -2.38076,11.01786 -6.09458,10.99701 -1.49982,-0.008 -3.22208,-0.34593 -3.82725,-0.75 z"
         style="fill:#36d8f2;fill-opacity:1"
         inkscape:connector-curvature="0" />
      <path
         id="path45972"
         d="m 415.72896,368.94292 c -2.01206,-0.80955 -4.44547,-6.33194 -3.84476,-8.72534 0.30082,-1.19858 4.68637,-5.97528 9.74565,-10.61491 7.58296,-6.95396 9.08194,-7.97042 8.5339,-5.78688 -0.36564,1.45683 -1.09357,6.79316 -1.61763,11.8585 -0.75576,7.30498 -1.41216,9.69864 -3.17378,11.57381 -2.12379,2.26067 -6.37851,3.00843 -9.64338,1.69482 z"
         style="fill:#36d8f2;fill-opacity:1"
         inkscape:connector-curvature="0" />
      <path
         id="path45970"
         d="m 443.95454,367.15766 c -3.72966,-3.72966 -3.28638,-7.82534 1.29546,-11.96947 2.0625,-1.86546 6.39803,-5.7957 9.6345,-8.73386 4.03329,-3.66154 5.68128,-4.68969 5.23851,-3.26824 -0.3553,1.14064 -1.24656,6.72792 -1.9806,12.41617 -1.11028,8.60396 -1.71525,10.65051 -3.59929,12.17612 -3.19768,2.58932 -7.63889,2.32897 -10.58858,-0.62072 z"
         style="fill:#36d8f2;fill-opacity:1"
         inkscape:connector-curvature="0" />
      <path
         id="path45966"
         d="m 473.67431,367.29776 c -1.35049,-1.43754 -2.17431,-3.60008 -2.17431,-5.70762 0,-2.84017 0.84745,-4.13343 5.20003,-7.93554 2.86002,-2.49832 6.93735,-6.27756 9.06073,-8.39833 4.25771,-4.25248 5.32504,-4.31504 3.76845,-0.22089 -0.56471,1.4853 -1.28894,5.93521 -1.60941,9.88869 -0.68005,8.38954 -1.98788,12.38661 -4.49121,13.72636 -3.15203,1.68691 -7.45996,1.08951 -9.75428,-1.35267 z"
         style="fill:#4ba4b3;fill-opacity:0.9990223"
         inkscape:connector-curvature="0" />
    </g>
  </g>
</svg>
