<?xml version="1.0" encoding="UTF-8" standalone="no"?>
<!-- Created with Inkscape (http://www.inkscape.org/) -->

<svg
   xmlns:dc="http://purl.org/dc/elements/1.1/"
   xmlns:cc="http://creativecommons.org/ns#"
   xmlns:rdf="http://www.w3.org/1999/02/22-rdf-syntax-ns#"
   xmlns:svg="http://www.w3.org/2000/svg"
   xmlns="http://www.w3.org/2000/svg"
   xmlns:sodipodi="http://sodipodi.sourceforge.net/DTD/sodipodi-0.dtd"
   xmlns:inkscape="http://www.inkscape.org/namespaces/inkscape"
   width="256"
   height="256"
   viewBox="0 0 256 256"
   id="svg2"
   version="1.1"
   inkscape:version="0.91 r13725"
   sodipodi:docname="showers.svg">
  <defs
     id="defs4" />
  <sodipodi:namedview
     id="base"
     pagecolor="#ffffff"
     bordercolor="#666666"
     borderopacity="1.0"
     inkscape:pageopacity="0.0"
     inkscape:pageshadow="2"
     inkscape:zoom="0.1767767"
     inkscape:cx="919.2677"
     inkscape:cy="252.4817"
     inkscape:document-units="px"
     inkscape:current-layer="layer1"
     showgrid="false"
     inkscape:window-width="1276"
     inkscape:window-height="1400"
     inkscape:window-x="1280"
     inkscape:window-y="38"
     inkscape:window-maximized="0"
     units="px" />
  <metadata
     id="metadata7">
    <rdf:RDF>
      <cc:Work
         rdf:about="">
        <dc:format>image/svg+xml</dc:format>
        <dc:type
           rdf:resource="http://purl.org/dc/dcmitype/StillImage" />
        <dc:title></dc:title>
      </cc:Work>
    </rdf:RDF>
  </metadata>
  <g
     inkscape:label="Layer 1"
     inkscape:groupmode="layer"
     id="layer1"
     transform="translate(0,-796.36216)">
    <path
       style="fill:#000000"
       d=""
       id="path45631"
       inkscape:connector-curvature="0" />
    <g
       id="g46023"
       transform="matrix(2,0,0,2,-1008.5269,58.388057)">
      <path
         inkscape:connector-curvature="0"
         id="path46021"
         d="m 514.15499,475.53347 c -3.25759,-3.59959 -2.10303,-6.36247 5.50537,-13.17444 5.91457,-5.29545 7.05837,-5.98335 6.57412,-3.95383 -0.32243,1.35136 -0.89224,5.15701 -1.26625,8.45701 -0.37401,3.3 -1.31773,7.0125 -2.09717,8.25 -1.75383,2.78452 -6.37522,3.00788 -8.71607,0.42126 z"
         style="fill:#39e5ff;fill-opacity:1" />
      <path
         inkscape:connector-curvature="0"
         id="path46019"
         d="m 544.15499,475.53347 c -3.25759,-3.59959 -2.10303,-6.36247 5.50537,-13.17444 5.95269,-5.32957 7.05459,-5.98939 6.53321,-3.91205 -0.34493,1.37434 -0.92019,5.17999 -1.27835,8.45701 -0.35816,3.27702 -1.28347,6.97072 -2.05626,8.20822 -1.73936,2.78532 -6.36206,3.00905 -8.70397,0.42126 z"
         style="fill:#39e5ff;fill-opacity:1" />
      <path
         inkscape:connector-curvature="0"
         id="path46017"
         d="m 574.07143,475.79078 c -3.40091,-3.40091 -2.00795,-6.74967 5.62923,-13.53298 3.96036,-3.51757 6.89731,-5.60243 6.52656,-4.63302 -0.37075,0.96941 -0.9633,4.79441 -1.31677,8.5 -0.35348,3.70559 -1.2758,7.74993 -2.04962,8.98743 -1.67467,2.67817 -6.4232,3.04477 -8.7894,0.67857 z"
         style="fill:#39e5ff;fill-opacity:1" />
      <path
         inkscape:connector-curvature="0"
         id="path46015"
         d="m 604.8997,476.5969 c -1.81625,-1.21275 -3.43179,-4.98749 -2.81854,-6.5856 0.3157,-0.82269 3.77938,-4.34279 7.69708,-7.82244 4.06059,-3.60658 6.79612,-5.47207 6.3626,-4.33897 -0.41826,1.09322 -1.01195,4.91822 -1.31931,8.5 -0.68251,7.95355 -2.38076,11.01786 -6.09458,10.99701 -1.49982,-0.008 -3.22208,-0.34592 -3.82725,-0.75 z"
         style="fill:#39e5ff;fill-opacity:1" />
      <path
         inkscape:connector-curvature="0"
         id="path46011"
         d="m 526.9628,448.77086 c -12.55873,-4.45911 -19.16511,-18.13568 -15.36741,-31.81368 1.57344,-5.66701 10.06371,-13.83176 16.14735,-15.52826 4.43308,-1.23621 14.06782,-1.08948 15.39172,0.23441 0.32476,0.32477 -0.13513,2.72004 -1.02199,5.32282 -2.19582,6.44438 -2.15013,10.62625 0.11133,10.19074 1.15592,-0.22262 1.96136,-1.72357 2.44492,-4.55612 4.61691,-27.04492 42.24524,-32.9857 55.882,-8.82268 2.76898,4.90635 3.32119,5.34325 7.4728,5.91229 6.54971,0.89774 12.09742,4.12191 15.22536,8.84856 2.357,3.56166 2.75112,5.18094 2.75112,11.30327 0,9.19549 -2.85988,14.00548 -10.6292,17.87709 l -5.26349,2.62291 -39.55365,-0.079 c -31.64311,-0.0632 -40.36108,-0.36563 -43.59086,-1.5124 z"
         style="fill:#dfe1d3;fill-opacity:1" />
    </g>
  </g>
</svg>
