<?xml version="1.0" encoding="UTF-8" standalone="no"?>
<!-- Created with Inkscape (http://www.inkscape.org/) -->

<svg
   xmlns:dc="http://purl.org/dc/elements/1.1/"
   xmlns:cc="http://creativecommons.org/ns#"
   xmlns:rdf="http://www.w3.org/1999/02/22-rdf-syntax-ns#"
   xmlns:svg="http://www.w3.org/2000/svg"
   xmlns="http://www.w3.org/2000/svg"
   xmlns:sodipodi="http://sodipodi.sourceforge.net/DTD/sodipodi-0.dtd"
   xmlns:inkscape="http://www.inkscape.org/namespaces/inkscape"
   width="256"
   height="256"
   viewBox="0 0 256 256"
   id="svg2"
   version="1.1"
   inkscape:version="0.91 r13725"
   sodipodi:docname="snow.svg">
  <defs
     id="defs4" />
  <sodipodi:namedview
     id="base"
     pagecolor="#ffffff"
     bordercolor="#666666"
     borderopacity="1.0"
     inkscape:pageopacity="0.0"
     inkscape:pageshadow="2"
     inkscape:zoom="0.1767767"
     inkscape:cx="919.2677"
     inkscape:cy="252.4817"
     inkscape:document-units="px"
     inkscape:current-layer="layer1"
     showgrid="false"
     inkscape:window-width="1276"
     inkscape:window-height="1400"
     inkscape:window-x="1280"
     inkscape:window-y="38"
     inkscape:window-maximized="0"
     units="px" />
  <metadata
     id="metadata7">
    <rdf:RDF>
      <cc:Work
         rdf:about="">
        <dc:format>image/svg+xml</dc:format>
        <dc:type
           rdf:resource="http://purl.org/dc/dcmitype/StillImage" />
        <dc:title></dc:title>
      </cc:Work>
    </rdf:RDF>
  </metadata>
  <g
     inkscape:label="Layer 1"
     inkscape:groupmode="layer"
     id="layer1"
     transform="translate(0,-796.36216)">
    <path
       style="fill:#000000"
       d=""
       id="path45631"
       inkscape:connector-curvature="0" />
    <path
       style="fill:#9cd6f5;fill-opacity:1"
       d="m 47.999995,1023.0135 0,-7.3486 -5.05462,4.7485 -5.0546,4.7486 -5.34532,-5.3453 -5.34532,-5.3453 4.74856,-5.0546 4.74856,-5.0547 -7.34864,0 c -7.24006,0 -7.34862,-0.1182 -7.34862,-7.99996 0,-7.88182 0.1086,-8 7.34862,-8 l 7.34864,0 -4.74856,-5.05462 -4.74856,-5.0546 5.34532,-5.34532 5.34532,-5.34532 5.0546,4.74856 5.05462,4.74856 0,-6.34864 c 0,-6.0734 0.34682,-6.34862 8,-6.34862 7.65318,0 8,0.27522 8,6.34862 l 0,6.34864 5.05462,-4.74856 5.0546,-4.74856 5.34532,5.34532 5.34532,5.34532 -4.74856,5.0546 -4.74856,5.05462 6.34864,0 c 6.0734,0 6.34862,0.34682 6.34862,8 0,7.65316 -0.27522,7.99996 -6.34862,7.99996 l -6.34864,0 4.74856,5.0547 4.74856,5.0546 -5.34532,5.3453 -5.34532,5.3453 -5.0546,-4.7486 -5.05462,-4.7485 0,7.3486 c 0,7.2401 -0.1182,7.3486 -8,7.3486 -7.88182,0 -8,-0.1086 -8,-7.3486 z m 78.760015,-17.5556 c -0.613,-1.5973 -0.43,-4.0723 0.4065,-5.49998 0.8366,-1.42768 -0.4617,-0.85594 -2.885,1.27058 -4.0967,3.5948 -4.638,3.6343 -7.7101,0.5622 -3.0721,-3.07206 -3.0459,-3.58926 0.3722,-7.3663 3.6074,-3.9861 3.5768,-4.06226 -1.6336,-4.06226 -4.3307,0 -5.31,-0.92216 -5.31,-5 0,-3.6737 1.0655,-5 4.0169,-5 3.4994,0 3.6991,-0.50896 1.5501,-3.95008 -3.5498,-5.68416 0.7805,-10.04408 6.4558,-6.49984 5.2723,3.2926 5.7781,3.12054 4.5567,-1.55008 -0.8808,-3.36812 -0.061,-4 5.1872,-4 5.0198,0 6.2333,0.82638 6.2333,4.24488 0,3.37234 0.5645,3.77636 2.7465,1.9655 5.807,-4.81938 12.18519,2.05786 6.85349,7.38962 -1.8667,1.86666 -1.42219,2.4 2,2.4 3.36,0 4.40001,1.18182 4.40001,5 0,4.07784 -0.9794,5 -5.31,5 -5.2104,0 -5.241,0.0762 -1.6337,4.06226 3.4009,3.7579 3.43159,4.30694 0.4104,7.3282 -2.5643,2.5643 -3.8796,2.7567 -6.12211,0.8956 -2.2944,-1.9042 -3.0639,-1.5754 -3.91309,1.6718 -1.2347,4.7216 -8.97941,5.5474 -10.67151,1.1379 z m 65.24,-23.44438 0,-6.34864 -5.0546,4.74856 -5.0546,4.74856 -5.3454,-5.34532 -5.3453,-5.34532 4.7486,-5.0546 4.7485,-5.05462 -6.3486,0 c -6.0734,0 -6.3486,-0.34682 -6.3486,-8 0,-7.65318 0.2752,-8 6.3486,-8 l 6.3486,0 -4.7485,-5.05462 -4.7486,-5.0546 5.3453,-5.34532 5.3454,-5.34532 5.0546,4.74856 5.0546,4.74856 0,-6.34864 c 0,-6.0734 0.3468,-6.34862 8,-6.34862 7.6532,0 8,0.27522 8,6.34862 l 0,6.34864 5.0546,-4.74856 5.05459,-4.74856 5.3453,5.34532 5.3453,5.34532 -4.7485,5.0546 -4.74859,5.05462 7.3487,0 c 7.24,0 7.3486,0.1182 7.3486,8 0,7.88182 -0.1086,8 -7.3486,8 l -7.3487,0 4.74859,5.05462 4.7485,5.0546 -5.3453,5.34532 -5.3453,5.34532 -5.05459,-4.74856 -5.0546,-4.74856 0,6.34864 c 0,6.0734 -0.3468,6.34862 -8,6.34862 -7.6532,0 -8,-0.27522 -8,-6.34862 z m -66,-51.89626 c 0,-3.54648 -0.4936,-3.83526 -3,-1.75512 -2.3957,1.98824 -3.6145,1.97982 -6.0505,-0.0418 -2.7279,-2.26398 -2.7105,-2.90724 0.16459,-6.08422 2.9883,-3.302 2.886,-3.59916 -1.44949,-4.21324 -2.5655,-0.36336 -4.6646,-2.01066 -4.6646,-3.66066 0,-1.65 2.0991,-3.2973 4.6646,-3.66066 4.3355,-0.61408 4.4378,-0.91124 1.44949,-4.21324 -2.87509,-3.17698 -2.8925,-3.82024 -0.16459,-6.08422 2.436,-2.0217 3.6548,-2.03012 6.0505,-0.0418 2.5064,2.08014 3,1.79136 3,-1.75512 0,-3.19454 1.2372,-4.24488 5,-4.24488 3.7628,0 5,1.05034 5,4.24488 0,3.54648 0.4936,3.83526 3,1.75512 2.3957,-1.98824 3.61449,-1.97982 6.0504,0.0418 2.728,2.264 2.7106,2.90726 -0.1646,6.08422 -2.9879,3.3016 -2.8869,3.59924 1.4291,4.21324 2.5543,0.36336 4.9444,2.23566 5.3113,4.16066 0.5033,2.64112 -0.672,3.5 -4.7896,3.5 -5.1894,0 -5.2921,0.1818 -2.0962,3.71324 2.9999,3.3148 3.0331,3.98488 0.31,6.24488 -2.436,2.0217 -3.6547,2.03012 -6.0504,0.0418 -2.5064,-2.08014 -3,-1.79136 -3,1.75512 0,3.19454 -1.2372,4.24488 -5,4.24488 -3.7629,0 -5,-1.05034 -5,-4.24488 z m -58.236855,-5.25512 c -0.1302,-0.825 -0.1302,-2.175 0,-3 0.1302,-0.825 -0.66316,-1.5 -1.76316,-1.5 -1.1,0 -2,0.9 -2,2 0,3.20454 -4.0086,2.30474 -5.3542,-1.20186 -0.67578,-1.761 0.0274,-3.99722 1.56276,-4.96936 2.09844,-1.32872 1.67428,-1.77514 -1.70856,-1.79816 -5.03556,-0.0342 -6.25614,-5.48226 -1.62628,-7.2589 1.58054,-0.60652 2.41918,-2.28724 1.86364,-3.73494 -1.48596,-3.87234 2.94984,-5.78616 6.52804,-2.81652 2.61898,2.17356 2.98684,1.98214 2.4124,-1.2553 -0.42366,-2.3876 0.63458,-4.0896 2.8222,-4.5391 2.50516,-0.51474 3.54488,0.6016 3.6579,3.9275 0.0868,2.55564 0.61184,3.52164 1.16666,2.14664 0.55482,-1.375 2.23066,-2.5 3.72408,-2.5 4.04042,0 5.8718,4.1888 2.70758,6.19298 -2.17986,1.38072 -2.02434,1.75218 0.74378,1.7764 2.15646,0.018 3.5,1.5661 3.5,4.03062 0,2.3564 -1.33334,4 -3.24488,4 -2.41438,0 -2.6996,0.65704 -1.11442,2.56708 1.26858,1.52854 1.42932,3.7016 0.39732,5.3714 -1.43426,2.3207 -2.2768,2.35312 -4.88558,0.188 -2.64962,-2.19898 -3.15244,-2.09872 -3.15244,0.6286 0,3.14738 -5.76092,4.7591 -6.23684,1.74488 z M 203.93921,890.00878 c -0.055,-4.21082 -0.2579,-4.30796 -2.1615,-1.03574 -1.6684,2.8679 -2.6898,3.12194 -4.9638,1.23464 -2.1707,-1.80146 -2.3143,-3.03772 -0.5937,-5.1109 1.7609,-2.12174 1.5423,-2.73464 -0.9753,-2.73464 -1.9116,0 -3.2449,-1.6436 -3.2449,-4 0,-2.3564 1.3333,-4 3.2449,-4 2.4656,0 2.7172,-0.63582 1.0476,-2.64758 -3.1234,-3.76346 1.2964,-8.18334 5.0599,-5.05994 2.0198,1.67624 2.6476,1.39306 2.6476,-1.19424 0,-2.17066 1.2599,-3.13266 3.5,-2.67238 2.2258,0.45734 3.245,2.14582 2.7994,4.6381 -0.6869,3.84316 -0.6201,3.84616 3.4583,0.1552 3.8982,-3.52776 4.2425,-3.54592 5.492,-0.2896 0.7485,1.95052 0.2541,4.14098 -1.1274,4.99476 -1.71,1.05686 -1.1889,1.8532 1.7086,2.6109 5.4784,1.43264 5.313,5.13384 -0.3309,7.4024 -2.475,0.99482 -3.375,1.86582 -2,1.93556 3.3307,0.1688 3.2334,6.12676 -0.1,6.12676 -1.43,0 -3.7552,-1.125 -5.1672,-2.5 -2.0693,-2.01518 -2.4377,-1.73836 -1.9,1.4275 0.4219,2.48342 -0.6197,4.19192 -2.8328,4.64664 -2.5237,0.51856 -3.517,-0.577 -3.5608,-3.9275 z M 47.999995,868.11726 c 0,-3.54648 -0.4936,-3.83526 -3,-1.75512 -2.3957,1.98824 -3.61448,1.97982 -6.05046,-0.0418 -2.72312,-2.26 -2.68986,-2.9301 0.30998,-6.24488 3.1959,-3.53144 3.09328,-3.71324 -2.0962,-3.71324 -4.11756,0 -5.29292,-0.8589 -4.78954,-3.5 0.3669,-1.925 2.75694,-3.7973 5.31122,-4.16066 4.31606,-0.614 4.41702,-0.91164 1.42912,-4.21324 -2.87512,-3.17698 -2.89252,-3.82024 -0.1646,-6.08422 2.43598,-2.0217 3.65476,-2.03012 6.05046,-0.0418 2.5064,2.08014 3,1.79136 3,-1.7551 0,-3.19456 1.23718,-4.2449 5,-4.2449 3.76282,0 5,1.05034 5,4.2449 0,3.54646 0.4936,3.83524 3,1.7551 2.3957,-1.98824 3.61448,-1.97982 6.05046,0.0418 2.72312,2.26 2.68986,2.9301 -0.30998,6.24488 -3.17516,3.5085 -3.1228,3.71324 0.94954,3.71324 2.97664,0 4.30998,1.23744 4.30998,4 0,2.76256 -1.33334,4 -4.30998,4 -4.07234,0 -4.1247,0.20474 -0.94954,3.71324 2.99984,3.31478 3.0331,3.98488 0.30998,6.24488 -2.43598,2.0217 -3.65476,2.03012 -6.05046,0.0418 -2.5064,-2.08014 -3,-1.79136 -3,1.75512 0,3.19454 -1.23718,4.24488 -5,4.24488 -3.76282,0 -5,-1.05034 -5,-4.24488 z m 88.000015,-8.926 c 0,-5.16196 -0.1936,-5.27382 -3.6754,-2.1229 -3.4336,3.10736 -3.8914,3.08746 -6.9591,-0.30234 -3.047,-3.36694 -3.0396,-3.8727 0.104,-7.01618 3.1836,-3.1836 3.0606,-3.3877 -2.0409,-3.3877 -4.4571,0 -5.4286,-0.89474 -5.4286,-5 0,-4.07784 0.9794,-5 5.31,-5 5.027,0 5.1327,-0.196 1.9838,-3.67538 -3.1073,-3.43358 -3.0874,-3.89138 0.3024,-6.95912 3.3669,-3.04702 3.8727,-3.03954 7.0161,0.104 3.1836,3.18358 3.3877,3.06062 3.3877,-2.04088 0,-4.45716 0.8948,-5.42858 5,-5.42858 4.0779,0 5,0.97934 5,5.30998 0,5.0466 0.1842,5.1433 3.71329,1.94954 3.404,-3.08062 3.9352,-3.0929 6.3796,-0.1476 2.10401,2.53514 2.16091,4.02238 0.2699,7.05046 -2.0641,3.30516 -1.8393,3.8376 1.62031,3.8376 2.95139,0 4.0169,1.3263 4.0169,5 0,3.6737 -1.0655,5 -4.0169,5 -3.5054,0 -3.7014,0.50528 -1.5391,3.96766 2.0654,3.30728 1.8829,4.55562 -1.0963,7.5 -3.4176,3.37762 -3.6741,3.35714 -5.8571,-0.46766 -2.202,-3.8583 -2.3249,-3.82288 -3.4687,1 -0.7478,3.15306 -2.8178,5.23608 -5.6038,5.6391 -3.6328,0.52548 -4.4181,-0.32952 -4.4181,-4.81 z"
       id="path46041"
       inkscape:connector-curvature="0" />
  </g>
</svg>
