<?xml version="1.0" encoding="UTF-8" standalone="no"?>
<!-- Created with Inkscape (http://www.inkscape.org/) -->

<svg
   xmlns:dc="http://purl.org/dc/elements/1.1/"
   xmlns:cc="http://creativecommons.org/ns#"
   xmlns:rdf="http://www.w3.org/1999/02/22-rdf-syntax-ns#"
   xmlns:svg="http://www.w3.org/2000/svg"
   xmlns="http://www.w3.org/2000/svg"
   xmlns:sodipodi="http://sodipodi.sourceforge.net/DTD/sodipodi-0.dtd"
   xmlns:inkscape="http://www.inkscape.org/namespaces/inkscape"
   width="210mm"
   height="297mm"
   viewBox="0 0 744.09448819 1052.3622047"
   id="svg2"
   version="1.1"
   inkscape:version="0.91 r13725"
   sodipodi:docname="weather_icons.svg">
  <defs
     id="defs4" />
  <sodipodi:namedview
     id="base"
     pagecolor="#ffffff"
     bordercolor="#666666"
     borderopacity="1.0"
     inkscape:pageopacity="0.0"
     inkscape:pageshadow="2"
     inkscape:zoom="0.5"
     inkscape:cx="431.67812"
     inkscape:cy="793.23555"
     inkscape:document-units="px"
     inkscape:current-layer="layer1"
     showgrid="false"
     inkscape:window-width="1276"
     inkscape:window-height="1400"
     inkscape:window-x="1280"
     inkscape:window-y="38"
     inkscape:window-maximized="0" />
  <metadata
     id="metadata7">
    <rdf:RDF>
      <cc:Work
         rdf:about="">
        <dc:format>image/svg+xml</dc:format>
        <dc:type
           rdf:resource="http://purl.org/dc/dcmitype/StillImage" />
        <dc:title></dc:title>
      </cc:Work>
    </rdf:RDF>
  </metadata>
  <g
     inkscape:label="Layer 1"
     inkscape:groupmode="layer"
     id="layer1">
    <g
       id="g45687"
       transform="translate(159,-8)">
      <path
         sodipodi:nodetypes="cccccsssscscc"
         inkscape:connector-curvature="0"
         id="path45640"
         d="m 62.641373,208.66372 c -33.21915,-16.7911 -2.034845,-54.45555 18.296655,-45.35754 -2.081002,4.11241 -4.708176,12.06159 -4.708176,12.06159 l 3.060331,0.55723 c 12.239617,-41.47716 51.325447,-30.26597 59.895907,-7.87376 1.06438,0.97201 2.25766,1.24245 4.516,1.55199 6.54971,0.89774 12.09742,4.12191 15.22536,8.84856 2.357,3.56166 2.75112,5.18094 2.75112,11.30327 0,9.19549 -2.85988,14.00548 -10.6292,17.8771 l -5.26349,2.62291 -39.55365,-0.079 c -31.643109,-0.0632 -40.361079,-0.36563 -43.590857,-1.5124 z"
         style="fill:#e0e2d3;fill-opacity:1" />
      <path
         sodipodi:nodetypes="sccccccs"
         inkscape:connector-curvature="0"
         id="path45633"
         d="m 145.41828,166.51749 c -1.30778,-0.15671 -2.26419,-0.48519 -3.23175,-1.29825 -17.3006,-30.22184 -49.385582,-24.58462 -60.218143,-4.40244 -2.107228,-1.12797 -7.264655,-2.49014 -12.009184,-1.6964 -16.914655,-18.76271 5.950794,-38.65091 23.447766,-30.297 12.726321,-22.54976 46.732981,-13.28885 49.692801,4.80213 16.91792,1.27551 24.45236,20.99813 12.82985,29.96177 -3.79521,2.8433 -6.03229,3.46692 -10.51134,2.93019 z"
         style="fill:#d4d6c8;fill-opacity:1" />
    </g>
    <path
       style="fill:#000000"
       d=""
       id="path45631"
       inkscape:connector-curvature="0" />
    <g
       id="g45682"
       transform="translate(5,154)">
      <path
         inkscape:connector-curvature="0"
         id="path45680"
         d="m 222.56851,207.51589 c -6.21497,-1.94072 -10.65759,-5.75707 -13.61841,-11.69866 -4.56188,-9.1545 -3.01158,-18.35538 4.37774,-25.98154 5.16956,-5.33524 10.69155,-7.32816 18.2836,-6.59867 5.71212,0.54887 6.23465,0.94699 4.78877,3.64865 -0.60971,1.13924 -1.48807,4.10278 -1.95192,6.58564 -0.72017,3.85489 -0.60464,4.5143 0.79088,4.5143 1.14409,0 2.0041,-1.55697 2.86737,-5.19116 2.25166,-9.47896 8.99126,-16.42488 18.80184,-19.37743 6.0605,-1.82395 9.81493,-1.80571 16.15968,0.0785 6.1304,1.82053 14.15145,8.66401 16.65059,14.20609 1.5616,3.46301 2.14383,3.8796 5.6157,4.01805 8.17694,0.32607 15.37988,6.74128 17.4108,15.50671 1.86336,8.0422 -5.03076,18.42203 -13.68258,20.60059 -6.85847,1.72698 -70.80009,1.46697 -76.49406,-0.31105 z"
         style="fill:#dfe1d3;fill-opacity:1" />
      <path
         inkscape:connector-curvature="0"
         id="path45678"
         d="m 307.53806,171.99819 c -2.08273,-1.73947 -2.2056,-2.29928 -1.25558,-5.72037 5.33996,-19.22949 -12.19988,-36.42725 -31.44564,-30.83236 -4.31054,1.25311 -6.89807,2.85287 -10.59664,6.55143 -2.69141,2.69142 -4.89348,5.29368 -4.89348,5.78281 0,0.48914 -1.87997,1.45259 -4.1777,2.14101 -2.29774,0.68841 -5.11024,1.85557 -6.25,2.59368 -1.83481,1.18822 -2.67396,0.97799 -7.3223,-1.83439 -2.8875,-1.74703 -5.25,-3.51796 -5.25,-3.9354 0,-0.41744 3.74656,-0.75899 8.32569,-0.75899 7.54865,0 8.54108,-0.22928 10.63365,-2.45672 2.79138,-2.97129 2.46155,-5.57815 -1.82549,-14.42824 -1.62919,-3.36327 -2.66329,-6.10541 -2.29801,-6.09364 0.36529,0.0118 3.77533,2.03677 7.57786,4.5 3.80254,2.46323 7.98549,4.4786 9.29546,4.4786 4.11396,0 6.75555,-3.79589 8.17692,-11.75 0.71256,-3.9875 1.60261,-7.25 1.97789,-7.25 0.37529,0 1.76529,3.18095 3.0889,7.06878 4.19875,12.33301 8.97637,13.84388 18.75549,5.93122 3.39868,-2.75 6.34785,-5 6.55371,-5 0.20586,0 -0.53817,3.5516 -1.65341,7.89244 -3.25547,12.6713 -0.39297,15.85266 13.14134,14.60517 3.9875,-0.36754 7.23688,-0.29236 7.22085,0.16707 -0.016,0.45943 -2.71722,2.78671 -6.00264,5.17175 -9.79051,7.10738 -9.21902,11.77796 2.28367,18.66357 3.67518,2.2 6.697,4.3375 6.71514,4.75 0.0181,0.4125 -3.53022,0.75 -7.88523,0.75 -4.35502,0 -8.51752,0.21167 -9.25,0.47037 -0.73249,0.2587 -2.37069,-0.39731 -3.64045,-1.45779 z"
         style="fill:#ffb713;fill-opacity:1" />
      <path
         inkscape:connector-curvature="0"
         id="path45674"
         d="m 297.62143,168.0427 c -2.46613,-0.42596 -3.91247,-1.64426 -6.14483,-5.17598 -4.67957,-7.40337 -13.30605,-12.82117 -22.87988,-14.36955 -2.3375,-0.37805 -4.25,-1.0749 -4.25,-1.54857 0,-1.2803 6.08387,-5.68226 10.27171,-7.43205 10.69233,-4.46754 24.03715,1.78479 27.73697,12.99536 1.30762,3.96212 0.9168,14.0413 -0.59387,15.31598 -0.50315,0.42455 -2.36619,0.52121 -4.1401,0.21481 z"
         style="fill:#ffe154;fill-opacity:1" />
    </g>
    <g
       id="g45782"
       transform="translate(226.98128,119.50105)">
      <path
         id="path45780"
         d="m 149.39185,74.456549 c -3.29904,-3.645396 -2.12055,-6.466568 5.54567,-13.275666 3.96036,-3.517576 6.88499,-5.57033 6.49918,-4.561675 -0.38581,1.008654 -0.99735,5.017395 -1.35897,8.908313 -0.71858,7.731645 -2.5993,10.757769 -6.68588,10.757769 -1.28976,0 -3.08976,-0.822933 -4,-1.828741 z"
         style="fill:#39e5ff;fill-opacity:1"
         inkscape:connector-curvature="0" />
      <path
         id="path45778"
         d="m 180.13656,75.519977 c -1.98126,-1.322926 -3.17882,-4.694617 -2.39203,-6.734687 0.42424,-1.1 3.83577,-4.695806 7.58118,-7.990679 3.97846,-3.499886 6.489,-5.162999 6.03818,-4 -0.42442,1.094873 -1.03537,5.099418 -1.35766,8.898988 -0.4063,4.789891 -1.15074,7.47306 -2.42768,8.75 -1.87914,1.879138 -5.46336,2.397544 -7.44199,1.076378 z"
         style="fill:#39e5ff;fill-opacity:1"
         inkscape:connector-curvature="0" />
      <path
         id="path45776"
         d="m 210.13656,75.519977 c -2.20297,-1.470968 -3.50672,-5.166206 -2.4918,-7.062596 1.39664,-2.609652 14.62324,-14.026324 13.82626,-11.93427 -0.36413,0.955801 -0.93046,4.105801 -1.25853,7 -0.89231,7.871812 -1.32811,9.471806 -3.04856,11.192252 -1.64854,1.648541 -5.16114,2.050725 -7.02737,0.804614 z"
         style="fill:#39e5ff;fill-opacity:1"
         inkscape:connector-curvature="0" />
      <path
         id="path45774"
         d="m 132.73686,43.28529 c 0,-1.703704 0.66667,-2 4.5,-2 3.83333,0 4.5,0.296296 4.5,2 0,1.703704 -0.66667,2 -4.5,2 -3.83333,0 -4.5,-0.296296 -4.5,-2 z"
         style="fill:#b5d6dd;fill-opacity:1"
         inkscape:connector-curvature="0" />
      <path
         id="path45772"
         d="m 145.73686,43.28529 c 0,-1.703704 0.66667,-2 4.5,-2 3.83333,0 4.5,0.296296 4.5,2 0,1.703704 -0.66667,2 -4.5,2 -3.83333,0 -4.5,-0.296296 -4.5,-2 z"
         style="fill:#b5d6dd;fill-opacity:1"
         inkscape:connector-curvature="0" />
      <path
         id="path45770"
         d="m 158.73686,43.28529 c 0,-1.703704 0.66667,-2 4.5,-2 3.83333,0 4.5,0.296296 4.5,2 0,1.703704 -0.66667,2 -4.5,2 -3.83333,0 -4.5,-0.296296 -4.5,-2 z"
         style="fill:#b5d6dd;fill-opacity:1"
         inkscape:connector-curvature="0" />
      <path
         id="path45768"
         d="m 171.73686,43.28529 c 0,-1.703704 0.66667,-2 4.5,-2 3.83333,0 4.5,0.296296 4.5,2 0,1.703704 -0.66667,2 -4.5,2 -3.83333,0 -4.5,-0.296296 -4.5,-2 z"
         style="fill:#b5d6dd;fill-opacity:1"
         inkscape:connector-curvature="0" />
      <path
         id="path45766"
         d="m 185.73686,43.28529 c 0,-1.703704 0.66667,-2 4.5,-2 3.83333,0 4.5,0.296296 4.5,2 0,1.703704 -0.66667,2 -4.5,2 -3.83333,0 -4.5,-0.296296 -4.5,-2 z"
         style="fill:#b5d6dd;fill-opacity:1"
         inkscape:connector-curvature="0" />
      <path
         id="path45764"
         d="m 198.73686,43.28529 c 0,-1.703704 0.66667,-2 4.5,-2 3.83333,0 4.5,0.296296 4.5,2 0,1.703704 -0.66667,2 -4.5,2 -3.83333,0 -4.5,-0.296296 -4.5,-2 z"
         style="fill:#b5d6dd;fill-opacity:1"
         inkscape:connector-curvature="0" />
      <path
         id="path45762"
         d="m 211.73686,43.28529 c 0,-1.703704 0.66667,-2 4.5,-2 3.83333,0 4.5,0.296296 4.5,2 0,1.703704 -0.66667,2 -4.5,2 -3.83333,0 -4.5,-0.296296 -4.5,-2 z"
         style="fill:#b5d6dd;fill-opacity:1"
         inkscape:connector-curvature="0" />
      <path
         id="path45760"
         d="m 224.73686,43.28529 c 0,-1.703704 0.66667,-2 4.5,-2 3.83333,0 4.5,0.296296 4.5,2 0,1.703704 -0.66667,2 -4.5,2 -3.83333,0 -4.5,-0.296296 -4.5,-2 z"
         style="fill:#b5d6dd;fill-opacity:1"
         inkscape:connector-curvature="0" />
      <path
         id="path45758"
         d="m 237.73686,43.28529 c 0,-1.466667 0.66667,-2 2.5,-2 1.83333,0 2.5,0.533333 2.5,2 0,1.466667 -0.66667,2 -2.5,2 -1.83333,0 -2.5,-0.533333 -2.5,-2 z"
         style="fill:#b5d6dd;fill-opacity:1"
         inkscape:connector-curvature="0" />
      <path
         id="path45756"
         d="m 122.73686,30.28529 c 0,-1.703704 0.66667,-2 4.5,-2 3.83333,0 4.5,0.296296 4.5,2 0,1.703704 -0.66667,2 -4.5,2 -3.83333,0 -4.5,-0.296296 -4.5,-2 z"
         style="fill:#b5d6dd;fill-opacity:1"
         inkscape:connector-curvature="0" />
      <path
         id="path45754"
         d="m 135.73686,30.28529 c 0,-1.703704 0.66667,-2 4.5,-2 3.83333,0 4.5,0.296296 4.5,2 0,1.703704 -0.66667,2 -4.5,2 -3.83333,0 -4.5,-0.296296 -4.5,-2 z"
         style="fill:#b5d6dd;fill-opacity:1"
         inkscape:connector-curvature="0" />
      <path
         id="path45752"
         d="m 148.73686,30.28529 c 0,-1.703704 0.66667,-2 4.5,-2 3.83333,0 4.5,0.296296 4.5,2 0,1.703704 -0.66667,2 -4.5,2 -3.83333,0 -4.5,-0.296296 -4.5,-2 z"
         style="fill:#b5d6dd;fill-opacity:1"
         inkscape:connector-curvature="0" />
      <path
         id="path45750"
         d="m 161.73686,30.28529 c 0,-1.703704 0.66667,-2 4.5,-2 3.83333,0 4.5,0.296296 4.5,2 0,1.703704 -0.66667,2 -4.5,2 -3.83333,0 -4.5,-0.296296 -4.5,-2 z"
         style="fill:#b5d6dd;fill-opacity:1"
         inkscape:connector-curvature="0" />
      <path
         id="path45748"
         d="m 175.73686,30.28529 c 0,-1.703704 0.66667,-2 4.5,-2 3.83333,0 4.5,0.296296 4.5,2 0,1.703704 -0.66667,2 -4.5,2 -3.83333,0 -4.5,-0.296296 -4.5,-2 z"
         style="fill:#b5d6dd;fill-opacity:1"
         inkscape:connector-curvature="0" />
      <path
         id="path45746"
         d="m 188.73686,30.28529 c 0,-1.703704 0.66667,-2 4.5,-2 3.83333,0 4.5,0.296296 4.5,2 0,1.703704 -0.66667,2 -4.5,2 -3.83333,0 -4.5,-0.296296 -4.5,-2 z"
         style="fill:#b5d6dd;fill-opacity:1"
         inkscape:connector-curvature="0" />
      <path
         id="path45744"
         d="m 201.73686,30.28529 c 0,-1.703704 0.66667,-2 4.5,-2 3.83333,0 4.5,0.296296 4.5,2 0,1.703704 -0.66667,2 -4.5,2 -3.83333,0 -4.5,-0.296296 -4.5,-2 z"
         style="fill:#b5d6dd;fill-opacity:1"
         inkscape:connector-curvature="0" />
      <path
         id="path45742"
         d="m 214.73686,30.28529 c 0,-1.703704 0.66667,-2 4.5,-2 3.83333,0 4.5,0.296296 4.5,2 0,1.703704 -0.66667,2 -4.5,2 -3.83333,0 -4.5,-0.296296 -4.5,-2 z"
         style="fill:#b5d6dd;fill-opacity:1"
         inkscape:connector-curvature="0" />
      <path
         id="path45740"
         d="m 227.73686,30.28529 c 0,-1.466667 0.66667,-2 2.5,-2 1.83333,0 2.5,0.533333 2.5,2 0,1.466667 -0.66667,2 -2.5,2 -1.83333,0 -2.5,-0.533333 -2.5,-2 z"
         style="fill:#b5d6dd;fill-opacity:1"
         inkscape:connector-curvature="0" />
      <path
         id="path45738"
         d="m 136.73686,17.28529 c 0,-1.7037 0.66667,-2 4.5,-2 3.83333,0 4.5,0.2963 4.5,2 0,1.7037 -0.66667,2 -4.5,2 -3.83333,0 -4.5,-0.2963 -4.5,-2 z"
         style="fill:#b5d6dd;fill-opacity:1"
         inkscape:connector-curvature="0" />
      <path
         id="path45736"
         d="m 149.73686,17.28529 c 0,-1.7037 0.66667,-2 4.5,-2 3.83333,0 4.5,0.2963 4.5,2 0,1.7037 -0.66667,2 -4.5,2 -3.83333,0 -4.5,-0.2963 -4.5,-2 z"
         style="fill:#b5d6dd;fill-opacity:1"
         inkscape:connector-curvature="0" />
      <path
         id="path45734"
         d="m 162.73686,17.28529 c 0,-1.7037 0.66667,-2 4.5,-2 3.83333,0 4.5,0.2963 4.5,2 0,1.7037 -0.66667,2 -4.5,2 -3.83333,0 -4.5,-0.2963 -4.5,-2 z"
         style="fill:#b5d6dd;fill-opacity:1"
         inkscape:connector-curvature="0" />
      <path
         id="path45732"
         d="m 175.73686,17.28529 c 0,-1.7037 0.66667,-2 4.5,-2 3.83333,0 4.5,0.2963 4.5,2 0,1.7037 -0.66667,2 -4.5,2 -3.83333,0 -4.5,-0.2963 -4.5,-2 z"
         style="fill:#b5d6dd;fill-opacity:1"
         inkscape:connector-curvature="0" />
      <path
         id="path45730"
         d="m 189.73686,17.28529 c 0,-1.7037 0.66667,-2 4.5,-2 3.83333,0 4.5,0.2963 4.5,2 0,1.7037 -0.66667,2 -4.5,2 -3.83333,0 -4.5,-0.2963 -4.5,-2 z"
         style="fill:#b5d6dd;fill-opacity:1"
         inkscape:connector-curvature="0" />
      <path
         id="path45728"
         d="m 202.73686,17.28529 c 0,-1.7037 0.66667,-2 4.5,-2 3.83333,0 4.5,0.2963 4.5,2 0,1.7037 -0.66667,2 -4.5,2 -3.83333,0 -4.5,-0.2963 -4.5,-2 z"
         style="fill:#b5d6dd;fill-opacity:1"
         inkscape:connector-curvature="0" />
      <path
         id="path45726"
         d="m 215.73686,17.28529 c 0,-1.7037 0.66667,-2 4.5,-2 3.83333,0 4.5,0.2963 4.5,2 0,1.7037 -0.66667,2 -4.5,2 -3.83333,0 -4.5,-0.2963 -4.5,-2 z"
         style="fill:#b5d6dd;fill-opacity:1"
         inkscape:connector-curvature="0" />
      <path
         id="path45724"
         d="m 228.73686,17.28529 c 0,-1.7037 0.66667,-2 4.5,-2 3.83333,0 4.5,0.2963 4.5,2 0,1.7037 -0.66667,2 -4.5,2 -3.83333,0 -4.5,-0.2963 -4.5,-2 z"
         style="fill:#b5d6dd;fill-opacity:1"
         inkscape:connector-curvature="0" />
      <path
         id="path45722"
         d="m 241.73686,17.28529 c 0,-1.46667 0.66667,-2 2.5,-2 1.83333,0 2.5,0.53333 2.5,2 0,1.46667 -0.66667,2 -2.5,2 -1.83333,0 -2.5,-0.53333 -2.5,-2 z"
         style="fill:#b5d6dd;fill-opacity:1"
         inkscape:connector-curvature="0" />
      <path
         id="path45720"
         d="m 125.73686,4.2852895 c 0,-1.7037 0.66667,-2 4.5,-2 3.83333,0 4.5,0.2963 4.5,2 0,1.7037 -0.66667,2 -4.5,2 -3.83333,0 -4.5,-0.2963 -4.5,-2 z"
         style="fill:#b5d6dd;fill-opacity:1"
         inkscape:connector-curvature="0" />
      <path
         id="path45718"
         d="m 138.73686,4.2852895 c 0,-1.7037 0.66667,-2 4.5,-2 3.83333,0 4.5,0.2963 4.5,2 0,1.7037 -0.66667,2 -4.5,2 -3.83333,0 -4.5,-0.2963 -4.5,-2 z"
         style="fill:#b5d6dd;fill-opacity:1"
         inkscape:connector-curvature="0" />
      <path
         id="path45716"
         d="m 151.73686,4.2852895 c 0,-1.7037 0.66667,-2 4.5,-2 3.83333,0 4.5,0.2963 4.5,2 0,1.7037 -0.66667,2 -4.5,2 -3.83333,0 -4.5,-0.2963 -4.5,-2 z"
         style="fill:#b5d6dd;fill-opacity:1"
         inkscape:connector-curvature="0" />
      <path
         id="path45714"
         d="m 164.73686,4.2852895 c 0,-1.7037 0.66667,-2 4.5,-2 3.83333,0 4.5,0.2963 4.5,2 0,1.7037 -0.66667,2 -4.5,2 -3.83333,0 -4.5,-0.2963 -4.5,-2 z"
         style="fill:#b5d6dd;fill-opacity:1"
         inkscape:connector-curvature="0" />
      <path
         id="path45712"
         d="m 178.73686,4.2852895 c 0,-1.7037 0.66667,-2 4.5,-2 3.83333,0 4.5,0.2963 4.5,2 0,1.7037 -0.66667,2 -4.5,2 -3.83333,0 -4.5,-0.2963 -4.5,-2 z"
         style="fill:#b5d6dd;fill-opacity:1"
         inkscape:connector-curvature="0" />
      <path
         id="path45710"
         d="m 191.73686,4.2852895 c 0,-1.7037 0.66667,-2 4.5,-2 3.83333,0 4.5,0.2963 4.5,2 0,1.7037 -0.66667,2 -4.5,2 -3.83333,0 -4.5,-0.2963 -4.5,-2 z"
         style="fill:#b5d6dd;fill-opacity:1"
         inkscape:connector-curvature="0" />
      <path
         id="path45708"
         d="m 204.73686,4.2852895 c 0,-1.7037 0.66667,-2 4.5,-2 3.83333,0 4.5,0.2963 4.5,2 0,1.7037 -0.66667,2 -4.5,2 -3.83333,0 -4.5,-0.2963 -4.5,-2 z"
         style="fill:#b5d6dd;fill-opacity:1"
         inkscape:connector-curvature="0" />
      <path
         id="path45706"
         d="m 217.73686,4.2852895 c 0,-1.7037 0.66667,-2 4.5,-2 3.83333,0 4.5,0.2963 4.5,2 0,1.7037 -0.66667,2 -4.5,2 -3.83333,0 -4.5,-0.2963 -4.5,-2 z"
         style="fill:#b5d6dd;fill-opacity:1"
         inkscape:connector-curvature="0" />
      <path
         id="path45702"
         d="m 230.73686,4.2852895 c 0,-1.46667 0.66667,-2 2.5,-2 1.83333,0 2.5,0.53333 2.5,2 0,1.46667 -0.66667,2 -2.5,2 -1.83333,0 -2.5,-0.53333 -2.5,-2 z"
         style="fill:#b5d6dd;fill-opacity:1"
         inkscape:connector-curvature="0" />
    </g>
    <g
       id="g45848"
       transform="translate(283,-293)">
      <path
         id="path45846"
         d="m 250.98298,505.1998 c -2.9605,-3.27131 -2.00256,-6.01643 4.09501,-11.73494 5.97028,-5.59913 7.95312,-6.67806 6.77463,-3.68632 -0.37915,0.9625 -0.93007,4.225 -1.22427,7.25 -0.29421,3.025 -1.16752,6.5125 -1.94069,7.75 -1.70742,2.7328 -5.42864,2.93626 -7.70468,0.42126 z"
         style="fill:#39e5ff;fill-opacity:1"
         inkscape:connector-curvature="0" />
      <path
         id="path45844"
         d="m 277.32544,505.52546 c -2.71473,-3.27104 -1.46331,-6.53452 4.62755,-12.06784 6.15128,-5.58821 8.06531,-6.61117 6.88381,-3.67908 -0.38785,0.9625 -1.06938,4.57876 -1.51453,8.03612 -0.44514,3.45737 -1.35606,6.94487 -2.02426,7.75 -1.58122,1.90526 -6.3784,1.88167 -7.97257,-0.0392 z"
         style="fill:#39e5ff;fill-opacity:1"
         inkscape:connector-curvature="0" />
      <path
         id="path45842"
         d="m 303.76812,504.5775 c -2.26272,-3.45334 -1.23953,-5.55373 5.60593,-11.50772 l 5.99138,-5.21115 -0.58194,5.83495 c -0.32007,3.20923 -0.77917,6.81599 -1.02022,8.01503 -1.08561,5.39997 -7.1889,7.15179 -9.99516,2.86889 z"
         style="fill:#39e5ff;fill-opacity:1"
         inkscape:connector-curvature="0" />
      <path
         id="path45840"
         d="m 250.82799,481.13268 c -4.90158,-2.26936 -8.8875,-6.39185 -10.94695,-11.32202 -5.66519,-13.56204 6.32215,-29.18344 21.11493,-27.51608 5.27231,0.59427 5.79639,0.9875 4.52917,3.39831 -0.53069,1.00961 -1.2817,3.74815 -1.66892,6.08565 -0.58165,3.51125 -0.42801,4.25 0.88387,4.25 0.97715,0 1.59166,-0.86541 1.59767,-2.25 0.0172,-3.9678 4.61289,-12.29304 8.61123,-15.59959 3.7824,-3.12797 11.58566,-6.15041 15.879,-6.15041 7.97868,0 18.78254,6.71319 22.48566,13.97189 1.70331,3.33877 2.42234,3.81399 6.45913,4.269 8.05191,0.90756 14.55521,8.03332 14.55521,15.94835 0,5.30194 -3.8944,11.96374 -8.5,14.54019 -3.92033,2.1931 -4.66723,2.23756 -37.5,2.23216 -30.49362,-0.005 -33.85897,-0.17171 -37.5,-1.85745 z"
         style="fill:#dfe1d3;fill-opacity:1"
         inkscape:connector-curvature="0" />
      <path
         id="path45838"
         d="m 329.04744,450.64309 c -1.5617,-1.21013 -1.6475,-1.97341 -0.69806,-6.20998 2.52639,-11.27328 -3.30532,-22.50654 -13.75695,-26.49913 -4.55175,-1.73879 -13.68609,-1.24114 -18.04613,0.98319 -3.86508,1.97181 -10.21831,8.28019 -10.21831,10.14617 0,0.53086 -0.80485,0.9652 -1.78856,0.9652 -0.98371,0 -3.52817,0.88691 -5.65437,1.97091 l -3.86582,1.9709 -4.84461,-2.7209 c -2.66453,-1.4965 -4.84506,-3.05841 -4.84562,-3.47091 -5.6e-4,-0.4125 3.37398,-0.75 7.49898,-0.75 6.16667,0 7.85556,-0.35556 9.5,-2 2.6792,-2.6792 2.53349,-4.36897 -1.02547,-11.89198 -1.66314,-3.51559 -2.83931,-6.57658 -2.6137,-6.80219 0.22562,-0.22561 3.23149,1.41328 6.67972,3.64198 10.11699,6.53893 13.78606,5.07073 15.94689,-6.38124 0.69661,-3.69191 1.60024,-6.34221 2.00807,-5.88957 0.40783,0.45265 1.54946,2.99361 2.53695,5.64658 4.1443,11.13388 8.13359,12.32857 17.01414,5.09526 3.09343,-2.51963 5.79444,-4.41114 6.00224,-4.20334 0.2078,0.2078 -0.28068,2.56584 -1.08551,5.24009 -3.77161,12.53211 -1.13698,16.26336 10.66254,15.10066 4.42037,-0.43557 6.95382,-0.33631 6.73116,0.26372 -0.19637,0.52919 -2.71953,2.82165 -5.60703,5.09435 -4.49594,3.53868 -5.25,4.62113 -5.25,7.53635 0,3.78569 1.69059,5.51577 9.37161,9.59054 2.54561,1.35044 4.62839,2.79363 4.62839,3.20707 0,0.41345 -3.0375,0.75786 -6.75,0.76537 -3.7125,0.007 -7.65,0.23122 -8.75,0.49714 -1.1,0.26591 -2.80125,-0.1374 -3.78055,-0.89624 z"
         style="fill:#ffb713;fill-opacity:1"
         inkscape:connector-curvature="0" />
      <path
         id="path45834"
         d="m 314.66824,441.93906 c -4.59932,-6.40191 -10.91405,-10.53754 -18.47418,-12.09906 -5.038,-1.04058 -5.62046,-1.40187 -4.78294,-2.96679 0.52451,-0.98006 3.06239,-3.01772 5.63973,-4.52815 5.44924,-3.19346 12.87166,-3.6118 17.90464,-1.00915 7.58687,3.92333 12.35907,13.34309 10.7191,21.15823 -0.75496,3.59769 -1.19389,4.06798 -4.05498,4.34465 -2.85988,0.27656 -3.61493,-0.25565 -6.95137,-4.89973 z"
         style="fill:#ffe154;fill-opacity:1"
         inkscape:connector-curvature="0" />
    </g>
    <g
       id="g45876"
       transform="translate(284,-153)">
      <path
         id="path45873"
         d="m 445.85547,256.64844 c -0.49015,-0.16338 -1.93569,3.48836 -3.21289,8.11718 -2.33517,8.46308 -4.53405,11.73008 -8.75977,13.00782 -2.99578,0.90585 -6.67101,-0.73252 -14.63281,-6.52344 -3.81162,-2.77234 -7.10764,-4.86307 -7.32422,-4.64648 -0.21659,0.21659 0.93627,3.51311 2.5625,7.32617 3.85147,9.03062 3.97156,14.53185 0.37695,17.35937 -2.2807,1.794 -4.02806,2.07227 -13,2.07227 -5.70083,0 -10.34957,0.3375 -10.33007,0.75 0.0196,0.4125 2.98507,2.55 6.58984,4.75 8.66258,5.28679 11.74317,8.9072 10.95117,12.86719 -0.81203,4.06016 -2.87321,6.12599 -10.82422,10.8496 -3.71371,2.20628 -6.75195,4.47787 -6.75195,5.04688 0,0.67777 2.89997,0.83013 8.4082,0.44141 17.73326,-1.25145 21.08146,3.42443 14.35352,20.04492 -1.3915,3.4375 -2.06104,6.25 -1.48828,6.25 0.57276,0 3.33395,-1.7457 6.13476,-3.88086 5.80227,-4.42328 10.75808,-7.11914 13.0918,-7.11914 2.73586,0 7.0615,2.74276 8.16406,5.17578 0.57948,1.27875 1.89231,5.59167 2.91797,9.58398 1.99469,7.76426 3.41665,8.72356 4.58594,3.09571 1.70001,-8.18222 4.94472,-14.86079 7.98242,-16.43164 4.24787,-2.19666 7.64848,-1.13315 16.35742,5.11523 4.12051,2.95634 7.49219,4.97484 7.49219,4.48633 0,-0.4885 -1.3688,-4.59946 -3.04102,-9.13477 -5.301,-14.37706 -2.74775,-17.55305 13.75196,-17.11718 5.65913,0.1495 10.28811,-0.0755 10.28711,-0.5 -0.001,-0.4245 -2.9713,-2.57344 -6.59961,-4.77344 -10.30072,-6.24576 -13.72544,-11.86284 -10.11719,-16.59766 1.37334,-1.80213 14.64849,-10.90234 15.9043,-10.90234 0.44764,0 0.81445,-0.45 0.81445,-1 0,-0.59969 -3.98449,-1 -9.95312,-1 -11.16885,0 -14.39426,-1.00813 -16.05665,-5.02149 -1.25235,-3.02345 -0.71542,-5.75901 2.89258,-14.76562 1.16488,-2.90786 2.11719,-5.74663 2.11719,-6.3086 0,-0.56195 -2.8125,1.05607 -6.25,3.59376 -3.4375,2.53768 -7.71568,5.27025 -9.50781,6.07421 -6.82179,3.06026 -11.45512,-0.78388 -14.76172,-12.24804 -1.22808,-4.25782 -2.63484,-7.87372 -3.125,-8.03711 z M 445.5,282.88086 c 7.1091,-0.0156 9.29819,0.38964 13.37695,2.47266 6.66641,3.40453 12.28664,10.04212 14.26563,16.8496 3.88206,13.35384 -1.71855,27.0722 -13.71875,33.60352 -5.55465,3.02322 -15.86831,4.34416 -20.92383,2.67969 -14.09022,-4.63905 -21.79747,-15.7702 -20.77539,-30.00781 0.57011,-7.94162 3.14036,-13.40799 8.64258,-18.37891 6.76069,-6.10788 9.65281,-7.19795 19.13281,-7.21875 z"
         style="fill:#ffb713;fill-opacity:1"
         inkscape:connector-curvature="0" />
      <path
         id="path45867"
         d="m 438.13364,335.33162 c -6.64911,-1.99189 -13.88169,-9.09653 -16.57775,-16.28451 -0.58074,-1.5483 -1.04601,-5.3733 -1.03393,-8.5 0.0546,-14.13941 11.24466,-25.21438 25.42438,-25.16294 13.59233,0.0493 24.18811,9.97493 25.35776,23.75392 1.44555,17.02923 -16.48838,31.19103 -33.17046,26.19353 z"
         style="fill:#ffe154;fill-opacity:1"
         inkscape:connector-curvature="0" />
    </g>
    <path
       style="fill:#b5d6dd;fill-opacity:1"
       d="m 826.72661,190.59396 c 0,-1.7037 0.66667,-2 4.5,-2 3.83333,0 4.5,0.2963 4.5,2 0,1.7037 -0.66667,2 -4.5,2 -3.83333,0 -4.5,-0.2963 -4.5,-2 z m 13,0 c 0,-1.7037 0.66667,-2 4.5,-2 3.83333,0 4.5,0.2963 4.5,2 0,1.7037 -0.66667,2 -4.5,2 -3.83333,0 -4.5,-0.2963 -4.5,-2 z m 13,0 c 0,-1.7037 0.66667,-2 4.5,-2 3.83333,0 4.5,0.2963 4.5,2 0,1.7037 -0.66667,2 -4.5,2 -3.83333,0 -4.5,-0.2963 -4.5,-2 z m 13,0 c 0,-1.7037 0.66667,-2 4.5,-2 3.83333,0 4.5,0.2963 4.5,2 0,1.7037 -0.66667,2 -4.5,2 -3.83333,0 -4.5,-0.2963 -4.5,-2 z m 14,0 c 0,-1.7037 0.66667,-2 4.5,-2 3.83333,0 4.5,0.2963 4.5,2 0,1.7037 -0.66667,2 -4.5,2 -3.83333,0 -4.5,-0.2963 -4.5,-2 z m 13,0 c 0,-1.7037 0.66667,-2 4.5,-2 3.83333,0 4.5,0.2963 4.5,2 0,1.7037 -0.66667,2 -4.5,2 -3.83333,0 -4.5,-0.2963 -4.5,-2 z m 13,0 c 0,-1.7037 0.66667,-2 4.5,-2 3.83333,0 4.5,0.2963 4.5,2 0,1.7037 -0.66667,2 -4.5,2 -3.83333,0 -4.5,-0.2963 -4.5,-2 z m 13,0 c 0,-1.7037 0.66667,-2 4.5,-2 3.83333,0 4.5,0.2963 4.5,2 0,1.7037 -0.66667,2 -4.5,2 -3.83333,0 -4.5,-0.2963 -4.5,-2 z m 13,0 c 0,-1.46667 0.66667,-2 2.5,-2 1.83333,0 2.5,0.53333 2.5,2 0,1.46667 -0.66667,2 -2.5,2 -1.83333,0 -2.5,-0.53333 -2.5,-2 z m -115,-13 c 0,-1.7037 0.66667,-2 4.5,-2 3.83333,0 4.5,0.2963 4.5,2 0,1.7037 -0.66667,2 -4.5,2 -3.83333,0 -4.5,-0.2963 -4.5,-2 z m 13,0 c 0,-1.7037 0.66667,-2 4.5,-2 3.83333,0 4.5,0.2963 4.5,2 0,1.7037 -0.66667,2 -4.5,2 -3.83333,0 -4.5,-0.2963 -4.5,-2 z m 13,0 c 0,-1.7037 0.66667,-2 4.5,-2 3.83333,0 4.5,0.2963 4.5,2 0,1.7037 -0.66667,2 -4.5,2 -3.83333,0 -4.5,-0.2963 -4.5,-2 z m 13,0 c 0,-1.7037 0.66667,-2 4.5,-2 3.83333,0 4.5,0.2963 4.5,2 0,1.7037 -0.66667,2 -4.5,2 -3.83333,0 -4.5,-0.2963 -4.5,-2 z m 14,0 c 0,-1.7037 0.66667,-2 4.5,-2 3.83333,0 4.5,0.2963 4.5,2 0,1.7037 -0.66667,2 -4.5,2 -3.83333,0 -4.5,-0.2963 -4.5,-2 z m 13,0 c 0,-1.7037 0.66667,-2 4.5,-2 3.83333,0 4.5,0.2963 4.5,2 0,1.7037 -0.66667,2 -4.5,2 -3.83333,0 -4.5,-0.2963 -4.5,-2 z m 13,0 c 0,-1.7037 0.66667,-2 4.5,-2 3.83333,0 4.5,0.2963 4.5,2 0,1.7037 -0.66667,2 -4.5,2 -3.83333,0 -4.5,-0.2963 -4.5,-2 z m 13,0 c 0,-1.7037 0.66667,-2 4.5,-2 3.83333,0 4.5,0.2963 4.5,2 0,1.7037 -0.66667,2 -4.5,2 -3.83333,0 -4.5,-0.2963 -4.5,-2 z m 13,0 c 0,-1.46667 0.66667,-2 2.5,-2 1.83333,0 2.5,0.53333 2.5,2 0,1.46667 -0.66667,2 -2.5,2 -1.83333,0 -2.5,-0.53333 -2.5,-2 z m -91,-13 c 0,-1.7037 0.66667,-2 4.5,-2 3.83333,0 4.5,0.2963 4.5,2 0,1.7037 -0.66667,2 -4.5,2 -3.83333,0 -4.5,-0.2963 -4.5,-2 z m 13,0 c 0,-1.7037 0.66667,-2 4.5,-2 3.83333,0 4.5,0.2963 4.5,2 0,1.7037 -0.66667,2 -4.5,2 -3.83333,0 -4.5,-0.2963 -4.5,-2 z m 13,0 c 0,-1.7037 0.66667,-2 4.5,-2 3.83333,0 4.5,0.2963 4.5,2 0,1.7037 -0.66667,2 -4.5,2 -3.83333,0 -4.5,-0.2963 -4.5,-2 z m 13,0 c 0,-1.7037 0.66667,-2 4.5,-2 3.83333,0 4.5,0.2963 4.5,2 0,1.7037 -0.66667,2 -4.5,2 -3.83333,0 -4.5,-0.2963 -4.5,-2 z m 14,0 c 0,-1.7037 0.66667,-2 4.5,-2 3.83333,0 4.5,0.2963 4.5,2 0,1.7037 -0.66667,2 -4.5,2 -3.83333,0 -4.5,-0.2963 -4.5,-2 z m 13,0 c 0,-1.7037 0.66667,-2 4.5,-2 3.83333,0 4.5,0.2963 4.5,2 0,1.7037 -0.66667,2 -4.5,2 -3.83333,0 -4.5,-0.2963 -4.5,-2 z m 13,0 c 0,-1.7037 0.66667,-2 4.5,-2 3.83333,0 4.5,0.2963 4.5,2 0,1.7037 -0.66667,2 -4.5,2 -3.83333,0 -4.5,-0.2963 -4.5,-2 z m 13,0 c 0,-1.7037 0.66667,-2 4.5,-2 3.83333,0 4.5,0.2963 4.5,2 0,1.7037 -0.66667,2 -4.5,2 -3.83333,0 -4.5,-0.2963 -4.5,-2 z m 13,0 c 0,-1.46667 0.66667,-2 2.5,-2 1.83333,0 2.5,0.53333 2.5,2 0,1.46667 -0.66667,2 -2.5,2 -1.83333,0 -2.5,-0.53333 -2.5,-2 z m -114,-13 c 0,-1.7037 0.66667,-2 4.5,-2 3.83333,0 4.5,0.2963 4.5,2 0,1.7037 -0.66667,2 -4.5,2 -3.83333,0 -4.5,-0.2963 -4.5,-2 z m 13,0 c 0,-1.7037 0.66667,-2 4.5,-2 3.83333,0 4.5,0.2963 4.5,2 0,1.7037 -0.66667,2 -4.5,2 -3.83333,0 -4.5,-0.2963 -4.5,-2 z m 13,0 c 0,-1.7037 0.66667,-2 4.5,-2 3.83333,0 4.5,0.2963 4.5,2 0,1.7037 -0.66667,2 -4.5,2 -3.83333,0 -4.5,-0.2963 -4.5,-2 z m 13,0 c 0,-1.7037 0.66667,-2 4.5,-2 3.83333,0 4.5,0.2963 4.5,2 0,1.7037 -0.66667,2 -4.5,2 -3.83333,0 -4.5,-0.2963 -4.5,-2 z m 14,0 c 0,-1.7037 0.66667,-2 4.5,-2 3.83333,0 4.5,0.2963 4.5,2 0,1.7037 -0.66667,2 -4.5,2 -3.83333,0 -4.5,-0.2963 -4.5,-2 z m 13,0 c 0,-1.7037 0.66667,-2 4.5,-2 3.83333,0 4.5,0.2963 4.5,2 0,1.7037 -0.66667,2 -4.5,2 -3.83333,0 -4.5,-0.2963 -4.5,-2 z m 13,0 c 0,-1.7037 0.66667,-2 4.5,-2 3.83333,0 4.5,0.2963 4.5,2 0,1.7037 -0.66667,2 -4.5,2 -3.83333,0 -4.5,-0.2963 -4.5,-2 z m 13,0 c 0,-1.7037 0.66667,-2 4.5,-2 3.83333,0 4.5,0.2963 4.5,2 0,1.7037 -0.66667,2 -4.5,2 -3.83333,0 -4.5,-0.2963 -4.5,-2 z m 13,0 c 0,-1.46667 0.66667,-2 2.5,-2 1.83333,0 2.5,0.53333 2.5,2 0,1.46667 -0.66667,2 -2.5,2 -1.83333,0 -2.5,-0.53333 -2.5,-2 z m -110,-13 c 0,-1.7037 0.66667,-2 4.5,-2 3.83333,0 4.5,0.2963 4.5,2 0,1.7037 -0.66667,2 -4.5,2 -3.83333,0 -4.5,-0.2963 -4.5,-2 z m 13,0 c 0,-1.7037 0.66667,-2 4.5,-2 3.83333,0 4.5,0.2963 4.5,2 0,1.7037 -0.66667,2 -4.5,2 -3.83333,0 -4.5,-0.2963 -4.5,-2 z m 13,0 c 0,-1.7037 0.66667,-2 4.5,-2 3.83333,0 4.5,0.2963 4.5,2 0,1.7037 -0.66667,2 -4.5,2 -3.83333,0 -4.5,-0.2963 -4.5,-2 z m 13,0 c 0,-1.7037 0.66667,-2 4.5,-2 3.83333,0 4.5,0.2963 4.5,2 0,1.7037 -0.66667,2 -4.5,2 -3.83333,0 -4.5,-0.2963 -4.5,-2 z m 14,0 c 0,-1.7037 0.66667,-2 4.5,-2 3.83333,0 4.5,0.2963 4.5,2 0,1.7037 -0.66667,2 -4.5,2 -3.83333,0 -4.5,-0.2963 -4.5,-2 z m 13,0 c 0,-1.7037 0.66667,-2 4.5,-2 3.83333,0 4.5,0.2963 4.5,2 0,1.7037 -0.66667,2 -4.5,2 -3.83333,0 -4.5,-0.2963 -4.5,-2 z m 13,0 c 0,-1.7037 0.66667,-2 4.5,-2 3.83333,0 4.5,0.2963 4.5,2 0,1.7037 -0.66667,2 -4.5,2 -3.83333,0 -4.5,-0.2963 -4.5,-2 z m 13,0 c 0,-1.7037 0.66667,-2 4.5,-2 3.83333,0 4.5,0.2963 4.5,2 0,1.7037 -0.66667,2 -4.5,2 -3.83333,0 -4.5,-0.2963 -4.5,-2 z m 13,0 c 0,-1.46667 0.66667,-2 2.5,-2 1.83333,0 2.5,0.53333 2.5,2 0,1.46667 -0.66667,2 -2.5,2 -1.83333,0 -2.5,-0.53333 -2.5,-2 z m -91,-13 c 0,-1.7037 0.66667,-2 4.5,-2 3.83333,0 4.5,0.2963 4.5,2 0,1.7037 -0.66667,2 -4.5,2 -3.83333,0 -4.5,-0.2963 -4.5,-2 z m 13,0 c 0,-1.7037 0.66667,-2 4.5,-2 3.83333,0 4.5,0.2963 4.5,2 0,1.7037 -0.66667,2 -4.5,2 -3.83333,0 -4.5,-0.2963 -4.5,-2 z m 13,0 c 0,-1.7037 0.66667,-2 4.5,-2 3.83333,0 4.5,0.2963 4.5,2 0,1.7037 -0.66667,2 -4.5,2 -3.83333,0 -4.5,-0.2963 -4.5,-2 z m 13,0 c 0,-1.7037 0.66667,-2 4.5,-2 3.83333,0 4.5,0.2963 4.5,2 0,1.7037 -0.66667,2 -4.5,2 -3.83333,0 -4.5,-0.2963 -4.5,-2 z m 14,0 c 0,-1.7037 0.66667,-2 4.5,-2 3.83333,0 4.5,0.2963 4.5,2 0,1.7037 -0.66667,2 -4.5,2 -3.83333,0 -4.5,-0.2963 -4.5,-2 z m 13,0 c 0,-1.7037 0.66667,-2 4.5,-2 3.83333,0 4.5,0.2963 4.5,2 0,1.7037 -0.66667,2 -4.5,2 -3.83333,0 -4.5,-0.2963 -4.5,-2 z m 13,0 c 0,-1.7037 0.66667,-2 4.5,-2 3.83333,0 4.5,0.2963 4.5,2 0,1.7037 -0.66667,2 -4.5,2 -3.83333,0 -4.5,-0.2963 -4.5,-2 z m 13,0 c 0,-1.7037 0.66667,-2 4.5,-2 3.83333,0 4.5,0.2963 4.5,2 0,1.7037 -0.66667,2 -4.5,2 -3.83333,0 -4.5,-0.2963 -4.5,-2 z m 13,0 c 0,-1.46667 0.66667,-2 2.5,-2 1.83333,0 2.5,0.53333 2.5,2 0,1.46667 -0.66667,2 -2.5,2 -1.83333,0 -2.5,-0.53333 -2.5,-2 z m -119,-13 c 0,-1.7037 0.66667,-2 4.5,-2 3.83333,0 4.5,0.2963 4.5,2 0,1.7037 -0.66667,2 -4.5,2 -3.83333,0 -4.5,-0.2963 -4.5,-2 z m 13,0 c 0,-1.7037 0.66667,-2 4.5,-2 3.83333,0 4.5,0.2963 4.5,2 0,1.7037 -0.66667,2 -4.5,2 -3.83333,0 -4.5,-0.2963 -4.5,-2 z m 13,0 c 0,-1.7037 0.66667,-2 4.5,-2 3.83333,0 4.5,0.2963 4.5,2 0,1.7037 -0.66667,2 -4.5,2 -3.83333,0 -4.5,-0.2963 -4.5,-2 z m 13,0 c 0,-1.7037 0.66667,-2 4.5,-2 3.83333,0 4.5,0.2963 4.5,2 0,1.7037 -0.66667,2 -4.5,2 -3.83333,0 -4.5,-0.2963 -4.5,-2 z m 14,0 c 0,-1.7037 0.66667,-2 4.5,-2 3.83333,0 4.5,0.2963 4.5,2 0,1.7037 -0.66667,2 -4.5,2 -3.83333,0 -4.5,-0.2963 -4.5,-2 z m 13,0 c 0,-1.7037 0.66667,-2 4.5,-2 3.83333,0 4.5,0.2963 4.5,2 0,1.7037 -0.66667,2 -4.5,2 -3.83333,0 -4.5,-0.2963 -4.5,-2 z m 13,0 c 0,-1.7037 0.66667,-2 4.5,-2 3.83333,0 4.5,0.2963 4.5,2 0,1.7037 -0.66667,2 -4.5,2 -3.83333,0 -4.5,-0.2963 -4.5,-2 z m 13,0 c 0,-1.7037 0.66667,-2 4.5,-2 3.83333,0 4.5,0.2963 4.5,2 0,1.7037 -0.66667,2 -4.5,2 -3.83333,0 -4.5,-0.2963 -4.5,-2 z m 13,0 c 0,-1.46667 0.66667,-2 2.5,-2 1.83333,0 2.5,0.53333 2.5,2 0,1.46667 -0.66667,2 -2.5,2 -1.83333,0 -2.5,-0.53333 -2.5,-2 z"
       id="path45891"
       inkscape:connector-curvature="0" />
    <g
       id="g45930"
       transform="translate(336,-274)">
      <path
         id="path45928"
         d="m 724.06312,480.29825 c -2.48334,-3.15705 -2.49658,-3.31478 -0.51588,-6.14263 2.93427,-4.18925 10.4433,-1.67265 10.4433,3.5 0,1.93827 -3.75045,5.27749 -5.92742,5.27749 -1.06008,0 -2.86008,-1.18569 -4,-2.63486 z"
         style="fill:#9cd6f5;fill-opacity:1"
         inkscape:connector-curvature="0" />
      <path
         id="path45926"
         d="m 764.32731,481.45644 c -7.01063,-4.91044 -0.0232,-15.99813 7.59825,-12.05693 4.58567,2.37134 5.36156,6.61555 1.9924,10.89874 -2.35729,2.99681 -6.28796,3.47149 -9.59065,1.15819 z"
         style="fill:#9cd6f5;fill-opacity:1"
         inkscape:connector-curvature="0" />
      <path
         id="path45924"
         d="m 695.08311,474.54465 c -2.13093,-2.56762 -0.94318,-6.95214 2.17902,-8.04377 2.29891,-0.80378 3.14321,-0.59742 4.95063,1.21001 1.80726,1.80726 2.01377,2.65193 1.21036,4.95063 -0.73238,2.09547 -1.7169,2.84503 -4.03581,3.07265 -1.81751,0.17841 -3.57113,-0.30623 -4.3042,-1.18952 z"
         style="fill:#9cd6f5;fill-opacity:1"
         inkscape:connector-curvature="0" />
      <path
         id="path45922"
         d="m 742.56197,471.36168 c -3.3602,-3.3602 -1.35232,-9.42857 3.1197,-9.42857 1.78285,0 5.30887,3.65296 5.30887,5.5 0,1.90482 -3.54849,5.5 -5.42857,5.5 -0.78572,0 -2.13572,-0.70714 -3,-1.57143 z"
         style="fill:#9cd6f5;fill-opacity:1"
         inkscape:connector-curvature="0" />
      <path
         id="path45920"
         d="m 712.03041,469.48115 c -2.65646,-3.20084 1.24523,-8.11777 4.71013,-5.93574 3.46233,2.18041 2.22883,7.3877 -1.75,7.3877 -0.96531,0 -2.29737,-0.65338 -2.96013,-1.45196 z"
         style="fill:#9cd6f5;fill-opacity:1"
         inkscape:connector-curvature="0" />
      <path
         id="path45918"
         d="m 776.94602,466.84992 c -0.88943,-1.6619 -0.76408,-2.47082 0.6198,-4 2.38935,-2.6402 5.24733,-2.40024 6.59318,0.55358 0.86067,1.88895 0.8268,2.83039 -0.14388,4 -1.83395,2.20977 -5.75451,1.90275 -7.0691,-0.55358 z"
         style="fill:#9cd6f5;fill-opacity:1"
         inkscape:connector-curvature="0" />
      <path
         id="path45916"
         d="m 727.03041,463.48115 c -2.65646,-3.20084 1.24523,-8.11777 4.71013,-5.93574 3.46233,2.18041 2.22883,7.3877 -1.75,7.3877 -0.96531,0 -2.29737,-0.65338 -2.96013,-1.45196 z"
         style="fill:#9cd6f5;fill-opacity:1"
         inkscape:connector-curvature="0" />
      <path
         id="path45914"
         d="m 760.03041,463.48115 c -2.65646,-3.20084 1.24523,-8.11777 4.71013,-5.93574 3.46233,2.18041 2.22883,7.3877 -1.75,7.3877 -0.96531,0 -2.29737,-0.65338 -2.96013,-1.45196 z"
         style="fill:#9cd6f5;fill-opacity:1"
         inkscape:connector-curvature="0" />
      <path
         id="path45912"
         d="m 699.53421,458.5887 c -1.36949,-1.00139 -1.66464,-2.03747 -1.15682,-4.0608 0.58883,-2.34607 1.12016,-2.67402 3.89746,-2.40559 2.48174,0.23986 3.29027,0.83691 3.54245,2.61584 0.35292,2.48953 -1.34382,5.19496 -3.25808,5.19496 -0.65253,0 -2.01379,-0.60498 -3.02501,-1.34441 z"
         style="fill:#9cd6f5;fill-opacity:1"
         inkscape:connector-curvature="0" />
      <path
         id="path45910"
         d="m 685.54724,448.7106 c -2.01692,-2.87956 -1.96269,-4.1001 0.27204,-6.1225 3.71487,-3.36191 8.17126,-1.44774 8.17126,3.50983 0,4.7242 -5.72376,6.49535 -8.4433,2.61267 z"
         style="fill:#9cd6f5;fill-opacity:1"
         inkscape:connector-curvature="0" />
      <path
         id="path45908"
         d="m 711.21233,445.46339 c -6.21497,-1.94072 -10.65759,-5.75707 -13.61841,-11.69866 -4.56188,-9.1545 -3.01158,-18.35538 4.37774,-25.98154 5.16956,-5.33524 10.69155,-7.32817 18.2836,-6.59867 5.71212,0.54887 6.23465,0.94699 4.78877,3.64865 -0.60971,1.13924 -1.48807,4.10278 -1.95192,6.58564 -0.72017,3.85489 -0.60464,4.5143 0.79089,4.5143 1.14408,0 2.00409,-1.55698 2.86736,-5.19116 2.25166,-9.47896 8.99126,-16.42488 18.80184,-19.37743 6.0605,-1.82395 9.81493,-1.80571 16.15968,0.0785 6.1304,1.82053 14.15145,8.66401 16.65059,14.20609 1.5616,3.46301 2.14383,3.8796 5.6157,4.01805 8.17694,0.32607 15.37988,6.74128 17.4108,15.50671 1.86336,8.0422 -5.03076,18.42204 -13.68258,20.60059 -6.85847,1.72698 -70.80009,1.46697 -76.49406,-0.31105 z"
         style="fill:#dfe1d3;fill-opacity:1"
         inkscape:connector-curvature="0" />
      <path
         id="path45904"
         d="m 680.00792,426.45405 c -1.01051,-1.21759 -1.05315,-2.14701 -0.18584,-4.05055 2.03067,-4.45683 7.70022,-2.24859 6.99522,2.72457 -0.40199,2.83575 -4.83927,3.69982 -6.80938,1.32598 z"
         style="fill:#9cd6f5;fill-opacity:1"
         inkscape:connector-curvature="0" />
    </g>
    <g
       id="g45988"
       transform="translate(-20,-58)">
      <path
         id="path45986"
         d="m 398.72896,428.94292 c -2.01206,-0.80955 -4.44547,-6.33194 -3.84476,-8.72534 0.30082,-1.19858 4.68637,-5.97528 9.74565,-10.61491 7.58296,-6.95395 9.08194,-7.97042 8.5339,-5.78688 -0.36564,1.45683 -1.09357,6.79316 -1.61763,11.8585 -0.75576,7.30498 -1.41216,9.69864 -3.17378,11.57381 -2.12379,2.26067 -6.37851,3.00843 -9.64338,1.69482 z"
         style="fill:#4ba4b3;fill-opacity:0.9990223"
         inkscape:connector-curvature="0" />
      <path
         id="path45984"
         d="m 426.95454,427.15766 c -3.72966,-3.72966 -3.28638,-7.82534 1.29546,-11.96947 2.0625,-1.86546 6.39803,-5.7957 9.6345,-8.73386 4.03329,-3.66154 5.68128,-4.68969 5.23851,-3.26824 -0.3553,1.14064 -1.24656,6.72792 -1.9806,12.41617 -1.11028,8.60396 -1.71525,10.65051 -3.59929,12.17612 -3.19768,2.58932 -7.63889,2.32897 -10.58858,-0.62072 z"
         style="fill:#36d8f2;fill-opacity:1"
         inkscape:connector-curvature="0" />
      <path
         id="path45982"
         d="m 456.67431,427.29776 c -1.35049,-1.43754 -2.17431,-3.60008 -2.17431,-5.70762 0,-2.84017 0.84745,-4.13343 5.20004,-7.93554 2.86001,-2.49832 6.93734,-6.27756 9.06072,-8.39833 4.25771,-4.25247 5.32504,-4.31504 3.76845,-0.22089 -0.56471,1.4853 -1.28894,5.93521 -1.60941,9.88869 -0.68005,8.38954 -1.98788,12.38661 -4.49121,13.72636 -3.15203,1.68691 -7.45996,1.08951 -9.75428,-1.35267 z"
         style="fill:#4ba4b3;fill-opacity:0.9990223"
         inkscape:connector-curvature="0" />
      <path
         id="path45980"
         d="m 392.15499,393.78347 c -3.25759,-3.59959 -2.10303,-6.36247 5.50537,-13.17444 5.91457,-5.29545 7.05837,-5.98335 6.57412,-3.95383 -0.32243,1.35136 -0.89224,5.15701 -1.26625,8.45701 -0.37401,3.3 -1.31773,7.0125 -2.09717,8.25 -1.75383,2.78452 -6.37522,3.00788 -8.71607,0.42126 z"
         style="fill:#36d8f2;fill-opacity:1"
         inkscape:connector-curvature="0" />
      <path
         id="path45978"
         d="m 422.15499,393.78347 c -3.29475,-3.64066 -2.11913,-6.46757 5.50898,-13.24703 6.00549,-5.33737 7.06196,-5.96056 6.53321,-3.85381 -0.34692,1.38223 -0.9238,5.19434 -1.28196,8.47136 -0.35816,3.27702 -1.28347,6.97072 -2.05626,8.20822 -1.73936,2.78532 -6.36206,3.00905 -8.70397,0.42126 z"
         style="fill:#4ba4b3;fill-opacity:0.9990223"
         inkscape:connector-curvature="0" />
      <path
         id="path45976"
         d="m 452.07143,394.04078 c -3.39762,-3.39761 -2.00705,-6.75023 5.60628,-13.51656 5.87586,-5.22215 7.05342,-5.92871 6.49243,-3.89559 -0.37691,1.36597 -0.96041,5.18358 -1.29667,8.48358 -0.77757,7.63083 -2.50593,10.5 -6.32509,10.5 -1.59804,0 -3.61267,-0.70714 -4.47695,-1.57143 z"
         style="fill:#36d8f2;fill-opacity:1"
         inkscape:connector-curvature="0" />
      <path
         id="path45974"
         d="m 482.8997,394.8469 c -1.81625,-1.21275 -3.43179,-4.98749 -2.81854,-6.5856 0.3157,-0.82269 3.77938,-4.34279 7.69708,-7.82244 4.06059,-3.60658 6.79612,-5.47207 6.3626,-4.33897 -0.41826,1.09322 -1.01195,4.91822 -1.31931,8.5 -0.68251,7.95355 -2.38076,11.01786 -6.09458,10.99701 -1.49982,-0.008 -3.22208,-0.34593 -3.82725,-0.75 z"
         style="fill:#36d8f2;fill-opacity:1"
         inkscape:connector-curvature="0" />
      <path
         id="path45972"
         d="m 415.72896,368.94292 c -2.01206,-0.80955 -4.44547,-6.33194 -3.84476,-8.72534 0.30082,-1.19858 4.68637,-5.97528 9.74565,-10.61491 7.58296,-6.95396 9.08194,-7.97042 8.5339,-5.78688 -0.36564,1.45683 -1.09357,6.79316 -1.61763,11.8585 -0.75576,7.30498 -1.41216,9.69864 -3.17378,11.57381 -2.12379,2.26067 -6.37851,3.00843 -9.64338,1.69482 z"
         style="fill:#36d8f2;fill-opacity:1"
         inkscape:connector-curvature="0" />
      <path
         id="path45970"
         d="m 443.95454,367.15766 c -3.72966,-3.72966 -3.28638,-7.82534 1.29546,-11.96947 2.0625,-1.86546 6.39803,-5.7957 9.6345,-8.73386 4.03329,-3.66154 5.68128,-4.68969 5.23851,-3.26824 -0.3553,1.14064 -1.24656,6.72792 -1.9806,12.41617 -1.11028,8.60396 -1.71525,10.65051 -3.59929,12.17612 -3.19768,2.58932 -7.63889,2.32897 -10.58858,-0.62072 z"
         style="fill:#36d8f2;fill-opacity:1"
         inkscape:connector-curvature="0" />
      <path
         id="path45966"
         d="m 473.67431,367.29776 c -1.35049,-1.43754 -2.17431,-3.60008 -2.17431,-5.70762 0,-2.84017 0.84745,-4.13343 5.20003,-7.93554 2.86002,-2.49832 6.93735,-6.27756 9.06073,-8.39833 4.25771,-4.25248 5.32504,-4.31504 3.76845,-0.22089 -0.56471,1.4853 -1.28894,5.93521 -1.60941,9.88869 -0.68005,8.38954 -1.98788,12.38661 -4.49121,13.72636 -3.15203,1.68691 -7.45996,1.08951 -9.75428,-1.35267 z"
         style="fill:#4ba4b3;fill-opacity:0.9990223"
         inkscape:connector-curvature="0" />
    </g>
    <g
       id="g46023"
       transform="translate(8,-106)">
      <path
         inkscape:connector-curvature="0"
         id="path46021"
         d="m 514.15499,475.53347 c -3.25759,-3.59959 -2.10303,-6.36247 5.50537,-13.17444 5.91457,-5.29545 7.05837,-5.98335 6.57412,-3.95383 -0.32243,1.35136 -0.89224,5.15701 -1.26625,8.45701 -0.37401,3.3 -1.31773,7.0125 -2.09717,8.25 -1.75383,2.78452 -6.37522,3.00788 -8.71607,0.42126 z"
         style="fill:#39e5ff;fill-opacity:1" />
      <path
         inkscape:connector-curvature="0"
         id="path46019"
         d="m 544.15499,475.53347 c -3.25759,-3.59959 -2.10303,-6.36247 5.50537,-13.17444 5.95269,-5.32957 7.05459,-5.98939 6.53321,-3.91205 -0.34493,1.37434 -0.92019,5.17999 -1.27835,8.45701 -0.35816,3.27702 -1.28347,6.97072 -2.05626,8.20822 -1.73936,2.78532 -6.36206,3.00905 -8.70397,0.42126 z"
         style="fill:#39e5ff;fill-opacity:1" />
      <path
         inkscape:connector-curvature="0"
         id="path46017"
         d="m 574.07143,475.79078 c -3.40091,-3.40091 -2.00795,-6.74967 5.62923,-13.53298 3.96036,-3.51757 6.89731,-5.60243 6.52656,-4.63302 -0.37075,0.96941 -0.9633,4.79441 -1.31677,8.5 -0.35348,3.70559 -1.2758,7.74993 -2.04962,8.98743 -1.67467,2.67817 -6.4232,3.04477 -8.7894,0.67857 z"
         style="fill:#39e5ff;fill-opacity:1" />
      <path
         inkscape:connector-curvature="0"
         id="path46015"
         d="m 604.8997,476.5969 c -1.81625,-1.21275 -3.43179,-4.98749 -2.81854,-6.5856 0.3157,-0.82269 3.77938,-4.34279 7.69708,-7.82244 4.06059,-3.60658 6.79612,-5.47207 6.3626,-4.33897 -0.41826,1.09322 -1.01195,4.91822 -1.31931,8.5 -0.68251,7.95355 -2.38076,11.01786 -6.09458,10.99701 -1.49982,-0.008 -3.22208,-0.34592 -3.82725,-0.75 z"
         style="fill:#39e5ff;fill-opacity:1" />
      <path
         inkscape:connector-curvature="0"
         id="path46011"
         d="m 526.9628,448.77086 c -12.55873,-4.45911 -19.16511,-18.13568 -15.36741,-31.81368 1.57344,-5.66701 10.06371,-13.83176 16.14735,-15.52826 4.43308,-1.23621 14.06782,-1.08948 15.39172,0.23441 0.32476,0.32477 -0.13513,2.72004 -1.02199,5.32282 -2.19582,6.44438 -2.15013,10.62625 0.11133,10.19074 1.15592,-0.22262 1.96136,-1.72357 2.44492,-4.55612 4.61691,-27.04492 42.24524,-32.9857 55.882,-8.82268 2.76898,4.90635 3.32119,5.34325 7.4728,5.91229 6.54971,0.89774 12.09742,4.12191 15.22536,8.84856 2.357,3.56166 2.75112,5.18094 2.75112,11.30327 0,9.19549 -2.85988,14.00548 -10.6292,17.87709 l -5.26349,2.62291 -39.55365,-0.079 c -31.64311,-0.0632 -40.36108,-0.36563 -43.59086,-1.5124 z"
         style="fill:#dfe1d3;fill-opacity:1" />
    </g>
    <path
       style="fill:#9cd6f5;fill-opacity:1"
       d="m 693.47488,390.00161 0,-3.67432 -2.52731,2.37428 -2.5273,2.37428 -2.67266,-2.67266 -2.67266,-2.67266 2.37428,-2.5273 2.37428,-2.52731 -3.67432,0 c -3.62003,0 -3.67431,-0.0591 -3.67431,-4 0,-3.94091 0.0543,-4 3.67431,-4 l 3.67432,0 -2.37428,-2.52731 -2.37428,-2.5273 2.67266,-2.67266 2.67266,-2.67266 2.5273,2.37428 2.52731,2.37428 0,-3.17432 c 0,-3.0367 0.17341,-3.17431 4,-3.17431 3.82659,0 4,0.13761 4,3.17431 l 0,3.17432 2.52731,-2.37428 2.5273,-2.37428 2.67266,2.67266 2.67266,2.67266 -2.37428,2.5273 -2.37428,2.52731 3.17432,0 c 3.0367,0 3.17431,0.17341 3.17431,4 0,3.82659 -0.13761,4 -3.17431,4 l -3.17432,0 2.37428,2.52731 2.37428,2.5273 -2.67266,2.67266 -2.67266,2.67266 -2.5273,-2.37428 -2.52731,-2.37428 0,3.67432 c 0,3.62003 -0.0591,3.67431 -4,3.67431 -3.94091,0 -4,-0.0543 -4,-3.67431 z m 39.38,-8.7778 c -0.30647,-0.79866 -0.215,-2.03617 0.20328,-2.75 0.41828,-0.71384 -0.23085,-0.42797 -1.44251,0.63527 -2.04835,1.79743 -2.31902,1.81717 -3.85506,0.28113 -1.53604,-1.53604 -1.52297,-1.79464 0.18612,-3.68316 1.80368,-1.99305 1.78837,-2.03113 -0.81684,-2.03113 -2.16532,0 -2.65499,-0.46108 -2.65499,-2.5 0,-1.83685 0.53277,-2.5 2.00847,-2.5 1.74969,0 1.84955,-0.25448 0.77504,-1.97504 -1.7749,-2.84208 0.39027,-5.02204 3.22788,-3.24992 2.63615,1.6463 2.88906,1.56027 2.27836,-0.77504 -0.44039,-1.68406 -0.0307,-2 2.59362,-2 2.5099,0 3.11663,0.41319 3.11663,2.12244 0,1.68617 0.28228,1.88818 1.37325,0.98275 2.9035,-2.40969 6.09263,1.02893 3.42675,3.69481 -0.93333,0.93333 -0.71111,1.2 1,1.2 1.68,0 2.2,0.59091 2.2,2.5 0,2.03892 -0.48967,2.5 -2.65499,2.5 -2.60521,0 -2.62052,0.0381 -0.81684,2.03113 1.70043,1.87895 1.7158,2.15347 0.20518,3.66409 -1.28215,1.28215 -1.93977,1.37836 -3.06102,0.4478 -1.1472,-0.95209 -1.53198,-0.7877 -1.95657,0.8359 -0.61736,2.3608 -4.48972,2.77372 -5.33576,0.56897 z m 32.62,-11.7222 0,-3.17432 -2.52731,2.37428 -2.5273,2.37428 -2.67266,-2.67266 -2.67266,-2.67266 2.37428,-2.5273 2.37428,-2.52731 -3.17432,0 c -3.0367,0 -3.17431,-0.17341 -3.17431,-4 0,-3.82659 0.13761,-4 3.17431,-4 l 3.17432,0 -2.37428,-2.52731 -2.37428,-2.5273 2.67266,-2.67266 2.67266,-2.67266 2.5273,2.37428 2.52731,2.37428 0,-3.17432 c 0,-3.0367 0.17341,-3.17431 4,-3.17431 3.82659,0 4,0.13761 4,3.17431 l 0,3.17432 2.52731,-2.37428 2.5273,-2.37428 2.67266,2.67266 2.67266,2.67266 -2.37428,2.5273 -2.37428,2.52731 3.67432,0 c 3.62003,0 3.67431,0.0591 3.67431,4 0,3.94091 -0.0543,4 -3.67431,4 l -3.67432,0 2.37428,2.52731 2.37428,2.5273 -2.67266,2.67266 -2.67266,2.67266 -2.5273,-2.37428 -2.52731,-2.37428 0,3.17432 c 0,3.0367 -0.17341,3.17431 -4,3.17431 -3.82659,0 -4,-0.13761 -4,-3.17431 z m -33,-25.94813 c 0,-1.77324 -0.2468,-1.91763 -1.5,-0.87756 -1.19785,0.99412 -1.80724,0.98991 -3.02523,-0.0209 -1.36397,-1.13199 -1.35527,-1.45362 0.0823,-3.04211 1.49413,-1.651 1.44301,-1.79958 -0.72477,-2.10662 -1.28276,-0.18168 -2.33229,-1.00533 -2.33229,-1.83033 0,-0.825 1.04953,-1.64865 2.33229,-1.83033 2.16778,-0.30704 2.2189,-0.45562 0.72477,-2.10662 -1.43756,-1.58849 -1.44626,-1.91012 -0.0823,-3.04211 1.21799,-1.01085 1.82738,-1.01506 3.02523,-0.0209 1.2532,1.04007 1.5,0.89568 1.5,-0.87756 0,-1.59727 0.61859,-2.12244 2.5,-2.12244 1.88141,0 2.5,0.52517 2.5,2.12244 0,1.77324 0.2468,1.91763 1.5,0.87756 1.19785,-0.99412 1.80724,-0.98991 3.02523,0.0209 1.36397,1.132 1.35527,1.45363 -0.0823,3.04211 -1.49396,1.6508 -1.44348,1.79962 0.71455,2.10662 1.27714,0.18168 2.47217,1.11783 2.65561,2.08033 0.25169,1.32056 -0.33598,1.75 -2.39477,1.75 -2.59473,0 -2.64605,0.0909 -1.04809,1.85662 1.49992,1.6574 1.51655,1.99244 0.15498,3.12244 -1.21798,1.01085 -1.82737,1.01506 -3.02522,0.0209 -1.2532,-1.04007 -1.5,-0.89568 -1.5,0.87756 0,1.59727 -0.61859,2.12244 -2.5,2.12244 -1.88141,0 -2.5,-0.52517 -2.5,-2.12244 z m -29.11842,-2.62756 c -0.0651,-0.4125 -0.0651,-1.0875 0,-1.5 0.0651,-0.4125 -0.33158,-0.75 -0.88158,-0.75 -0.55,0 -1,0.45 -1,1 0,1.60227 -2.0043,1.15237 -2.6771,-0.60093 -0.33789,-0.8805 0.0137,-1.99861 0.78138,-2.48468 1.04922,-0.66436 0.83714,-0.88757 -0.85428,-0.89908 -2.51778,-0.0171 -3.12807,-2.74113 -0.81314,-3.62945 0.79027,-0.30326 1.20959,-1.14362 0.93182,-1.86747 -0.74298,-1.93617 1.47492,-2.89308 3.26402,-1.40826 1.30949,1.08678 1.49342,0.99107 1.2062,-0.62765 -0.21183,-1.1938 0.31729,-2.0448 1.4111,-2.26955 1.25258,-0.25737 1.77244,0.3008 1.82895,1.96375 0.0434,1.27782 0.30592,1.76082 0.58333,1.07332 0.27741,-0.6875 1.11533,-1.25 1.86204,-1.25 2.02021,0 2.9359,2.0944 1.35379,3.09649 -1.08993,0.69036 -1.01217,0.87609 0.37189,0.8882 1.07823,0.009 1.75,0.78305 1.75,2.01531 0,1.1782 -0.66667,2 -1.62244,2 -1.20719,0 -1.3498,0.32852 -0.55721,1.28354 0.63429,0.76427 0.71466,1.8508 0.19866,2.6857 -0.71713,1.16035 -1.1384,1.17656 -2.44279,0.094 -1.32481,-1.09949 -1.57622,-1.04936 -1.57622,0.3143 0,1.57369 -2.88046,2.37955 -3.11842,0.87244 z m 68.08801,-17.42668 c -0.0276,-2.10541 -0.12892,-2.15398 -1.08072,-0.51787 -0.83419,1.43395 -1.34489,1.56097 -2.48192,0.61732 -1.08532,-0.90073 -1.15713,-1.51886 -0.29684,-2.55545 0.88045,-1.06087 0.77115,-1.36732 -0.48767,-1.36732 -0.95577,0 -1.62244,-0.8218 -1.62244,-2 0,-1.1782 0.66667,-2 1.62244,-2 1.23281,0 1.3586,-0.31791 0.5238,-1.32379 -1.5617,-1.88173 0.64824,-4.09167 2.52997,-2.52997 1.00988,0.83812 1.32379,0.69653 1.32379,-0.59712 0,-1.08533 0.62996,-1.56633 1.75,-1.33619 1.11293,0.22867 1.62249,1.07291 1.39973,2.31905 -0.34349,1.92158 -0.31005,1.92308 1.72915,0.0776 1.94907,-1.76388 2.12121,-1.77296 2.74599,-0.1448 0.37424,0.97526 0.12704,2.07049 -0.56369,2.49738 -0.85502,0.52843 -0.59446,0.9266 0.85429,1.30545 2.7392,0.71632 2.65647,2.56692 -0.16547,3.7012 -1.2375,0.49741 -1.6875,0.93291 -1,0.96778 1.66535,0.0844 1.61673,3.06338 -0.05,3.06338 -0.715,0 -1.87761,-0.5625 -2.58357,-1.25 -1.03466,-1.00759 -1.21889,-0.86918 -0.95,0.71375 0.21092,1.24171 -0.30988,2.09596 -1.41643,2.32332 -1.26185,0.25928 -1.75848,-0.2885 -1.78041,-1.96375 z m -77.96959,-10.94576 c 0,-1.77324 -0.2468,-1.91763 -1.5,-0.87756 -1.19785,0.99412 -1.80724,0.98991 -3.02523,-0.0209 -1.36156,-1.13 -1.34493,-1.46505 0.15499,-3.12244 1.59795,-1.76572 1.54664,-1.85662 -1.0481,-1.85662 -2.05878,0 -2.64646,-0.42945 -2.39477,-1.75 0.18345,-0.9625 1.37847,-1.89865 2.65561,-2.08033 2.15803,-0.307 2.20851,-0.45582 0.71456,-2.10662 -1.43756,-1.58849 -1.44626,-1.91012 -0.0823,-3.04211 1.21799,-1.01085 1.82738,-1.01506 3.02523,-0.0209 1.2532,1.04007 1.5,0.89568 1.5,-0.87755 0,-1.59728 0.61859,-2.12245 2.5,-2.12245 1.88141,0 2.5,0.52517 2.5,2.12245 0,1.77323 0.2468,1.91762 1.5,0.87755 1.19785,-0.99412 1.80724,-0.98991 3.02523,0.0209 1.36156,1.13 1.34493,1.46505 -0.15499,3.12244 -1.58758,1.75425 -1.5614,1.85662 0.47477,1.85662 1.48832,0 2.15499,0.61872 2.15499,2 0,1.38128 -0.66667,2 -2.15499,2 -2.03617,0 -2.06235,0.10237 -0.47477,1.85662 1.49992,1.65739 1.51655,1.99244 0.15499,3.12244 -1.21799,1.01085 -1.82738,1.01506 -3.02523,0.0209 -1.2532,-1.04007 -1.5,-0.89568 -1.5,0.87756 0,1.59727 -0.61859,2.12244 -2.5,2.12244 -1.88141,0 -2.5,-0.52517 -2.5,-2.12244 z m 44,-4.463 c 0,-2.58098 -0.0968,-2.63691 -1.83769,-1.06145 -1.71679,1.55368 -1.94569,1.54373 -3.47956,-0.15117 -1.52351,-1.68347 -1.51977,-1.93635 0.052,-3.50809 1.5918,-1.5918 1.53032,-1.69385 -1.02043,-1.69385 -2.22858,0 -2.71429,-0.44737 -2.71429,-2.5 0,-2.03892 0.48967,-2.5 2.65499,-2.5 2.51348,0 2.56634,-0.098 0.9919,-1.83769 -1.55368,-1.71679 -1.54373,-1.94569 0.15117,-3.47956 1.68347,-1.52351 1.93635,-1.51977 3.50809,0.052 1.5918,1.59179 1.69385,1.53031 1.69385,-1.02044 0,-2.22858 0.44737,-2.71429 2.5,-2.71429 2.03892,0 2.5,0.48967 2.5,2.65499 0,2.5233 0.0921,2.57165 1.85662,0.97477 1.70202,-1.54031 1.96763,-1.54645 3.18983,-0.0738 1.05199,1.26757 1.08044,2.01119 0.13491,3.52523 -1.03205,1.65258 -0.91965,1.9188 0.81017,1.9188 1.4757,0 2.00847,0.66315 2.00847,2.5 0,1.83685 -0.53277,2.5 -2.00847,2.5 -1.7527,0 -1.8507,0.25264 -0.76955,1.98383 1.03271,1.65364 0.94147,2.27781 -0.54814,3.75 -1.7088,1.68881 -1.83707,1.67857 -2.92855,-0.23383 -1.10103,-1.92915 -1.16247,-1.91144 -1.73437,0.5 -0.3739,1.57653 -1.40889,2.61804 -2.80191,2.81955 -1.81638,0.26274 -2.20904,-0.16476 -2.20904,-2.405 z"
       id="path46041"
       inkscape:connector-curvature="0" />
    <g
       id="g46060"
       transform="translate(-82.731493,-86.267027)">
      <path
         id="path46058"
         d="m 964.34105,481.41824 c 0.65409,-1.22219 3.33278,-8.23737 5.95265,-15.5893 l 4.76338,-13.36715 -7.86254,0 -7.86254,0 4.321,-6.75 4.321,-6.75 7.78064,-0.29402 7.78063,-0.29402 -2.16477,3.50267 -2.16477,3.50268 8.02777,0.29134 8.02778,0.29135 -14.585,18.5 c -8.02174,10.175 -15.24638,18.65269 -16.05474,18.8393 -1.21916,0.28146 -1.26698,-0.0396 -0.28049,-1.88285 z"
         style="fill:#ffdf4e;fill-opacity:1"
         inkscape:connector-curvature="0" />
      <path
         id="path46054"
         d="m 940.53953,432.99207 c -6.21497,-1.94072 -10.65759,-5.75707 -13.61841,-11.69866 -4.56188,-9.1545 -3.01158,-18.35538 4.37774,-25.98154 5.16956,-5.33524 10.69155,-7.32817 18.2836,-6.59867 5.71212,0.54887 6.23465,0.94699 4.78877,3.64865 -0.60971,1.13924 -1.48807,4.10278 -1.95192,6.58564 -0.72017,3.85489 -0.60464,4.5143 0.79088,4.5143 1.14409,0 2.0041,-1.55698 2.86737,-5.19116 2.25166,-9.47896 8.99126,-16.42488 18.80184,-19.37743 6.0605,-1.82395 9.81493,-1.80571 16.15968,0.0785 6.1304,1.82053 14.15142,8.66401 16.65062,14.20609 1.5616,3.46301 2.1438,3.8796 5.6157,4.01805 8.1769,0.32607 15.3799,6.74128 17.4108,15.50671 1.8633,8.0422 -5.0308,18.42204 -13.6826,20.60059 -6.8585,1.72698 -70.8001,1.46697 -76.49407,-0.31105 z"
         style="fill:#dfe1d3;fill-opacity:1"
         inkscape:connector-curvature="0" />
    </g>
    <path
       style="fill:#dfe1d3;fill-opacity:1"
       d="m 1102.6719,379.81064 c -5.587,-3.40655 -7.5581,-10.03564 -4.844,-16.29048 0.7106,-1.63745 -0.6945,-1.75 -21.8476,-1.75 -21.9403,0 -22.607,-0.059 -22.607,-2 0,-1.95461 0.6667,-2 29.375,-2 l 29.375,0 0.6321,3.16009 c 0.3702,1.85114 2.258,4.66121 4.5575,6.78415 l 3.9256,3.62406 -1.6197,3.34435 c -3.1831,6.57233 -10.7986,8.87666 -16.9469,5.12783 z m 16.9367,-15.46364 c -3.3557,-3.07535 -3.7283,-3.9136 -3.6664,-8.25 0.038,-2.65476 0.2628,-5.50184 0.5,-6.32684 0.3781,-1.31548 -5.3198,-1.53197 -46.3189,-1.75989 -45.9187,-0.25527 -46.7499,-0.29527 -46.7499,-2.25 0,-1.96248 0.757,-1.99011 54.5146,-1.99011 l 54.5147,0 3.7353,3.42316 c 3.3878,3.10464 3.7353,3.9027 3.7353,8.57684 0,4.67414 -0.3475,5.4722 -3.7353,8.57684 -3.1032,2.84391 -4.5017,3.42316 -8.2647,3.42316 -3.7629,0 -5.1614,-0.57925 -8.2647,-3.42316 z m -89.2352,-34.56388 c 0,-1.93956 0.8305,-1.99333 34.7499,-2.25 30.3207,-0.22944 34.6978,-0.45415 34.34,-1.76296 -2.9275,-10.70961 1.6956,-18 11.4144,-18 4.0068,0 5.1944,0.49877 8.0956,3.4 2.9652,2.96519 3.4,4.04311 3.4,8.4288 0,4.33614 -0.4639,5.52069 -3.368,8.6 l -3.3681,3.5712 -42.6319,0 c -41.8725,0 -42.6319,-0.0354 -42.6319,-1.98704 z m 95.6268,-14.12877 c -0.6056,-3.02795 -6.723,-10.11986 -9.509,-11.02384 -2.1281,-0.69049 1.2589,-6.50957 5.1807,-8.90083 5.8814,-3.5861 13.0411,-1.7305 16.7419,4.33903 3.8057,6.24152 1.1723,14.46112 -5.5303,17.26163 -5.0106,2.09356 -6.1867,1.80719 -6.8833,-1.67599 z m -89.6268,0.11581 c 0,-1.95497 0.6667,-2 29.6069,-2 26.5869,0 29.5451,0.16135 29,1.58179 -0.3338,0.86998 -0.607,1.76998 -0.607,2 0,0.23001 -13.05,0.41821 -29,0.41821 -28.3332,0 -28.9999,-0.046 -28.9999,-2 z"
       id="path46075"
       inkscape:connector-curvature="0" />
  </g>
</svg>
