<?xml version="1.0" encoding="UTF-8" standalone="no"?>
<!-- Created with Inkscape (http://www.inkscape.org/) -->

<svg
   xmlns:dc="http://purl.org/dc/elements/1.1/"
   xmlns:cc="http://creativecommons.org/ns#"
   xmlns:rdf="http://www.w3.org/1999/02/22-rdf-syntax-ns#"
   xmlns:svg="http://www.w3.org/2000/svg"
   xmlns="http://www.w3.org/2000/svg"
   xmlns:sodipodi="http://sodipodi.sourceforge.net/DTD/sodipodi-0.dtd"
   xmlns:inkscape="http://www.inkscape.org/namespaces/inkscape"
   width="256"
   height="256"
   viewBox="0 0 256 256"
   id="svg2"
   version="1.1"
   inkscape:version="0.91 r13725"
   sodipodi:docname="wind.svg">
  <defs
     id="defs4" />
  <sodipodi:namedview
     id="base"
     pagecolor="#ffffff"
     bordercolor="#666666"
     borderopacity="1.0"
     inkscape:pageopacity="0.0"
     inkscape:pageshadow="2"
     inkscape:zoom="0.1767767"
     inkscape:cx="919.2677"
     inkscape:cy="252.4817"
     inkscape:document-units="px"
     inkscape:current-layer="layer1"
     showgrid="false"
     inkscape:window-width="1276"
     inkscape:window-height="1400"
     inkscape:window-x="1280"
     inkscape:window-y="38"
     inkscape:window-maximized="0"
     units="px" />
  <metadata
     id="metadata7">
    <rdf:RDF>
      <cc:Work
         rdf:about="">
        <dc:format>image/svg+xml</dc:format>
        <dc:type
           rdf:resource="http://purl.org/dc/dcmitype/StillImage" />
        <dc:title></dc:title>
      </cc:Work>
    </rdf:RDF>
  </metadata>
  <g
     inkscape:label="Layer 1"
     inkscape:groupmode="layer"
     id="layer1"
     transform="translate(0,-796.36216)">
    <path
       style="fill:#000000"
       d=""
       id="path45631"
       inkscape:connector-curvature="0" />
    <path
       style="fill:#dfe1d3;fill-opacity:1"
       d="m 169.80287,1008.4638 c -11.174,-6.8131 -15.1162,-20.07125 -9.688,-32.58093 1.4212,-3.2749 -1.389,-3.5 -43.6952,-3.5 -43.880604,0 -45.214004,-0.118 -45.214004,-4 0,-3.90922 1.3334,-4 58.750004,-4 l 58.75,0 1.2642,6.32018 c 0.7404,3.70228 4.516,9.32242 9.115,13.5683 l 7.8512,7.24812 -3.2394,6.6887 c -6.3662,13.14463 -21.5972,17.75333 -33.8938,10.25563 z m 33.8734,-30.92725 c -6.7114,-6.1507 -7.4566,-7.8272 -7.3328,-16.5 0.076,-5.30952 0.5256,-11.00368 1,-12.65368 0.7562,-2.63096 -10.6396,-3.06394 -92.6378,-3.51978 -91.837404,-0.51054 -93.499804,-0.59054 -93.499804,-4.5 0,-3.92496 1.514,-3.98022 109.029204,-3.98022 l 109.0294,0 7.4706,6.84632 c 6.7756,6.20928 7.4706,7.8054 7.4706,17.15368 0,9.34828 -0.695,10.9444 -7.4706,17.15368 -6.2064,5.68782 -9.0034,6.84632 -16.5294,6.84632 -7.5258,0 -10.3228,-1.1585 -16.5294,-6.84632 z M 25.205866,908.40879 c 0,-3.87912 1.661,-3.98666 69.4998,-4.5 60.641404,-0.45888 69.395604,-0.9083 68.680004,-3.52592 -5.855,-21.41922 3.3912,-36 22.8288,-36 8.0136,0 10.3888,0.99754 16.1912,6.8 5.9304,5.93038 6.8,8.08622 6.8,16.8576 0,8.67228 -0.9278,11.04138 -6.736,17.2 l -6.7362,7.1424 -85.2638,0 c -83.745004,0 -85.263804,-0.0708 -85.263804,-3.97408 z M 216.45947,880.15125 c -1.2112,-6.0559 -13.446,-20.23972 -19.018,-22.04768 -4.2562,-1.38098 2.5178,-13.01914 10.3614,-17.80166 11.7628,-7.1722 26.0822,-3.461 33.4838,8.67806 7.6114,12.48304 2.3446,28.92224 -11.0606,34.52326 -10.0212,4.18712 -12.3734,3.61438 -13.7666,-3.35198 z m -179.253604,0.23162 c 0,-3.90994 1.3334,-4 59.2138,-4 53.173804,0 59.090204,0.3227 58.000004,3.16358 -0.6676,1.73996 -1.214,3.53996 -1.214,4 0,0.46002 -26.1,0.83642 -58.000004,0.83642 -56.6664,0 -57.9998,-0.092 -57.9998,-4 z"
       id="path46075"
       inkscape:connector-curvature="0" />
  </g>
</svg>
